<svg xmlns="http://www.w3.org/2000/svg" width="20.071" height="14.996" viewBox="0 0 20.071 14.996">
  <g id="camera" transform="translate(0 -48.918)">
    <g id="Group_1312" data-name="Group 1312" transform="translate(0 48.918)">
      <g id="Group_1311" data-name="Group 1311" transform="translate(0 0)">
        <path id="Path_3216" data-name="Path 3216" d="M133.888,143a3.26,3.26,0,1,0,3.26,3.259A3.26,3.26,0,0,0,133.888,143Zm1.788,5.048a2.527,2.527,0,1,1,0-3.574A2.527,2.527,0,0,1,135.676,148.049Z" transform="translate(-123.853 -138.121)" fill="#747474"/>
        <path id="Path_3217" data-name="Path 3217" d="M19.706,50.935a1.245,1.245,0,0,0-.882-.367H14.079l-.166-.855a1.071,1.071,0,0,0-.28-.556.79.79,0,0,0-.573-.239H7.013a.787.787,0,0,0-.548.207l-.027.023a1.069,1.069,0,0,0-.28.552l-.166.855H1.245A1.245,1.245,0,0,0,0,51.8V62.665a1.245,1.245,0,0,0,.365.882h0a1.245,1.245,0,0,0,.882.367H18.826a1.245,1.245,0,0,0,1.245-1.245V51.817A1.245,1.245,0,0,0,19.706,50.935ZM3.378,54.058H2.756a.78.78,0,0,1,0-1.56h.622a.78.78,0,0,1,0,1.56Zm6.659,7.347a4.347,4.347,0,0,1,0-8.694h0a4.347,4.347,0,0,1,0,8.694Z" transform="translate(0 -48.918)" fill="#747474"/>
      </g>
    </g>
  </g>
</svg>
