<svg xmlns="http://www.w3.org/2000/svg" width="117" height="117" viewBox="0 0 117 117">
  <g id="Group_3284" data-name="Group 3284" transform="translate(-3832 -3068)">
    <circle id="Ellipse_597" data-name="Ellipse 597" cx="58.5" cy="58.5" r="58.5" transform="translate(3832 3068)" fill="#fcfcfd"/>
    <g id="Group_3283" data-name="Group 3283" transform="translate(3701.239 2870.848)">
      <path id="Path_3725" data-name="Path 3725" d="M213.157,221.169l-2.25-.017H168.542l-2.251.017-8.53,16.859h10.781V274.1h42.364V238.028h10.781Z" transform="translate(0 0)" fill="#efc090"/>
      <rect id="Rectangle_1156" data-name="Rectangle 1156" width="63.926" height="52.953" transform="translate(157.761 238.028)" fill="#d7965e"/>
      <g id="Group_3279" data-name="Group 3279" transform="translate(204.687 279.517)">
        <path id="Path_3726" data-name="Path 3726" d="M169.7,243.648l14.065.09-.079-7.813-14.047.133Z" transform="translate(-169.639 -235.925)" fill="#fff"/>
        <path id="Path_3727" data-name="Path 3727" d="M173.064,239.8h.233l-.027-2.7h-.233Z" transform="translate(-159.614 -232.447)" fill="#915f41"/>
        <path id="Path_3728" data-name="Path 3728" d="M172.819,239.521h.333l-.023-2.417H172.8Z" transform="translate(-160.325 -232.447)" fill="#915f41"/>
        <path id="Path_3729" data-name="Path 3729" d="M173,239.8h.174l-.027-2.7h-.174Z" transform="translate(-159.813 -232.447)" fill="#915f41"/>
        <path id="Path_3730" data-name="Path 3730" d="M169.875,239.731l.232,0-.022-2.628h-.232Z" transform="translate(-169.006 -232.448)" fill="#915f41"/>
        <path id="Path_3731" data-name="Path 3731" d="M169.807,239.73h.174l-.021-2.626h-.175Z" transform="translate(-169.206 -232.448)" fill="#915f41"/>
        <path id="Path_3732" data-name="Path 3732" d="M172.739,239.519l.107,0-.024-2.415h-.107Z" transform="translate(-160.562 -232.447)" fill="#915f41"/>
        <path id="Path_3733" data-name="Path 3733" d="M172.627,239.516h.155l-.024-2.413H172.6Z" transform="translate(-160.891 -232.446)" fill="#915f41"/>
        <path id="Path_3734" data-name="Path 3734" d="M172.707,239.518h.08l-.024-2.413h-.08Z" transform="translate(-160.654 -232.446)" fill="#915f41"/>
        <path id="Path_3735" data-name="Path 3735" d="M172.541,239.516h.341l-.024-2.412h-.341Z" transform="translate(-161.146 -232.446)" fill="#915f41"/>
        <path id="Path_3736" data-name="Path 3736" d="M172.185,239.51l.49,0-.023-2.406h-.49Z" transform="translate(-162.192 -232.446)" fill="#915f41"/>
        <path id="Path_3737" data-name="Path 3737" d="M172.44,239.514h.256l-.023-2.409h-.256Z" transform="translate(-161.44 -232.446)" fill="#915f41"/>
        <path id="Path_3738" data-name="Path 3738" d="M172.067,239.507h.158l-.022-2.4h-.158Z" transform="translate(-162.54 -232.446)" fill="#915f41"/>
        <path id="Path_3739" data-name="Path 3739" d="M172.021,239.505h.119l-.022-2.4H172Z" transform="translate(-162.676 -232.445)" fill="#915f41"/>
        <path id="Path_3740" data-name="Path 3740" d="M171.9,239.5l.254,0-.023-2.4h-.254Z" transform="translate(-163.038 -232.445)" fill="#915f41"/>
        <rect id="Rectangle_1157" data-name="Rectangle 1157" width="0.082" height="2.397" transform="translate(8.607 4.66)" fill="#915f41"/>
        <path id="Path_3741" data-name="Path 3741" d="M171.752,239.5h.118l-.022-2.4h-.119Z" transform="translate(-163.469 -232.445)" fill="#915f41"/>
        <path id="Path_3742" data-name="Path 3742" d="M171.813,239.5h.061l-.023-2.4h-.06Z" transform="translate(-163.288 -232.445)" fill="#915f41"/>
        <path id="Path_3743" data-name="Path 3743" d="M171.687,239.5h.259l-.023-2.395h-.259Z" transform="translate(-163.662 -232.445)" fill="#915f41"/>
        <path id="Path_3744" data-name="Path 3744" d="M171.417,239.494l.372,0-.022-2.39h-.373Z" transform="translate(-164.458 -232.445)" fill="#915f41"/>
        <path id="Path_3745" data-name="Path 3745" d="M171.611,239.5h.2l-.022-2.395h-.2Z" transform="translate(-163.886 -232.446)" fill="#915f41"/>
        <path id="Path_3746" data-name="Path 3746" d="M171.2,239.49h.155l-.022-2.385h-.154Z" transform="translate(-165.096 -232.445)" fill="#915f41"/>
        <path id="Path_3747" data-name="Path 3747" d="M171.113,239.488l.341,0-.021-2.385h-.341Z" transform="translate(-165.351 -232.446)" fill="#915f41"/>
        <path id="Path_3748" data-name="Path 3748" d="M171.459,237.105h-.721l.021,2.376.721,0" transform="translate(-166.396 -232.446)" fill="#915f41"/>
        <path id="Path_3749" data-name="Path 3749" d="M171.014,239.487h.256l-.021-2.383h-.256Z" transform="translate(-165.645 -232.446)" fill="#915f41"/>
        <path id="Path_3750" data-name="Path 3750" d="M170.641,239.478h.158l-.021-2.374h-.158Z" transform="translate(-166.744 -232.446)" fill="#915f41"/>
        <path id="Path_3751" data-name="Path 3751" d="M170.681,239.478l.157,0-.021-2.375h-.157Z" transform="translate(-166.626 -232.446)" fill="#915f41"/>
        <path id="Path_3752" data-name="Path 3752" d="M170.595,239.478h.118l-.02-2.373h-.119Z" transform="translate(-166.88 -232.446)" fill="#915f41"/>
        <path id="Path_3753" data-name="Path 3753" d="M170.472,239.475h.253l-.02-2.372h-.254Z" transform="translate(-167.241 -232.446)" fill="#915f41"/>
        <path id="Path_3754" data-name="Path 3754" d="M170.41,239.473h.082l-.02-2.369h-.082Z" transform="translate(-167.421 -232.446)" fill="#915f41"/>
        <path id="Path_3755" data-name="Path 3755" d="M170.325,239.471h.119l-.02-2.368h-.118Z" transform="translate(-167.671 -232.446)" fill="#915f41"/>
        <path id="Path_3756" data-name="Path 3756" d="M170.387,239.473h.061l-.02-2.369h-.061Z" transform="translate(-167.491 -232.446)" fill="#915f41"/>
        <path id="Path_3757" data-name="Path 3757" d="M170.26,239.47h.259l-.02-2.367h-.259Z" transform="translate(-167.865 -232.446)" fill="#915f41"/>
        <path id="Path_3758" data-name="Path 3758" d="M169.99,239.464l.372,0-.019-2.362h-.372Z" transform="translate(-168.659 -232.447)" fill="#915f41"/>
        <path id="Path_3759" data-name="Path 3759" d="M170.184,239.469h.195l-.019-2.365h-.195Z" transform="translate(-168.087 -232.447)" fill="#915f41"/>
        <path id="Path_3760" data-name="Path 3760" d="M171.329,239.765h.12l-.023-2.66h-.12Z" transform="translate(-164.722 -232.445)" fill="#915f41"/>
        <path id="Path_3761" data-name="Path 3761" d="M171.294,239.764h.091l-.024-2.659h-.09Z" transform="translate(-164.825 -232.445)" fill="#915f41"/>
        <rect id="Rectangle_1158" data-name="Rectangle 1158" width="12.956" height="0.814" transform="translate(0.598 0.887) rotate(-0.356)" fill="#915f41"/>
        <path id="Path_3762" data-name="Path 3762" d="M169.788,237.363l12.958-.041-.008-.826-12.957.064Z" transform="translate(-169.218 -234.242)" fill="#915f41"/>
      </g>
      <g id="Group_3282" data-name="Group 3282" transform="translate(163.825 273.321)">
        <g id="Group_3281" data-name="Group 3281" transform="translate(2.463 1.159)">
          <g id="Group_3280" data-name="Group 3280">
            <path id="Path_3763" data-name="Path 3763" d="M163.419,234.663l2.149,3.462-1.372-.008.013,6.61h-1.54l-.012-6.618-1.372-.009Z" transform="translate(-155.889 -234.612)" fill="#915f41"/>
            <path id="Path_3764" data-name="Path 3764" d="M162.057,234.65l2.144,3.479-1.374-.008.007,6.64H161.3l0-6.649-1.371-.01Z" transform="translate(-159.919 -234.65)" fill="#915f41"/>
          </g>
          <rect id="Rectangle_1159" data-name="Rectangle 1159" width="9.693" height="0.906" transform="translate(0.003 10.518)" fill="#915f41"/>
        </g>
        <path id="Path_3765" data-name="Path 3765" d="M159.3,234.357v13.7l14.634-.02-.036-13.535Zm.47.446,13.654.134.036,12.666-13.685.012Z" transform="translate(-159.296 -234.357)" fill="#915f41"/>
      </g>
      <path id="Path_3766" data-name="Path 3766" d="M177.606,221.152H165.577l-1.67,16.876h15.37Z" transform="translate(18.133 0)" fill="#8a5f3a"/>
      <rect id="Rectangle_1160" data-name="Rectangle 1160" width="15.37" height="13.745" transform="translate(182.039 238.028)" fill="#915f35"/>
      <path id="Path_3767" data-name="Path 3767" d="M166.862,238.028h-1.17l.2-16.876h.715Z" transform="translate(23.401 0)" fill="#754c24"/>
    </g>
  </g>
</svg>
