<svg xmlns="http://www.w3.org/2000/svg" width="86.897" height="86.452" viewBox="0 0 86.897 86.452">
  <g id="Group_1391" data-name="Group 1391" transform="translate(-1559.996 -1590.019)">
    <g id="Group_1389" data-name="Group 1389" transform="translate(1560.5 1593.872)">
      <path id="Path_3280" data-name="Path 3280" d="M1661.562,1834.761l-17.234-29.851-4.168-7.22-8.057-13.955a9.488,9.488,0,0,0-7.824-4.783q-.241-.012-.482-.012a9.743,9.743,0,0,0-2.332.283,9.458,9.458,0,0,0-5.973,4.513l-13.882,24.045-4.168,7.22-11.409,19.762a9.578,9.578,0,0,0,8.305,14.385h58.92a9.491,9.491,0,0,0,8.11-4.472,9.763,9.763,0,0,0,1-2.121A9.46,9.46,0,0,0,1661.562,1834.761ZM1625,1843.015h-30.667a3.709,3.709,0,0,1-.7-.065,3.26,3.26,0,0,1-1.072-.408,3.573,3.573,0,0,1-1.7-2.943,3.387,3.387,0,0,1,.477-1.772l15.765-27.306,4.169-7.221,9.526-16.5a3.926,3.926,0,0,1,.228-.351,3.356,3.356,0,0,1,.768-.76,3.185,3.185,0,0,1,.3-.188,3.572,3.572,0,0,1,3.4,0,3.387,3.387,0,0,1,1.3,1.3l12.413,21.5,4.168,7.22,12.878,22.306q.07.122.131.246a3.427,3.427,0,0,1,.309.972,3.245,3.245,0,0,1,.038.554,3.572,3.572,0,0,1-1.7,2.943,3.39,3.39,0,0,1-1.773.473Z" transform="translate(-1584.732 -1778.94)" fill="#e65857"/>
      <path id="Path_3281" data-name="Path 3281" d="M3309.843,2788.392a3.988,3.988,0,0,0-5.34,4.146l1.528,15.134.7,6.9a1.694,1.694,0,0,0,3.37.009l.758-7.136.88-8.291.7-6.59A3.989,3.989,0,0,0,3309.843,2788.392Z" transform="translate(-3269.406 -2767.566)" fill="#e65857"/>
      <path id="Path_3282" data-name="Path 3282" d="M3318.341,4283.52a3.657,3.657,0,0,0-4.321,3.6v.03a3.658,3.658,0,0,0,7.316,0v-.03A3.659,3.659,0,0,0,3318.341,4283.52Z" transform="translate(-3278.749 -4232.377)" fill="#e65857"/>
    </g>
    <g id="Group_1390" data-name="Group 1390" transform="translate(1559.996 1590.019)">
      <path id="Path_3283" data-name="Path 3283" d="M4328.22,2735.188a10.416,10.416,0,0,0-.659-2.7,10.758,10.758,0,0,0-1.434-2.554l-23.9-31.682,4.168,7.22,18.914,25.075a9.588,9.588,0,0,1-.871,12.567,9.778,9.778,0,0,1-1,2.122q.385-.25.749-.534a10.724,10.724,0,0,0,4.033-9.512Z" transform="translate(-4246.298 -2675.646)" fill="#acacac"/>
      <path id="Path_3284" data-name="Path 3284" d="M1682.394,1812.66a9.587,9.587,0,0,1-10-13.261l13.331-31.445,9.666-22.8a9.5,9.5,0,0,1,7.656-5.775,19.07,19.07,0,0,0,4.865-.264q.241,0,.482.012l-.182-.076a10.723,10.723,0,0,0-10.255,1.264,10.406,10.406,0,0,0-2.01,1.922,10.761,10.761,0,0,0-1.5,2.519l-12.9,30.419-10.1,23.828a10.772,10.772,0,0,0-.771,2.826,10.379,10.379,0,0,0,.217,3.818,10.731,10.731,0,0,0,6.021,7.211,10.4,10.4,0,0,0,2.669.78,10.766,10.766,0,0,0,2.929.036l35.313-4.352h-8.338Z" transform="translate(-1668.341 -1735.26)" fill="#acacac"/>
      <path id="Path_3285" data-name="Path 3285" d="M2085.941,2137.3l-19.142-25.377-16.339-21.662a3.469,3.469,0,0,0-1.068-.949,3.166,3.166,0,0,0-.377-.181,3.571,3.571,0,0,0-3.373.416,3.39,3.39,0,0,0-1.127,1.448l-9.814,23.149-13.183,31.1a3.492,3.492,0,0,0-.288,1.332,3.72,3.72,0,0,0,.7.065h.318a2.467,2.467,0,0,1,.207-1l16.413-38.717,6.584-15.53a2.384,2.384,0,0,1,.788-1.021,2.553,2.553,0,0,1,2.382-.3l.009,0a2.384,2.384,0,0,1,1.013.8l21.322,28.268,14.159,18.771a2.388,2.388,0,0,1,.49,1.193,2.553,2.553,0,0,1-.94,2.219,2.248,2.248,0,0,1-.7.369,2.693,2.693,0,0,1-.5.109l-39.217,4.833h8.337l31-3.821a3.713,3.713,0,0,0,.683-.149,3.255,3.255,0,0,0,1.019-.537,3.572,3.572,0,0,0,1.327-3.129A3.389,3.389,0,0,0,2085.941,2137.3Z" transform="translate(-2011.823 -2078.708)" fill="#acacac"/>
      <path id="Path_3286" data-name="Path 3286" d="M3167.774,2743.031a4.045,4.045,0,0,1,.495-.031,4,4,0,0,0,1.853-.078,3.983,3.983,0,0,1,1.373.242,5.006,5.006,0,0,0-8.115,4.933l4.9,21.592a2.714,2.714,0,0,0,5.36-.646l-.254-15.122-.88,8.291.115,6.848a1.694,1.694,0,0,1-3.346.4l-1.594-7.019-3.308-14.572A3.988,3.988,0,0,1,3167.774,2743.031Z" transform="translate(-3130.552 -2718.485)" fill="#acacac"/>
      <path id="Path_3287" data-name="Path 3287" d="M3417.255,4235.341a6.011,6.011,0,0,0-2.283.159,3.653,3.653,0,0,1-1.143-.182l.1.081a4.676,4.676,0,0,0,7.521-4.26l0-.029a4.677,4.677,0,0,0-8.107-2.571,3.646,3.646,0,0,1,1.632-.383,2.259,2.259,0,0,0,1.385-.1,3.722,3.722,0,0,1,.452-.028,3.658,3.658,0,0,1,3.626,3.211l0,.029A3.658,3.658,0,0,1,3417.255,4235.341Z" transform="translate(-3375.539 -4173.218)" fill="#acacac"/>
      <path id="Path_3288" data-name="Path 3288" d="M4260.715,2337.686l.529.878a.95.95,0,1,0,1.626-.98l-.529-.878a.961.961,0,0,0-.1-.141.95.95,0,0,0-1.523,1.121Z" transform="translate(-4205.497 -2321.026)" fill="#acacac"/>
      <path id="Path_3289" data-name="Path 3289" d="M4368.354,2516.343l.529.878a.949.949,0,1,0,1.626-.98l-.529-.878a.95.95,0,1,0-1.626.98Z" transform="translate(-4310.94 -2496.039)" fill="#acacac"/>
      <path id="Path_3290" data-name="Path 3290" d="M4475.995,2695l.529.879a.95.95,0,0,0,1.627-.98l-.529-.878a.94.94,0,0,0-.1-.141.95.95,0,0,0-1.523,1.121Z" transform="translate(-4416.385 -2671.053)" fill="#acacac"/>
      <path id="Path_3291" data-name="Path 3291" d="M3946.791,1810.241a.95.95,0,1,0,1.627-.98l-.529-.878a.95.95,0,1,0-1.627.98Z" transform="translate(-3897.457 -1803.479)" fill="#acacac"/>
      <path id="Path_3292" data-name="Path 3292" d="M4053.9,1988.021l.529.878a.95.95,0,0,0,1.627-.98l-.529-.878a.95.95,0,0,0-1.627.98Z" transform="translate(-4002.9 -1978.492)" fill="#acacac"/>
      <path id="Path_3293" data-name="Path 3293" d="M4161.54,2166.678l.529.878a.95.95,0,1,0,1.627-.98l-.529-.878a.95.95,0,0,0-1.627.98Z" transform="translate(-4108.345 -2153.506)" fill="#acacac"/>
      <path id="Path_3294" data-name="Path 3294" d="M2872.113,5407.482l-1.017.131a.9.9,0,0,0-.171.038.95.95,0,0,0,.412,1.846l1.017-.131a.95.95,0,0,0-.241-1.884Z" transform="translate(-2843.542 -5329.612)" fill="#acacac"/>
      <path id="Path_3295" data-name="Path 3295" d="M3079,5380.981l-1.017.131a.934.934,0,0,0-.171.038.95.95,0,0,0,.412,1.846l1.017-.131a.95.95,0,1,0-.241-1.884Z" transform="translate(-3046.209 -5303.652)" fill="#acacac"/>
      <path id="Path_3296" data-name="Path 3296" d="M3285.887,5354.479l-1.017.13a.936.936,0,0,0-.171.038.95.95,0,0,0,.412,1.846l1.017-.13a.95.95,0,0,0-.241-1.884Z" transform="translate(-3248.877 -5277.69)" fill="#acacac"/>
      <path id="Path_3297" data-name="Path 3297" d="M2261.863,5482.326l-1.017.13a.94.94,0,0,0-.171.038.95.95,0,0,0,.412,1.846l1.017-.13a.95.95,0,0,0-.241-1.884Z" transform="translate(-2245.739 -5402.93)" fill="#acacac"/>
      <path id="Path_3298" data-name="Path 3298" d="M2468.75,5455.825l-1.017.13a.984.984,0,0,0-.171.038.95.95,0,0,0,.412,1.846l1.017-.13a.95.95,0,1,0-.241-1.884Z" transform="translate(-2448.406 -5376.969)" fill="#acacac"/>
      <path id="Path_3299" data-name="Path 3299" d="M2675.638,5429.323l-1.017.13a.984.984,0,0,0-.171.038.95.95,0,0,0,.413,1.846l1.017-.13a.95.95,0,1,0-.241-1.884Z" transform="translate(-2651.074 -5351.008)" fill="#acacac"/>
      <path id="Path_3300" data-name="Path 3300" d="M4810.114,3126.65l1.355-1.355a.731.731,0,1,0-1.034-1.033l-1.355,1.355a.731.731,0,0,0,1.034,1.033Z" transform="translate(-4742.602 -3092.759)" fill="#acacac"/>
      <path id="Path_3301" data-name="Path 3301" d="M5091.819,2844.944l1.355-1.355a.731.731,0,0,0-1.033-1.033l-1.355,1.355a.731.731,0,0,0,1.033,1.033Z" transform="translate(-5018.561 -2816.799)" fill="#acacac"/>
      <path id="Path_3302" data-name="Path 3302" d="M5092.142,3126.65a.731.731,0,1,0,1.033-1.034l-1.355-1.355a.731.731,0,0,0-1.033,1.033Z" transform="translate(-5018.561 -3092.759)" fill="#acacac"/>
      <path id="Path_3303" data-name="Path 3303" d="M4810.436,2844.944a.731.731,0,0,0,1.034-1.033l-1.355-1.355a.731.731,0,0,0-1.034,1.033Z" transform="translate(-4742.602 -2816.799)" fill="#acacac"/>
      <path id="Path_3304" data-name="Path 3304" d="M5524.99,5088.749l-.958.958a.516.516,0,0,0,.73.73l.957-.958a.516.516,0,0,0-.729-.73Z" transform="translate(-5443.032 -5017.239)" fill="#acacac"/>
      <path id="Path_3305" data-name="Path 3305" d="M5723.749,4891.448l.958-.957a.516.516,0,0,0-.73-.73l-.957.957a.516.516,0,0,0,.729.73Z" transform="translate(-5637.96 -4822.31)" fill="#acacac"/>
      <path id="Path_3306" data-name="Path 3306" d="M5723.749,5088.749a.516.516,0,0,0-.729.73l.957.958a.516.516,0,0,0,.73-.73Z" transform="translate(-5637.96 -5017.239)" fill="#acacac"/>
      <path id="Path_3307" data-name="Path 3307" d="M5524.763,4889.762a.516.516,0,0,0-.73.729l.958.958a.516.516,0,1,0,.729-.73Z" transform="translate(-5443.032 -4822.311)" fill="#acacac"/>
      <path id="Path_3308" data-name="Path 3308" d="M1561.1,3933.009l-.957.957a.516.516,0,0,0,.73.73l.957-.957a.516.516,0,0,0-.73-.73Z" transform="translate(-1559.996 -3885.072)" fill="#acacac"/>
      <path id="Path_3309" data-name="Path 3309" d="M1759.864,3735.709l.957-.957a.516.516,0,0,0-.73-.73l-.957.957a.516.516,0,0,0,.73.73Z" transform="translate(-1754.924 -3690.144)" fill="#acacac"/>
      <path id="Path_3310" data-name="Path 3310" d="M1760.091,3934.7a.516.516,0,0,0,.73-.73l-.957-.957a.516.516,0,0,0-.73.73Z" transform="translate(-1754.924 -3885.073)" fill="#acacac"/>
      <path id="Path_3311" data-name="Path 3311" d="M1560.877,3734.022a.516.516,0,0,0-.73.73l.957.957a.516.516,0,0,0,.73-.73Z" transform="translate(-1559.996 -3690.144)" fill="#acacac"/>
      <path id="Path_3312" data-name="Path 3312" d="M2526.407,1790.845l.957-.957a.516.516,0,0,0-.73-.73l-.957.957a.516.516,0,1,0,.73.73Z" transform="translate(-2505.832 -1784.948)" fill="#acacac"/>
      <path id="Path_3313" data-name="Path 3313" d="M2725.395,1591.857l.957-.957a.516.516,0,0,0-.73-.73l-.957.957a.516.516,0,0,0,.73.73Z" transform="translate(-2700.762 -1590.019)" fill="#acacac"/>
      <path id="Path_3314" data-name="Path 3314" d="M2725.622,1790.845a.516.516,0,0,0,.73-.73l-.957-.957a.516.516,0,0,0-.73.73Z" transform="translate(-2700.762 -1784.948)" fill="#acacac"/>
      <path id="Path_3315" data-name="Path 3315" d="M2526.634,1591.858a.516.516,0,1,0,.73-.73l-.957-.957a.516.516,0,0,0-.73.73Z" transform="translate(-2505.832 -1590.02)" fill="#acacac"/>
      <path id="Path_3316" data-name="Path 3316" d="M1784.4,5731.214l-.957.958a.516.516,0,0,0,.73.73l.957-.957a.516.516,0,0,0-.73-.73Z" transform="translate(-1778.739 -5646.601)" fill="#acacac"/>
      <path id="Path_3317" data-name="Path 3317" d="M1983.389,5532.227l-.957.958a.516.516,0,0,0,.73.729l.957-.957a.516.516,0,0,0-.73-.73Z" transform="translate(-1973.668 -5451.672)" fill="#acacac"/>
      <path id="Path_3318" data-name="Path 3318" d="M1983.162,5731.214a.516.516,0,1,0-.73.73l.957.957a.516.516,0,0,0,.73-.73Z" transform="translate(-1973.668 -5646.601)" fill="#acacac"/>
      <path id="Path_3319" data-name="Path 3319" d="M1784.175,5532.228a.516.516,0,0,0-.73.73l.957.958a.516.516,0,0,0,.73-.73Z" transform="translate(-1778.739 -5451.673)" fill="#acacac"/>
    </g>
  </g>
</svg>
