<svg xmlns="http://www.w3.org/2000/svg" width="22.899" height="22.899" viewBox="0 0 22.899 22.899">
  <g id="mission" transform="translate(0)">
    <path id="Path_3205" data-name="Path 3205" d="M4.864,322.8a1.782,1.782,0,0,1,.267-1.475l3.26-4.646L6.552,314.13a.447.447,0,0,0-.726,0L.085,322.093a.447.447,0,0,0,.363.709Z" transform="translate(0 -299.903)" fill="#747474"/>
    <path id="Path_3206" data-name="Path 3206" d="M311.071,9.5V7.156h5.59a.671.671,0,0,0,.57-1.025L316.06,4.249l1.171-1.882a.671.671,0,0,0-.57-1.025h-5.59V.671a.671.671,0,1,0-1.342,0V9.5A.865.865,0,0,1,311.071,9.5Z" transform="translate(-295.877)" fill="#747474"/>
    <path id="Path_3207" data-name="Path 3207" d="M149.512,349.174l-1.6,1.492a.671.671,0,0,1-.915,0l-1.162-1.082-1.161,1.082a.671.671,0,0,1-.915,0l-1.6-1.492-4.616,6.578a.447.447,0,0,0,.366.7h15.855a.447.447,0,0,0,.366-.7Z" transform="translate(-131.312 -333.558)" fill="#747474"/>
    <path id="Path_3208" data-name="Path 3208" d="M260.934,244.4l1.161-1.082a.671.671,0,0,1,.915,0l1.162,1.082,1.292-1.177-2.545-3.626a.447.447,0,0,0-.732,0l-2.545,3.626Z" transform="translate(-248.03 -228.703)" fill="#747474"/>
  </g>
</svg>
