<svg id="Group_142" data-name="Group 142" xmlns="http://www.w3.org/2000/svg" width="67.553" height="33.8" viewBox="0 0 67.553 33.8">
  <circle id="Ellipse_89" data-name="Ellipse 89" cx="3.753" cy="3.753" r="3.753" transform="translate(60.047 11.275)" fill="#FD545A"/>
  <circle id="Ellipse_90" data-name="Ellipse 90" cx="3.753" cy="3.753" r="3.753" transform="translate(0 11.275)" fill="#FD545A"/>
  <circle id="Ellipse_91" data-name="Ellipse 91" cx="3.753" cy="3.753" r="3.753" transform="translate(30.024)" fill="#FD545A"/>
  <path id="Path_201" data-name="Path 201" d="M187.761,979.776c-.008-13.128-15.127-23.769-33.776-23.769s-33.769,10.64-33.777,23.769h3.35a3.752,3.752,0,0,1,7.5,0h6.659V968.053a6.255,6.255,0,0,1,12.509,0v11.723h7.5V968.053a6.255,6.255,0,0,1,12.51,0v11.723h6.607v-.007a3.753,3.753,0,1,1,7.506,0v.007Z" transform="translate(-120.208 -945.977)" fill="#FD545A"/>
</svg>
