<svg xmlns="http://www.w3.org/2000/svg" width="12.887" height="12.982" viewBox="0 0 12.887 12.982">
  <g id="Group_2429" data-name="Group 2429" transform="translate(-574.479 -149.91)">
    <path id="Path_3479" data-name="Path 3479" d="M579.4,160.11H578v-9.967a.225.225,0,0,0-.066-.167.23.23,0,0,0-.169-.065h-1.4a.23.23,0,0,0-.169.065.225.225,0,0,0-.066.167v9.967h-1.4a.217.217,0,0,0-.22.145.221.221,0,0,0,.051.254l2.342,2.318a.268.268,0,0,0,.169.065.25.25,0,0,0,.169-.065l2.334-2.311a.267.267,0,0,0,.074-.173.226.226,0,0,0-.066-.167.229.229,0,0,0-.168-.065Z" fill="#474747" fill-rule="evenodd"/>
    <path id="Path_3480" data-name="Path 3480" d="M609.226,186.519h-3.279a.229.229,0,0,0-.168.064.225.225,0,0,0-.066.167v1.391a.221.221,0,0,0,.066.166.23.23,0,0,0,.168.065h3.279a.229.229,0,0,0,.168-.065.221.221,0,0,0,.066-.166V186.75a.225.225,0,0,0-.066-.167.228.228,0,0,0-.168-.064Z" transform="translate(-24.905 -29.19)" fill="#474747" fill-rule="evenodd"/>
    <path id="Path_3481" data-name="Path 3481" d="M612.2,149.976a.229.229,0,0,0-.168-.065h-6.088a.23.23,0,0,0-.169.065.225.225,0,0,0-.066.167v1.391a.222.222,0,0,0,.066.167.23.23,0,0,0,.169.065h6.088a.23.23,0,0,0,.168-.065.225.225,0,0,0,.066-.167v-1.391a.224.224,0,0,0-.066-.167Z" transform="translate(-24.905)" fill="#474747" fill-rule="evenodd"/>
    <path id="Path_3482" data-name="Path 3482" d="M610.631,168.215h-4.684a.226.226,0,0,0-.168.065.222.222,0,0,0-.066.167v1.39a.225.225,0,0,0,.066.167.23.23,0,0,0,.168.065h4.684A.234.234,0,0,0,610.8,170a.228.228,0,0,0,.066-.167v-1.39a.225.225,0,0,0-.066-.167.233.233,0,0,0-.169-.065Z" transform="translate(-24.905 -14.595)" fill="#474747" fill-rule="evenodd"/>
  </g>
</svg>
