<svg id="filter" xmlns="http://www.w3.org/2000/svg" width="20.091" height="20.091" viewBox="0 0 20.091 20.091">
  <path id="filter-2" data-name="filter" d="M20.091,1.256V3.767H7.157a2.442,2.442,0,0,1-4.269,0H0V1.256H2.888a2.442,2.442,0,0,1,4.269,0ZM15.068,7.534A2.431,2.431,0,0,0,12.933,8.79H0V11.3H12.933a2.442,2.442,0,0,0,4.269,0h2.888V8.79H17.2A2.431,2.431,0,0,0,15.068,7.534Zm-5.023,7.534a2.431,2.431,0,0,0-2.135,1.256H0v2.511H7.911a2.442,2.442,0,0,0,4.269,0h7.911V16.324H12.18A2.431,2.431,0,0,0,10.045,15.068Z"/>
</svg>
