<svg id="folder_4_" data-name="folder (4)" xmlns="http://www.w3.org/2000/svg" width="107.202" height="90.722" viewBox="0 0 107.202 90.722">
  <g id="Group_1400" data-name="Group 1400" transform="translate(0 0)">
    <path id="Path_3457" data-name="Path 3457" d="M93.994,55.877H60.064a5.126,5.126,0,0,1-3.652-1.527L45.825,43.2a13.417,13.417,0,0,0-9.553-3.841H13.208A13.223,13.223,0,0,0,0,52.564v64.305a13.224,13.224,0,0,0,13.208,13.208H94.054A13.222,13.222,0,0,0,107.2,116.829V69.085A13.224,13.224,0,0,0,93.994,55.877Zm5.13,60.969A5.134,5.134,0,0,1,94.034,122H13.208a5.137,5.137,0,0,1-5.13-5.13V52.564a5.143,5.143,0,0,1,5.13-5.134h23.3a5.1,5.1,0,0,1,3.538,1.41l10.53,11.1a13.271,13.271,0,0,0,9.484,4.015h33.93a5.137,5.137,0,0,1,5.13,5.13v47.761Z" transform="translate(0 -39.356)"/>
  </g>
</svg>
