<svg xmlns="http://www.w3.org/2000/svg" width="17.305" height="14.033" viewBox="0 0 17.305 14.033">
  <g id="folder" transform="translate(0 -48.403)">
    <g id="Group_1348" data-name="Group 1348" transform="translate(0 48.403)">
      <g id="Group_1347" data-name="Group 1347" transform="translate(0 0)">
        <path id="Path_3227" data-name="Path 3227" d="M13.642,49.665H4.716a.5.5,0,0,1-.5-.5v-.251a.51.51,0,0,0-.51-.51H1.021A1.021,1.021,0,0,0,0,49.424v8.59l1.31-6.373a.5.5,0,0,1,.49-.4H14.663v-.556A1.021,1.021,0,0,0,13.642,49.665Z" transform="translate(0 -48.403)" fill="#e65857"/>
      </g>
    </g>
    <g id="Group_1350" data-name="Group 1350" transform="translate(0.228 52.243)">
      <g id="Group_1349" data-name="Group 1349" transform="translate(0 0)">
        <path id="Path_3228" data-name="Path 3228" d="M22.8,162.01H8.726l-1.97,9.584a.507.507,0,0,0,.5.609H21.9a1.021,1.021,0,0,0,1.015-.909l.9-8.151A1.021,1.021,0,0,0,22.8,162.01Z" transform="translate(-6.746 -162.01)" fill="#e65857"/>
      </g>
    </g>
  </g>
</svg>
