<svg width="10px" height="10px" viewBox="0 0 80.662 70.194"
                    xmlns="http://www.w3.org/2000/svg">
                    <g data-name="Group 2388" id="Group_2388" transform="translate(1705.345 -3207.5)">
                        <path
                            d="M266.951,37.465a13.432,13.432,0,0,1,13.366,13.366c0,13.5-24.57,26.863-24.57,26.863s-24.57-13.562-24.57-26.863a13.387,13.387,0,0,1,24.57-7.338,13.365,13.365,0,0,1,11.2-6.028"
                            data-name="Path 3531" fill="white" id="Path_3531" transform="translate(-1905 3200)">
                        </path>
                        <path
                            d="M230.789,62.659H211.01a4.582,4.582,0,0,1-4.577-4.577V18.855a4.582,4.582,0,0,1,4.577-4.577h39.226a4.581,4.581,0,0,1,4.577,4.577V36.693c.1.142.2.279.295.424a17.371,17.371,0,0,1,6.484-5.858v-12.4A11.369,11.369,0,0,0,250.236,7.5H211.01a11.368,11.368,0,0,0-11.355,11.355V58.082A11.368,11.368,0,0,0,211.01,69.437h26.736a70.126,70.126,0,0,1-6.957-6.778"
                            data-name="Path 3532" fill="white" id="Path_3532" transform="translate(-1905 3200)">
                        </path>
                        <path
                            d="M213.178,27.585H212.9a1.537,1.537,0,0,1-1.537-1.537V23.163a1.537,1.537,0,0,1,1.537-1.537h.283a1.536,1.536,0,0,1,1.537,1.537v2.885a1.536,1.536,0,0,1-1.537,1.537"
                            data-name="Path 3533" fill="white" id="Path_3533" transform="translate(-1905 3200)">
                        </path>
                        <path
                            d="M218.861,27.585h-.283a1.537,1.537,0,0,1-1.537-1.537V21.089a1.537,1.537,0,0,1,1.537-1.537h.283a1.536,1.536,0,0,1,1.537,1.537v4.959a1.536,1.536,0,0,1-1.537,1.537"
                            data-name="Path 3534" fill="white" id="Path_3534" transform="translate(-1905 3200)">
                        </path>
                        <path
                            d="M224.574,27.585h-.284a1.537,1.537,0,0,1-1.537-1.537V23.163a1.537,1.537,0,0,1,1.537-1.537h.284a1.536,1.536,0,0,1,1.536,1.537v2.885a1.536,1.536,0,0,1-1.536,1.537"
                            data-name="Path 3535" fill="white" id="Path_3535" transform="translate(-1905 3200)">
                        </path>
                    </g>
                </svg>