<?xml version="1.0" encoding="utf-8"?>
<!-- Generator: Adobe Illustrator 24.1.2, SVG Export Plug-In . SVG Version: 6.00 Build 0)  -->
<svg version="1.1" id="Layer_1" xmlns="http://www.w3.org/2000/svg" xmlns:xlink="http://www.w3.org/1999/xlink" x="0px" y="0px"
	 viewBox="0 0 24 24" style="enable-background:new 0 0 24 24;" xml:space="preserve">
<style type="text/css">
	.st0{fill:#A1A1A1;}
	.st1{fill:#EF565C;}
	.st2{fill:#F8F7F2;}
</style>
<path class="st2" d="M15.35,13.77c-0.65,0-1.24,0.28-1.65,0.72l-2.97-1.55c0.09-0.25,0.15-0.52,0.15-0.8c0-0.21-0.04-0.41-0.09-0.6
	l2.94-1.75c0.41,0.41,0.98,0.67,1.61,0.67c1.26,0,2.29-1.03,2.29-2.29c0-1.26-1.03-2.29-2.29-2.29c-1.26,0-2.29,1.03-2.29,2.29
	c0,0.28,0.06,0.55,0.15,0.81l-2.87,1.71C9.93,10.18,9.3,9.85,8.6,9.85c-1.26,0-2.29,1.03-2.29,2.29c0,1.26,1.03,2.29,2.29,2.29
	c0.63,0,1.2-0.26,1.61-0.67l2.99,1.56c-0.08,0.23-0.13,0.48-0.13,0.74c0,1.26,1.03,2.29,2.29,2.29c1.26,0,2.29-1.03,2.29-2.29
	C17.63,14.8,16.61,13.77,15.35,13.77z M15.35,6.85c0.73,0,1.32,0.59,1.32,1.32c0,0.73-0.59,1.32-1.32,1.32
	c-0.73,0-1.32-0.59-1.32-1.32C14.03,7.44,14.62,6.85,15.35,6.85z M8.6,13.46c-0.73,0-1.32-0.59-1.32-1.32
	c0-0.73,0.59-1.32,1.32-1.32c0.73,0,1.32,0.59,1.32,1.32C9.92,12.87,9.32,13.46,8.6,13.46z M15.35,17.38
	c-0.73,0-1.32-0.59-1.32-1.32c0-0.73,0.59-1.32,1.32-1.32c0.73,0,1.32,0.59,1.32,1.32C16.67,16.79,16.08,17.38,15.35,17.38z"/>
</svg>
