<?xml version="1.0" encoding="utf-8"?>
<!-- Generator: Adobe Illustrator 24.1.2, SVG Export Plug-In . SVG Version: 6.00 Build 0)  -->
<svg version="1.1" id="Layer_1" xmlns="http://www.w3.org/2000/svg" xmlns:xlink="http://www.w3.org/1999/xlink" x="0px" y="0px"
	 viewBox="0 0 24 24" style="enable-background:new 0 0 24 24;" xml:space="preserve">
<style type="text/css">
	.st0{fill:#A1A1A1;}
	.st1{fill:#EF565C;}
	.st2{fill:#F8F7F2;}
</style>
<g>
	<path class="st1" d="M8.12,5.33c-0.7,0-1.39,0.17-2.01,0.52C5.55,6.16,5.08,6.6,4.71,7.15C4.37,7.68,4.13,8.29,4.01,8.96
		c-0.24,1.36,0.03,2.84,0.77,4.15c0.05,0.11,0.45,0.91,1.47,2.01c0.62,0.67,1.35,1.33,2.16,1.94c1.01,0.76,2.16,1.47,3.42,2.09
		c0.04,0.02,0.09,0.03,0.13,0.03c0.05,0,0.09-0.01,0.13-0.03c1.25-0.63,2.4-1.33,3.42-2.09c0.81-0.61,1.54-1.27,2.16-1.94
		c1.01-1.1,1.41-1.89,1.47-2.01c0.74-1.31,1.01-2.79,0.77-4.15c-0.12-0.67-0.36-1.28-0.71-1.81c-0.36-0.55-0.84-0.99-1.4-1.31
		c-0.62-0.35-1.3-0.52-2.01-0.52c-1.33,0-2.73,0.6-3.83,1.73C10.85,5.93,9.45,5.33,8.12,5.33L8.12,5.33z"/>
</g>
</svg>
