<?xml version="1.0" encoding="utf-8"?>
<!-- Generator: Adobe Illustrator 24.1.2, SVG Export Plug-In . SVG Version: 6.00 Build 0)  -->
<svg version="1.1" id="Layer_1" xmlns="http://www.w3.org/2000/svg" xmlns:xlink="http://www.w3.org/1999/xlink" x="0px" y="0px"
	 viewBox="0 0 24 24" style="enable-background:new 0 0 24 24;" xml:space="preserve">
<style type="text/css">
	.st0{fill:#A1A1A1;}
	.st1{fill:#EF565C;}
	.st2{fill:#F8F7F2;}
</style>
<g>
	<path class="st1" d="M18.43,6.58c-0.74-0.73-1.71-1.13-2.75-1.12s-2.01,0.41-2.74,1.15l-0.89,0.9l-0.9-0.89
		c-1.52-1.5-3.98-1.49-5.48,0.03s-1.49,3.98,0.03,5.48l5.91,5.85c0.28,0.27,0.72,0.27,1,0l0.48-0.48l-3.7-3.7l0,0L6.7,11.13
		c-0.97-0.96-0.97-2.52-0.02-3.49c0.46-0.47,1.08-0.73,1.74-0.73c0.66,0,1.28,0.25,1.75,0.71l1.9,1.88l1.88-1.9
		c0.46-0.47,1.08-0.73,1.74-0.73c0.66,0,1.28,0.25,1.75,0.71c0.47,0.46,0.73,1.08,0.73,1.74c0,0.66-0.25,1.28-0.71,1.75L14.56,14
		l1,1l2.9-2.93c0.73-0.74,1.13-1.71,1.12-2.75C19.58,8.28,19.17,7.31,18.43,6.58z"/>
	<path class="st1" d="M15.33,13.23l0-1.38c0-0.41-0.33-0.74-0.74-0.74c-0.41,0-0.74,0.33-0.74,0.74v3.16c0,0.14,0.04,0.27,0.11,0.38
		c0,0,0,0,0,0c0.02,0.02,0.03,0.05,0.05,0.07c0.01,0.01,0.01,0.02,0.02,0.02c0.01,0.01,0.03,0.03,0.04,0.04
		c0.01,0.01,0.03,0.03,0.04,0.04c0.01,0.01,0.02,0.01,0.02,0.02c0.02,0.02,0.05,0.04,0.07,0.05c0,0,0,0,0,0
		c0.11,0.07,0.24,0.11,0.38,0.11h3.16c0.41,0,0.74-0.33,0.74-0.74c0-0.41-0.33-0.74-0.74-0.74l-2.44,0L15.33,13.23L15.33,13.23z"/>
</g>
</svg>
