<?xml version="1.0" encoding="utf-8"?>
<!-- Generator: Adobe Illustrator 24.1.2, SVG Export Plug-In . SVG Version: 6.00 Build 0)  -->
<svg version="1.1" id="Layer_1" xmlns="http://www.w3.org/2000/svg" xmlns:xlink="http://www.w3.org/1999/xlink" x="0px" y="0px"
	 viewBox="0 0 24 24" style="enable-background:new 0 0 24 24;" xml:space="preserve">
<style type="text/css">
	.st0{fill:#A1A1A1;}
	.st1{fill:#EF565C;}
	.st2{fill:#F8F7F2;}
</style>
<g>
	<g>
		<path class="st2" d="M7.7,11.25h8.94c0.25,0,0.45-0.2,0.45-0.45c0-0.25-0.2-0.45-0.45-0.45H7.7c-0.25,0-0.45,0.2-0.45,0.45
			C7.26,11.05,7.46,11.25,7.7,11.25z"/>
		<path class="st2" d="M17.09,12.59c0-0.25-0.2-0.45-0.45-0.45h-1.79c-0.25,0-0.45,0.2-0.45,0.45c0,0.25,0.2,0.45,0.45,0.45h1.79
			C16.89,13.04,17.09,12.84,17.09,12.59z"/>
		<path class="st2" d="M7.7,13.04h5.36c0.25,0,0.45-0.2,0.45-0.45c0-0.25-0.2-0.45-0.45-0.45H7.7c0,0,0,0,0,0
			c-0.25,0-0.45,0.2-0.45,0.45C7.26,12.84,7.46,13.04,7.7,13.04z"/>
	</g>
	<path class="st2" d="M17.65,7.81c0.56,0,1.02,0.46,1.02,1.02v5.81c0,0.56-0.46,1.02-1.02,1.02H11.1h-0.28l-0.23,0.15l-2.94,1.89
		v-1.09v-0.95H6.7H6.39c-0.56,0-1.02-0.46-1.02-1.02V8.84c0-0.56,0.46-1.02,1.02-1.02H17.65 M17.65,6.86H6.39
		c-1.09,0-1.97,0.88-1.97,1.97v5.81c0,1.09,0.88,1.97,1.97,1.97H6.7v1.74c0,0.35,0.29,0.59,0.6,0.59c0.11,0,0.22-0.03,0.32-0.1
		l3.48-2.24h6.54c1.09,0,1.97-0.88,1.97-1.97V8.84C19.62,7.75,18.73,6.86,17.65,6.86L17.65,6.86z"/>
</g>
</svg>
