<?xml version="1.0" encoding="utf-8"?>
<!-- Generator: Adobe Illustrator 24.1.2, SVG Export Plug-In . SVG Version: 6.00 Build 0)  -->
<svg version="1.1" id="Layer_1" xmlns="http://www.w3.org/2000/svg" xmlns:xlink="http://www.w3.org/1999/xlink" x="0px" y="0px"
	 viewBox="0 0 24 24" style="enable-background:new 0 0 24 24;" xml:space="preserve">
<style type="text/css">
	.st0{fill:#A1A1A1;}
	.st1{fill:#EF565C;}
	.st2{fill:#F8F7F2;}
</style>
<g>
	<path class="st1" d="M17.65,5.74H6.39c-1.09,0-1.97,0.88-1.97,1.97v5.81c0,1.09,0.88,1.97,1.97,1.97h0.31v1.74
		c0,0.47,0.52,0.75,0.92,0.5l3.48-2.24h6.54c1.09,0,1.97-0.88,1.97-1.97V7.71C19.62,6.63,18.74,5.74,17.65,5.74z"/>
	<g>
		<path class="st2" d="M7.71,10.13h8.94c0.25,0,0.45-0.2,0.45-0.45c0-0.25-0.2-0.45-0.45-0.45H7.71c-0.25,0-0.45,0.2-0.45,0.45
			C7.26,9.93,7.46,10.13,7.71,10.13z"/>
		<path class="st2" d="M17.09,11.47c0-0.25-0.2-0.45-0.45-0.45h-1.79c-0.25,0-0.45,0.2-0.45,0.45c0,0.25,0.2,0.45,0.45,0.45h1.79
			C16.89,11.92,17.09,11.72,17.09,11.47z"/>
		<path class="st2" d="M7.71,11.92h5.36c0.25,0,0.45-0.2,0.45-0.45c0-0.25-0.2-0.45-0.45-0.45H7.71c0,0,0,0,0,0
			c-0.25,0-0.45,0.2-0.45,0.45C7.26,11.72,7.46,11.92,7.71,11.92z"/>
	</g>
</g>
</svg>
