<svg xmlns="http://www.w3.org/2000/svg" width="130" height="130" viewBox="0 0 130 130">
  <g id="Group_1309" data-name="Group 1309" transform="translate(-4211 123)">
    <g id="Group_1208" data-name="Group 1208" transform="translate(4042 -333)">
      <circle id="Ellipse_302" data-name="Ellipse 302" cx="65" cy="65" r="65" transform="translate(169 210)" fill="#3b5998"/>
    </g>
    <g id="photo" transform="translate(4248.268 -81.002)">
      <path id="Path_143" data-name="Path 143" d="M13.255,170.79a7.942,7.942,0,0,1-7.513-5.411l-.074-.244a7.742,7.742,0,0,1-.367-2.3V148.375L.156,165.551a4.817,4.817,0,0,0,3.377,5.844l32.8,8.783a4.866,4.866,0,0,0,1.222.157,4.729,4.729,0,0,0,4.584-3.468l1.911-6.076Zm0,0" transform="translate(0 -133.672)" fill="#fff"/>
      <path id="Path_144" data-name="Path 144" d="M153.562,72.976a4.242,4.242,0,1,0-4.242-4.242A4.246,4.246,0,0,0,153.562,72.976Zm0,0" transform="translate(-134.474 -58.129)" fill="#fff"/>
      <path id="Path_145" data-name="Path 145" d="M122.438.492H90.622a5.31,5.31,0,0,0-5.3,5.3V29.126a5.31,5.31,0,0,0,5.3,5.3h31.816a5.31,5.31,0,0,0,5.3-5.3V5.8a5.31,5.31,0,0,0-5.3-5.3ZM90.622,4.734h31.816A1.061,1.061,0,0,1,123.5,5.8V20.852l-6.7-7.818a3.8,3.8,0,0,0-2.844-1.3,3.707,3.707,0,0,0-2.834,1.338l-7.878,9.455-2.566-2.56a3.723,3.723,0,0,0-5.26,0l-5.854,5.852V5.8A1.061,1.061,0,0,1,90.622,4.734Zm0,0" transform="translate(-76.837 -0.492)" fill="#fff"/>
    </g>
  </g>
</svg>
