<svg width="33" height="33" viewBox="0 0 33 33" fill="none" xmlns="http://www.w3.org/2000/svg">
<g filter="url(#filter0_d_51_130)">
<circle cx="16.2935" cy="16.7551" r="12" fill="#EE7623"/>
<circle cx="16.2935" cy="16.7551" r="11.5" stroke="white"/>
</g>
<path d="M16.1322 21.7551H19.0354C19.6343 21.7551 20.2086 21.5172 20.6321 21.0937C21.0556 20.6702 21.2935 20.0959 21.2935 19.497V14.0131C21.2935 13.4143 21.0556 12.8399 20.6321 12.4164C20.2086 11.993 19.6343 11.7551 19.0354 11.7551H13.5515C12.9526 11.7551 12.3783 11.993 11.9548 12.4164C11.5314 12.8399 11.2935 13.4143 11.2935 14.0131V16.9164C11.2935 17.0875 11.3614 17.2516 11.4824 17.3726C11.6034 17.4935 11.7675 17.5615 11.9386 17.5615C12.1097 17.5615 12.2738 17.4935 12.3948 17.3726C12.5158 17.2516 12.5838 17.0875 12.5838 16.9164V14.0131C12.5838 13.7565 12.6857 13.5103 12.8672 13.3288C13.0487 13.1473 13.2949 13.0454 13.5515 13.0454H19.0354C19.2921 13.0454 19.5382 13.1473 19.7197 13.3288C19.9012 13.5103 20.0031 13.7565 20.0031 14.0131V19.497C20.0031 19.7537 19.9012 19.9998 19.7197 20.1813C19.5382 20.3628 19.2921 20.4647 19.0354 20.4647H16.1322C15.9611 20.4647 15.797 20.5327 15.676 20.6537C15.555 20.7747 15.487 20.9388 15.487 21.1099C15.487 21.281 15.555 21.4451 15.676 21.5661C15.797 21.6871 15.9611 21.7551 16.1322 21.7551Z" fill="white"/>
<path d="M12.7725 20.276C12.8324 20.336 12.9035 20.3836 12.9819 20.4161C13.0602 20.4485 13.1441 20.4653 13.2289 20.4653C13.3137 20.4653 13.3977 20.4485 13.476 20.4161C13.5543 20.3836 13.6255 20.336 13.6854 20.276L17.2612 16.7002V18.5293C17.2612 18.7004 17.3292 18.8645 17.4501 18.9855C17.5711 19.1065 17.7352 19.1744 17.9063 19.1744C18.0774 19.1744 18.2415 19.1065 18.3625 18.9855C18.4835 18.8645 18.5515 18.7004 18.5515 18.5293V16.1099C18.5515 15.6821 18.3816 15.2719 18.0791 14.9694C17.7766 14.6669 17.3664 14.497 16.9386 14.497H14.5192C14.3481 14.497 14.184 14.565 14.063 14.686C13.9421 14.807 13.8741 14.9711 13.8741 15.1422C13.8741 15.3133 13.9421 15.4774 14.063 15.5984C14.184 15.7194 14.3481 15.7873 14.5192 15.7873H16.3483L12.7725 19.3631C12.7125 19.4231 12.6649 19.4942 12.6324 19.5725C12.6 19.6509 12.5833 19.7348 12.5833 19.8196C12.5833 19.9044 12.6 19.9883 12.6324 20.0666C12.6649 20.145 12.7125 20.2161 12.7725 20.276Z" fill="white"/>
<g clip-path="url(#clip0_51_130)">
<path d="M13.5784 14.4638C13.1137 14.8616 13.3387 15.9895 14.4219 15.3097C14.4219 15.3097 15.7458 14.6206 16.5186 14.1651C16.6871 14.066 16.8 14.0985 16.9406 14.2647C17.0953 14.3805 20.5985 18.4439 20.5985 18.4439C20.5985 18.4439 21.6784 17.5921 22.1004 16.6964C22.1004 16.6964 21.1296 14.8015 20.205 12.9209C19.9368 13.0791 19.708 13.2285 19.3999 13.1373C19.0814 13.0431 18.8175 12.7843 18.5298 12.6108C18.2018 12.4126 17.9241 12.2337 17.5581 12.1795C17.017 12.0991 16.5907 12.351 16.1241 12.629C15.5934 12.945 15.0788 13.3 14.5747 13.6711C14.2349 13.9216 13.9021 14.1853 13.5784 14.4633V14.4638Z" fill="white"/>
<path d="M14.258 20.7918C14.0766 20.5315 14.1108 20.1436 14.3353 19.9252L15.4471 18.8742C15.6716 18.6544 16.0015 18.6879 16.1838 18.9472C16.3656 19.207 16.3309 19.5949 16.1064 19.8143L14.9956 20.8653C14.7711 21.0841 14.4407 21.0521 14.258 20.7918Z" fill="white"/>
<path d="M13.2323 19.8242C13.05 19.5639 13.0851 19.176 13.3096 18.9571L14.1864 18.1284C14.4114 17.9091 14.7408 17.9426 14.9231 18.2014C15.1049 18.4622 15.0702 18.8496 14.8457 19.0685L13.9694 19.8976C13.7449 20.1165 13.4145 20.084 13.2318 19.8242H13.2323Z" fill="white"/>
<path d="M11.9914 19.033C11.8224 18.7609 11.8746 18.3764 12.1096 18.1723L12.3061 18.0136C12.5411 17.809 12.8686 17.8642 13.0386 18.1348L13.0504 18.1501C13.2204 18.4217 13.1553 18.7914 12.9208 18.996L12.7243 19.1548C12.4898 19.3588 12.1614 19.3051 11.9914 19.0335V19.033Z" fill="white"/>
<path d="M16.9031 20.2023C16.7099 19.9543 16.3795 19.94 16.1635 20.1717L15.6841 20.6888C15.4686 20.9205 15.4501 21.3099 15.6428 21.5593C15.836 21.8083 16.1673 21.8216 16.3823 21.5899L16.8613 21.0728C17.0773 20.8411 17.0953 20.4517 16.9031 20.2023Z" fill="white"/>
<path d="M23.7541 15.8436C23.8334 16.0013 23.7897 16.1867 23.6583 16.2577L22.8522 16.6989C22.7203 16.7694 22.5494 16.6989 22.4711 16.5416L20.5557 12.6991C20.4769 12.5413 20.5201 12.356 20.6521 12.285L21.4581 11.8443C21.5901 11.7733 21.7605 11.8438 21.8393 12.0015L23.7541 15.8436Z" fill="white"/>
<path d="M10.1003 16.5046C10.0404 16.6713 9.88617 16.7649 9.75658 16.7137L8.94297 16.4204C8.81339 16.3696 8.7569 16.1931 8.81766 16.027L10.2854 11.9784C10.3457 11.8118 10.4995 11.7181 10.6295 11.7689L11.4427 12.0627C11.5722 12.1134 11.6287 12.2894 11.5684 12.456L10.1003 16.5051V16.5046Z" fill="white"/>
<path d="M20.5547 18.9418L20.5523 18.9393C20.5362 19.032 20.511 19.1094 20.4436 19.1878C20.3354 19.3135 20.1944 19.3761 20.052 19.3761C19.9096 19.3761 19.7535 19.3076 19.6395 19.1715L18.2558 17.5418C18.2292 17.5093 18.1974 17.4955 18.1647 17.4955C18.0323 17.4955 17.8865 17.7213 18.0052 17.8509L19.1411 19.1548C19.3561 19.4116 19.3614 19.8094 19.1478 20.0583C19.049 20.1732 18.9266 20.2279 18.8012 20.2279C18.6569 20.2279 18.5098 20.1545 18.3944 20.0164L17.0929 18.51C17.0639 18.4617 17.0269 18.4419 16.9889 18.4419C16.8664 18.4419 16.7378 18.6539 16.8664 18.8057L17.8675 19.9977C18.0769 20.2471 18.0607 20.6351 17.8533 20.8761C17.7584 20.9866 17.6416 21.0383 17.5229 21.0383C17.4531 21.0383 17.3829 21.0206 17.316 20.9861C17.2747 21.1014 17.2139 21.2089 17.1337 21.304C17.2566 21.3745 17.3895 21.4135 17.5229 21.4135C17.7417 21.4135 17.9482 21.3144 18.1039 21.1335C18.2658 20.9456 18.3508 20.7071 18.3603 20.467C18.4955 20.5547 18.6474 20.603 18.8008 20.603C19.0262 20.603 19.2384 20.5005 19.3984 20.3147C19.5588 20.1278 19.6424 19.8878 19.6481 19.6443C19.7729 19.7138 19.911 19.7512 20.0516 19.7512C20.296 19.7512 20.5243 19.6423 20.6943 19.4446C20.8571 19.2553 20.8846 19.0586 20.905 18.9152C20.9164 18.8373 20.9022 18.7594 20.8709 18.6904C20.8315 18.7229 20.8063 18.7431 20.8001 18.7481L20.5542 18.9418H20.5547Z" fill="white"/>
<path d="M11.8947 17.8795L11.8994 17.875L11.9047 17.8711L11.9872 17.804C11.3084 17.0883 10.8931 16.5618 10.8931 16.5618C11.5453 14.8375 12.2825 12.7355 12.2825 12.7355C12.2763 12.8548 12.6622 13.0673 12.7401 13.0998C12.8687 13.154 13.0088 13.1792 13.1469 13.1792C13.1863 13.1792 13.2252 13.1772 13.2641 13.1733C13.6709 13.1304 14.0531 12.8869 14.4129 12.6764C14.6545 12.5349 14.9545 12.3895 15.2384 12.3895C15.3732 12.3895 15.5037 12.4255 15.6233 12.5068C15.732 12.4378 15.8393 12.3722 15.9442 12.3091C15.9266 12.285 15.9067 12.2628 15.883 12.2436C15.6993 12.0917 15.4823 12.0148 15.2379 12.0148C14.86 12.0148 14.4926 12.2041 14.2496 12.3461L14.1556 12.4013C13.8499 12.5817 13.5333 12.7686 13.2309 12.8001C13.2034 12.8031 13.1749 12.8045 13.1469 12.8045C13.0463 12.8045 12.9485 12.7858 12.8635 12.7503C12.8028 12.7237 12.6622 12.6389 12.5977 12.5852C12.554 12.4777 12.4657 12.3954 12.3542 12.3693C12.33 12.3638 12.3058 12.3609 12.282 12.3609C12.142 12.3609 12.0119 12.4545 11.9607 12.6019C11.9535 12.6231 11.2173 14.7192 10.5741 16.4189C10.5247 16.5495 10.5466 16.6989 10.6315 16.8058C10.6491 16.828 11.0602 17.3476 11.7352 18.0604C11.7808 17.9943 11.8334 17.9332 11.8952 17.8795H11.8947Z" fill="white"/>
</g>
<defs>
<filter id="filter0_d_51_130" x="0.293457" y="0.755066" width="32" height="32" filterUnits="userSpaceOnUse" color-interpolation-filters="sRGB">
<feFlood flood-opacity="0" result="BackgroundImageFix"/>
<feColorMatrix in="SourceAlpha" type="matrix" values="0 0 0 0 0 0 0 0 0 0 0 0 0 0 0 0 0 0 127 0" result="hardAlpha"/>
<feOffset/>
<feGaussianBlur stdDeviation="2"/>
<feComposite in2="hardAlpha" operator="out"/>
<feColorMatrix type="matrix" values="0 0 0 0 0 0 0 0 0 0 0 0 0 0 0 0 0 0 0.3 0"/>
<feBlend mode="normal" in2="BackgroundImageFix" result="effect1_dropShadow_51_130"/>
<feBlend mode="normal" in="SourceGraphic" in2="effect1_dropShadow_51_130" result="shape"/>
</filter>
<clipPath id="clip0_51_130">
<rect width="15" height="10" fill="white" transform="translate(8.79346 11.7551)"/>
</clipPath>
</defs>
</svg>
