<svg width="25" height="25" viewBox="0 0 25 25" fill="none" xmlns="http://www.w3.org/2000/svg">
<g filter="url(#filter0_d_219_111)">
<circle cx="12.1631" cy="12.4892" r="8" fill="#EE7623"/>
<circle cx="12.1631" cy="12.4892" r="7.5" stroke="white"/>
</g>
<path d="M13.2198 8.60892C13.1627 8.55176 13.0898 8.51283 13.0106 8.49705C12.9313 8.48128 12.8491 8.48937 12.7744 8.5203C12.6998 8.55123 12.6359 8.60361 12.591 8.67082C12.5461 8.73803 12.5221 8.81704 12.5222 8.89787V10.138C12.5222 10.1597 12.5135 10.1805 12.4982 10.1958C12.4829 10.2112 12.4621 10.2198 12.4404 10.2198C11.4215 10.2198 10.4443 10.6245 9.72388 11.345C9.00341 12.0655 8.59865 13.0426 8.59865 14.0615V14.2044C8.59777 14.2898 8.62418 14.3733 8.67403 14.4426C8.72388 14.512 8.79457 14.5636 8.8758 14.59C8.95745 14.6174 9.04568 14.6185 9.12794 14.5929C9.2102 14.5673 9.2823 14.5165 9.33398 14.4476C10.6807 12.6631 11.9393 12.565 12.4508 12.6158C12.4707 12.6181 12.489 12.6277 12.5022 12.6427C12.5154 12.6577 12.5225 12.6771 12.5222 12.6971V13.9938C12.5221 14.0747 12.5461 14.1537 12.591 14.2209C12.6359 14.2881 12.6998 14.3405 12.7744 14.3714C12.8491 14.4024 12.9313 14.4104 13.0106 14.3947C13.0898 14.3789 13.1627 14.34 13.2198 14.2828L15.6522 11.8504C15.7053 11.7973 15.7475 11.7342 15.7763 11.6648C15.805 11.5954 15.8198 11.521 15.8198 11.4459C15.8198 11.3707 15.805 11.2963 15.7763 11.2269C15.7475 11.1575 15.7053 11.0944 15.6522 11.0413L13.2198 8.60892Z" fill="white"/>
<defs>
<filter id="filter0_d_219_111" x="0.163086" y="0.489197" width="24" height="24" filterUnits="userSpaceOnUse" color-interpolation-filters="sRGB">
<feFlood flood-opacity="0" result="BackgroundImageFix"/>
<feColorMatrix in="SourceAlpha" type="matrix" values="0 0 0 0 0 0 0 0 0 0 0 0 0 0 0 0 0 0 127 0" result="hardAlpha"/>
<feOffset/>
<feGaussianBlur stdDeviation="2"/>
<feComposite in2="hardAlpha" operator="out"/>
<feColorMatrix type="matrix" values="0 0 0 0 0 0 0 0 0 0 0 0 0 0 0 0 0 0 0.3 0"/>
<feBlend mode="normal" in2="BackgroundImageFix" result="effect1_dropShadow_219_111"/>
<feBlend mode="normal" in="SourceGraphic" in2="effect1_dropShadow_219_111" result="shape"/>
</filter>
</defs>
</svg>
