<svg width="33" height="33" viewBox="0 0 33 33" fill="none" xmlns="http://www.w3.org/2000/svg">
<g filter="url(#filter0_d_34_891)">
<circle cx="16.1079" cy="16.7551" r="12" fill="#EE7623"/>
<circle cx="16.1079" cy="16.7551" r="11.5" stroke="white"/>
</g>
<path d="M12.521 19.7046V18.0171C12.521 16.8232 13.0947 15.733 14.034 15.0558C13.6058 14.5557 13.3647 13.9168 13.3647 13.2358C13.3647 12.9169 13.4207 12.6114 13.5189 12.3253C13.263 12.1888 12.9713 12.1108 12.6617 12.1108C11.6537 12.1108 10.8335 12.931 10.8335 13.939C10.8335 14.5515 11.1374 15.0934 11.6012 15.4252C10.6542 15.8365 9.98975 16.78 9.98975 17.8765V19.1422C9.98975 19.9176 10.6206 20.5485 11.396 20.5485H12.7137C12.5915 20.2923 12.521 20.0068 12.521 19.7046Z" fill="white"/>
<path d="M20.7534 15.4252C21.2172 15.0933 21.5211 14.5515 21.5211 13.939C21.5211 12.931 20.7009 12.1108 19.6929 12.1108C19.3832 12.1108 19.0916 12.1888 18.8357 12.3253C18.9339 12.6114 18.9899 12.9169 18.9899 13.2358C18.9899 13.9167 18.7487 14.5555 18.3206 15.0558C19.2599 15.733 19.8336 16.8234 19.8336 18.0171V19.7046C19.8336 20.0068 19.7631 20.2921 19.6409 20.5483H20.9586C21.734 20.5483 22.3649 19.9174 22.3649 19.1421V17.8764C22.3649 16.7799 21.7004 15.8365 20.7534 15.4252Z" fill="white"/>
<path d="M17.3465 15.1545C17.9933 14.7588 18.4272 14.0479 18.4272 13.2358C18.4272 11.9952 17.4179 10.9858 16.1772 10.9858C14.9366 10.9858 13.9272 11.9952 13.9272 13.2358C13.9272 14.0479 14.3612 14.7588 15.008 15.1545C13.8804 15.6168 13.0835 16.725 13.0835 18.0171V19.7046C13.0835 20.4799 13.7144 21.1108 14.4897 21.1108H17.8647C18.6401 21.1108 19.271 20.4799 19.271 19.7046V18.0171C19.271 16.725 18.474 15.6168 17.3465 15.1545Z" fill="white"/>
<defs>
<filter id="filter0_d_34_891" x="0.10791" y="0.755127" width="32" height="32" filterUnits="userSpaceOnUse" color-interpolation-filters="sRGB">
<feFlood flood-opacity="0" result="BackgroundImageFix"/>
<feColorMatrix in="SourceAlpha" type="matrix" values="0 0 0 0 0 0 0 0 0 0 0 0 0 0 0 0 0 0 127 0" result="hardAlpha"/>
<feOffset/>
<feGaussianBlur stdDeviation="2"/>
<feComposite in2="hardAlpha" operator="out"/>
<feColorMatrix type="matrix" values="0 0 0 0 0 0 0 0 0 0 0 0 0 0 0 0 0 0 0.3 0"/>
<feBlend mode="normal" in2="BackgroundImageFix" result="effect1_dropShadow_34_891"/>
<feBlend mode="normal" in="SourceGraphic" in2="effect1_dropShadow_34_891" result="shape"/>
</filter>
</defs>
</svg>
