<svg width="33" height="33" viewBox="0 0 33 33" fill="none" xmlns="http://www.w3.org/2000/svg">
<g filter="url(#filter0_d_51_130)">
<circle cx="16.2935" cy="16.7551" r="12" fill="#0A3B68"/>
<circle cx="16.2935" cy="16.7551" r="11.5" stroke="white"/>
</g>
<path d="M16.1322 21.7551H19.0354C19.6343 21.7551 20.2086 21.5172 20.6321 21.0937C21.0556 20.6702 21.2935 20.0959 21.2935 19.497V14.0131C21.2935 13.4143 21.0556 12.8399 20.6321 12.4164C20.2086 11.993 19.6343 11.7551 19.0354 11.7551H13.5515C12.9526 11.7551 12.3783 11.993 11.9548 12.4164C11.5314 12.8399 11.2935 13.4143 11.2935 14.0131V16.9164C11.2935 17.0875 11.3614 17.2516 11.4824 17.3726C11.6034 17.4935 11.7675 17.5615 11.9386 17.5615C12.1097 17.5615 12.2738 17.4935 12.3948 17.3726C12.5158 17.2516 12.5838 17.0875 12.5838 16.9164V14.0131C12.5838 13.7565 12.6857 13.5103 12.8672 13.3288C13.0487 13.1473 13.2949 13.0454 13.5515 13.0454H19.0354C19.2921 13.0454 19.5382 13.1473 19.7197 13.3288C19.9012 13.5103 20.0031 13.7565 20.0031 14.0131V19.497C20.0031 19.7537 19.9012 19.9998 19.7197 20.1813C19.5382 20.3628 19.2921 20.4647 19.0354 20.4647H16.1322C15.9611 20.4647 15.797 20.5327 15.676 20.6537C15.555 20.7747 15.487 20.9388 15.487 21.1099C15.487 21.281 15.555 21.4451 15.676 21.5661C15.797 21.6871 15.9611 21.7551 16.1322 21.7551Z" fill="white"/>
<path d="M12.7725 20.276C12.8324 20.336 12.9035 20.3836 12.9819 20.4161C13.0602 20.4485 13.1441 20.4653 13.2289 20.4653C13.3137 20.4653 13.3977 20.4485 13.476 20.4161C13.5543 20.3836 13.6255 20.336 13.6854 20.276L17.2612 16.7002V18.5293C17.2612 18.7004 17.3292 18.8645 17.4501 18.9855C17.5711 19.1065 17.7352 19.1744 17.9063 19.1744C18.0774 19.1744 18.2415 19.1065 18.3625 18.9855C18.4835 18.8645 18.5515 18.7004 18.5515 18.5293V16.1099C18.5515 15.6821 18.3816 15.2719 18.0791 14.9694C17.7766 14.6669 17.3664 14.497 16.9386 14.497H14.5192C14.3481 14.497 14.184 14.565 14.063 14.686C13.9421 14.807 13.8741 14.9711 13.8741 15.1422C13.8741 15.3133 13.9421 15.4774 14.063 15.5984C14.184 15.7194 14.3481 15.7873 14.5192 15.7873H16.3483L12.7725 19.3631C12.7125 19.4231 12.6649 19.4942 12.6324 19.5725C12.6 19.6509 12.5833 19.7348 12.5833 19.8196C12.5833 19.9044 12.6 19.9883 12.6324 20.0666C12.6649 20.145 12.7125 20.2161 12.7725 20.276Z" fill="white"/>
<defs>
<filter id="filter0_d_51_130" x="0.293457" y="0.755066" width="32" height="32" filterUnits="userSpaceOnUse" color-interpolation-filters="sRGB">
<feFlood flood-opacity="0" result="BackgroundImageFix"/>
<feColorMatrix in="SourceAlpha" type="matrix" values="0 0 0 0 0 0 0 0 0 0 0 0 0 0 0 0 0 0 127 0" result="hardAlpha"/>
<feOffset/>
<feGaussianBlur stdDeviation="2"/>
<feComposite in2="hardAlpha" operator="out"/>
<feColorMatrix type="matrix" values="0 0 0 0 0 0 0 0 0 0 0 0 0 0 0 0 0 0 0.3 0"/>
<feBlend mode="normal" in2="BackgroundImageFix" result="effect1_dropShadow_51_130"/>
<feBlend mode="normal" in="SourceGraphic" in2="effect1_dropShadow_51_130" result="shape"/>
</filter>
</defs>
</svg>
