<svg height="11px" width="11px" viewBox="0 0 15.474 13.059"
                    xmlns="http://www.w3.org/2000/svg">
                    <path
                        d="M701.4,704.7a4.581,4.581,0,0,1-6.336,0,4.57,4.57,0,0,0-4.565,4.564c0,4.183,7.062,8.124,7.361,8.289l.373.206.375-.2c.3-.164,7.365-4.06,7.365-8.3A4.6,4.6,0,0,0,701.4,704.7Zm3.017,4.564c0,2.855-4.893,5.947-6.182,6.712-2.21-1.306-6.18-4.284-6.18-6.712a3.014,3.014,0,0,1,3.012-3.008h.026a2.961,2.961,0,0,1,2.491,1.352l.649,1,.654-.995a3,3,0,0,1,2.519-1.356A3.034,3.034,0,0,1,704.413,709.262Z"
                        data-name="Path 3804" fill="#fff" id="Path_3804" transform="translate(-690.495 -704.698)">
                    </path>
                </svg>