<svg xmlns="http://www.w3.org/2000/svg" version="1.1" xmlns:xlink="http://www.w3.org/1999/xlink" xmlns:svgjs="http://svgjs.com/svgjs" width="18" height="18" x="0" y="0" viewBox="0 0 512 512" style="enable-background:new 0 0 512 512" xml:space="preserve" class=""><g><path d="M336 192h-16v-64C320 57.406 262.594 0 192 0S64 57.406 64 128v64H48c-26.453 0-48 21.523-48 48v224c0 26.477 21.547 48 48 48h288c26.453 0 48-21.523 48-48V240c0-26.477-21.547-48-48-48zm-229.332-64c0-47.063 38.27-85.332 85.332-85.332s85.332 38.27 85.332 85.332v64H106.668zm0 0" fill="#000000" data-original="#000000" class=""></path></g></svg>