<svg xmlns="http://www.w3.org/2000/svg" width="17.437" height="15.257" viewBox="0 0 17.437 15.257">
  <g id="signs" transform="translate(0 -31.998)" opacity="0.34">
    <g id="Group_398" data-name="Group 398" transform="translate(0 33.088)">
      <g id="Group_397" data-name="Group 397">
        <path id="Path_259" data-name="Path 259" d="M11.988,71.664V75.99H2.18V66.182H5.449V64H1.09A1.09,1.09,0,0,0,0,65.092V77.079a1.089,1.089,0,0,0,1.09,1.09H13.077a1.089,1.089,0,0,0,1.09-1.09V71.664Z" transform="translate(0 -64.002)"/>
      </g>
    </g>
    <g id="Group_400" data-name="Group 400" transform="translate(4.359 31.998)">
      <g id="Group_399" data-name="Group 399">
        <path id="Path_260" data-name="Path 260" d="M140.859,35.377,136.5,32.108a.545.545,0,0,0-.872.436v1.635h-1.635A6,6,0,0,0,128,40.172a.545.545,0,0,0,1.032.244l.129-.256a4.877,4.877,0,0,1,4.386-2.712h2.081v1.635a.545.545,0,0,0,.872.436l4.359-3.269a.545.545,0,0,0,0-.872Z" transform="translate(-128 -31.998)"/>
      </g>
    </g>
  </g>
</svg>
