<svg xmlns="http://www.w3.org/2000/svg" width="18.722" height="20.424" viewBox="0 0 18.722 20.424">
  <g id="musical-instrument" transform="translate(0 0)">
    <path id="Path_261" data-name="Path 261" d="M358.529,24.617a.851.851,0,0,1-.851-.851,8.879,8.879,0,0,0-2.617-6.319.851.851,0,0,1,1.2-1.2,10.567,10.567,0,0,1,3.115,7.522.851.851,0,0,1-.851.851Zm0,0" transform="translate(-340.658 -15.357)" fill="#474747"/>
    <path id="Path_262" data-name="Path 262" d="M.851,24.617A.851.851,0,0,1,0,23.767a10.568,10.568,0,0,1,3.115-7.522.851.851,0,1,1,1.2,1.2A8.877,8.877,0,0,0,1.7,23.767a.851.851,0,0,1-.851.851Zm0,0" transform="translate(0 -15.357)" fill="#474747"/>
    <path id="Path_263" data-name="Path 263" d="M37.824,14.393A5.7,5.7,0,0,1,35.8,10.032V7.659a5.962,5.962,0,0,0-5.106-5.889V.851a.851.851,0,0,0-1.7,0v.919a5.961,5.961,0,0,0-5.106,5.889v2.373A5.706,5.706,0,0,1,21.853,14.4a1.489,1.489,0,0,0,.968,2.62H36.863a1.489,1.489,0,0,0,.961-2.627Zm0,0" transform="translate(-20.481)" fill="#474747"/>
    <path id="Path_264" data-name="Path 264" d="M159.415,450.553A3.2,3.2,0,0,0,162.542,448h-6.253A3.2,3.2,0,0,0,159.415,450.553Zm0,0" transform="translate(-150.055 -430.129)" fill="#474747"/>
  </g>
</svg>
