<svg xmlns="http://www.w3.org/2000/svg" width="47.06" height="55.402" viewBox="0 0 47.06 55.402">
  <g id="Group_493" data-name="Group 493" transform="translate(-407.878 -248.869)">
    <g id="Path_263" data-name="Path 263">
      <path id="Path_3640" data-name="Path 3640" d="M448.428,295.828h-34.04a6.512,6.512,0,0,1-4.234-11.457,10.919,10.919,0,0,0,3.918-8.383v-5.752a17.472,17.472,0,0,1,12.378-16.6l0-.048a4.965,4.965,0,0,1,9.918,0l0,.048A17.471,17.471,0,0,1,448.75,270.23v5.758a10.892,10.892,0,0,0,3.875,8.352h0a6.512,6.512,0,0,1-4.2,11.488Z" fill="#474747"/>
    </g>
    <path id="Path_264" data-name="Path 264" d="M431.4,304.271a7.757,7.757,0,0,0,7.58-6.188H423.827A7.756,7.756,0,0,0,431.4,304.271Z" fill="#474747"/>
  </g>
</svg>
