<svg id="photo" xmlns="http://www.w3.org/2000/svg" width="20.094" height="18.42" viewBox="0 0 20.094 18.42">
  <path id="Path_143" data-name="Path 143" d="M5.232,157.223a3.135,3.135,0,0,1-2.966-2.136l-.029-.1a3.056,3.056,0,0,1-.145-.908v-5.709l-2.031,6.78a1.9,1.9,0,0,0,1.333,2.307l12.947,3.467a1.921,1.921,0,0,0,.482.062,1.867,1.867,0,0,0,1.809-1.369l.754-2.4Zm0,0" transform="translate(0 -142.571)" fill="#343434"/>
  <path id="Path_144" data-name="Path 144" d="M150.995,67.841a1.675,1.675,0,1,0-1.675-1.675A1.676,1.676,0,0,0,150.995,67.841Zm0,0" transform="translate(-143.46 -61.98)" fill="#343434"/>
  <path id="Path_145" data-name="Path 145" d="M99.972.492H87.413A2.1,2.1,0,0,0,85.32,2.586V11.8a2.1,2.1,0,0,0,2.093,2.093H99.972a2.1,2.1,0,0,0,2.093-2.093V2.586A2.1,2.1,0,0,0,99.972.492ZM87.413,2.167H99.972a.419.419,0,0,1,.419.419V8.529L97.746,5.443a1.5,1.5,0,0,0-1.123-.515,1.464,1.464,0,0,0-1.119.528L92.4,9.189,91.382,8.178a1.47,1.47,0,0,0-2.076,0l-2.311,2.31v-7.9A.419.419,0,0,1,87.413,2.167Zm0,0" transform="translate(-81.971 -0.492)" fill="#343434"/>
</svg>
