<svg xmlns="http://www.w3.org/2000/svg" width="91" height="91" viewBox="0 0 91 91">
  <g id="Group_1427" data-name="Group 1427" transform="translate(4983 -683)">
    <circle id="Ellipse_356" data-name="Ellipse 356" cx="45.5" cy="45.5" r="45.5" transform="translate(-4983 683)" fill="#e4e4e4"/>
    <g id="kitchen" transform="translate(-4959.133 701.231)">
      <g id="Group_1391" data-name="Group 1391" transform="translate(0.788 0.788)">
        <path id="Path_3401" data-name="Path 3401" d="M66.145,120V124.4a3.907,3.907,0,0,1-1.959,3.386l-1.7.976v5.608a2.617,2.617,0,0,1,.819,1.905v.807a1.3,1.3,0,0,1-1.295,1.295H59.345a1.3,1.3,0,0,1-1.295-1.295v-.807a2.62,2.62,0,0,1,.823-1.91v-5.6l-1.7-.977a3.9,3.9,0,0,1-1.962-3.386V120Z" transform="translate(-55.208 -108.175)" fill="#dcf1ff"/>
        <path id="Path_3402" data-name="Path 3402" d="M90.344,131.658v3.18a3.907,3.907,0,0,1-1.959,3.386l-1.7.976v5.608a2.617,2.617,0,0,1,.819,1.905v.807a1.3,1.3,0,0,1-1.295,1.295H83.543a1.3,1.3,0,0,1-1.295-1.295v-.492H85.4a.316.316,0,0,0,.315-.315.821.821,0,0,0-.095-.388.844.844,0,0,0-.168-.222,1.787,1.787,0,0,1-.556-1.3v-6.3a1.785,1.785,0,0,1,.9-1.549l1.7-.977C88.15,135.6,90.344,134.142,90.344,131.658Z" transform="translate(-79.406 -118.609)" fill="#b6e5ff"/>
        <path id="Path_3403" data-name="Path 3403" d="M213.2,27.956V33.7a2.617,2.617,0,0,1,.819,1.905v.807a1.3,1.3,0,0,1-1.295,1.295h-2.665a1.3,1.3,0,0,1-1.295-1.295V35.6a2.621,2.621,0,0,1,.823-1.91V27.956c-3.073-.684-5.342-3.23-5.342-8.031,0-5.7,3.2-12.427,7.147-12.427,2.861,0,5.329,3.533,6.471,7.649a18.145,18.145,0,0,1,.676,4.778c0,4.8-2.267,7.345-5.338,8.031Z" transform="translate(-188.585 -7.498)" fill="#dcf1ff"/>
        <path id="Path_3404" data-name="Path 3404" d="M251.685,93.087v5.741a2.617,2.617,0,0,1,.819,1.905v.807a1.3,1.3,0,0,1-1.295,1.295h-2.665a1.3,1.3,0,0,1-1.295-1.295v-.492H250.4a.315.315,0,0,0,.315-.315.821.821,0,0,0-.095-.388.844.844,0,0,0-.168-.222,1.787,1.787,0,0,1-.556-1.3V92.735a1.785,1.785,0,0,1,.9-1.549l1.7-.977c.625-.358,3.585-1.712,3.852-9.931a18.145,18.145,0,0,1,.676,4.778C257.023,89.855,254.756,92.4,251.685,93.087Z" transform="translate(-227.066 -72.629)" fill="#b6e5ff"/>
        <path id="Path_3405" data-name="Path 3405" d="M396.384,39.807v.807a1.3,1.3,0,0,1-1.295,1.295h-2.665a1.3,1.3,0,0,1-1.295-1.295v-.807a2.62,2.62,0,0,1,.822-1.91V34.184h-2.633v-19.3a7.495,7.495,0,0,1,4.46-6.85,7.547,7.547,0,0,1,1.787-.535V37.9A2.621,2.621,0,0,1,396.384,39.807Z" transform="translate(-354.204 -7.498)" fill="#dcf1ff"/>
        <path id="Path_3406" data-name="Path 3406" d="M411.8,39.807v.807a1.3,1.3,0,0,1-1.295,1.295h-2.665a1.3,1.3,0,0,1-1.295-1.295v-.492H409.7a.315.315,0,0,0,.315-.315.821.821,0,0,0-.095-.388.845.845,0,0,0-.168-.222,1.787,1.787,0,0,1-.556-1.3V8.033a7.547,7.547,0,0,1,1.787-.535V37.9a2.621,2.621,0,0,1,.819,1.905Z" transform="translate(-369.624 -7.498)" fill="#b6e5ff"/>
        <g id="Group_1388" data-name="Group 1388" transform="translate(2.842 30.206)">
          <path id="Path_3407" data-name="Path 3407" d="M82.247,314.29a2.627,2.627,0,1,0,5.255,0V296.212a1.3,1.3,0,0,0-1.295-1.295H83.542a1.3,1.3,0,0,0-1.295,1.295Z" transform="translate(-82.247 -294.917)" fill="#ff485e"/>
          <path id="Path_3408" data-name="Path 3408" d="M100.925,296.211v18.079a2.629,2.629,0,0,1-3.678,2.409,2.629,2.629,0,0,0,1.576-2.409V296.211a1.3,1.3,0,0,0-1.295-1.295h2.1A1.3,1.3,0,0,1,100.925,296.211Z" transform="translate(-95.671 -294.916)" fill="#d82356"/>
        </g>
        <g id="Group_1389" data-name="Group 1389" transform="translate(20.183 30.206)">
          <path id="Path_3409" data-name="Path 3409" d="M247.247,314.29a2.627,2.627,0,1,0,5.255,0V296.212a1.3,1.3,0,0,0-1.295-1.295h-2.665a1.3,1.3,0,0,0-1.295,1.295V314.29Z" transform="translate(-247.247 -294.917)" fill="#93f9e5"/>
          <path id="Path_3410" data-name="Path 3410" d="M265.926,296.211v18.079a2.629,2.629,0,0,1-3.678,2.409,2.629,2.629,0,0,0,1.576-2.409V296.211a1.3,1.3,0,0,0-1.295-1.295h2.1A1.3,1.3,0,0,1,265.926,296.211Z" transform="translate(-260.671 -294.916)" fill="#5ce8f2"/>
        </g>
        <g id="Group_1390" data-name="Group 1390" transform="translate(36.924 34.411)">
          <path id="Path_3411" data-name="Path 3411" d="M406.544,350.088a2.627,2.627,0,0,0,5.255,0V336.214a1.3,1.3,0,0,0-1.295-1.295h-2.665a1.3,1.3,0,0,0-1.295,1.295v13.874Z" transform="translate(-406.544 -334.919)" fill="#ffe780"/>
          <path id="Path_3412" data-name="Path 3412" d="M425.223,336.213v13.875a2.629,2.629,0,0,1-3.678,2.409,2.628,2.628,0,0,0,1.576-2.409V336.213a1.3,1.3,0,0,0-1.295-1.295h2.1a1.3,1.3,0,0,1,1.295,1.295Z" transform="translate(-419.968 -334.918)" fill="#ffcc83"/>
        </g>
      </g>
      <g id="Group_1392" data-name="Group 1392" transform="translate(0 0)">
        <path id="Path_3413" data-name="Path 3413" d="M59.437,0a.788.788,0,0,0-.788.788V11.824H56.565V.788a.788.788,0,1,0-1.576,0V11.824H52.952V.788a.788.788,0,0,0-1.576,0V11.824H49.287V.788a.788.788,0,1,0-1.576,0V17.016a4.7,4.7,0,0,0,2.358,4.07l1.307.75V26.67a3.432,3.432,0,0,0-.823,2.223V29.7A2.073,2.073,0,0,0,51,30.995a2.073,2.073,0,0,0-.452,1.295V44.62a.788.788,0,1,0,1.576,0V32.289a.507.507,0,0,1,.507-.507H55.3a.507.507,0,0,1,.507.507V50.368a1.839,1.839,0,0,1-3.678,0V48.29a.788.788,0,0,0-1.576,0v2.078a3.416,3.416,0,0,0,6.831,0V32.289a2.073,2.073,0,0,0-.452-1.295,2.073,2.073,0,0,0,.452-1.295v-.807a3.433,3.433,0,0,0-.819-2.218V21.835l1.3-.749a4.7,4.7,0,0,0,2.355-4.069V.788A.788.788,0,0,0,59.437,0Zm-.788,17.017a3.124,3.124,0,0,1-1.564,2.7l-1.7.976a.788.788,0,0,0-.4.684v5.608a.788.788,0,0,0,.246.572,1.823,1.823,0,0,1,.573,1.334V29.7a.507.507,0,0,1-.507.507H52.635a.507.507,0,0,1-.507-.507v-.807a1.823,1.823,0,0,1,.576-1.337.788.788,0,0,0,.247-.573v-5.6a.788.788,0,0,0-.4-.684l-1.7-.977a3.123,3.123,0,0,1-1.566-2.7V13.4h9.361v3.617Z" transform="translate(-47.711 0)"/>
        <path id="Path_3414" data-name="Path 3414" d="M234.735,119.029a5.167,5.167,0,0,1-.991,3.516,3.585,3.585,0,0,1-4.429,0,5.167,5.167,0,0,1-.991-3.516.788.788,0,1,0-1.576,0,6.554,6.554,0,0,0,1.432,4.609,5.119,5.119,0,0,0,6.7,0,6.555,6.555,0,0,0,1.432-4.609.788.788,0,1,0-1.576,0Z" transform="translate(-207.931 -105.814)"/>
        <path id="Path_3415" data-name="Path 3415" d="M204.682,0c-2.142,0-4.183,1.594-5.747,4.489a19.209,19.209,0,0,0-2.188,8.726c0,4.486,1.937,7.6,5.342,8.638V26.67a3.432,3.432,0,0,0-.823,2.223V29.7a2.073,2.073,0,0,0,.452,1.295,2.073,2.073,0,0,0-.453,1.295V50.368a3.416,3.416,0,1,0,6.831,0V38.69a.788.788,0,1,0-1.576,0V50.368a1.839,1.839,0,1,1-3.678,0V32.289a.507.507,0,0,1,.507-.507h2.665a.507.507,0,0,1,.507.507v2.767a.788.788,0,0,0,1.576,0V32.289a2.073,2.073,0,0,0-.452-1.295A2.073,2.073,0,0,0,208.1,29.7v-.807a3.433,3.433,0,0,0-.819-2.218V21.852c3.4-1.044,5.338-4.153,5.338-8.637a19.208,19.208,0,0,0-2.188-8.726C208.865,1.594,206.824,0,204.682,0Zm1.637,20.476a.788.788,0,0,0-.616.769v5.742a.788.788,0,0,0,.245.572,1.822,1.822,0,0,1,.573,1.334V29.7a.507.507,0,0,1-.507.507h-2.665a.507.507,0,0,1-.507-.507v-.807a1.823,1.823,0,0,1,.576-1.337.788.788,0,0,0,.247-.573V21.247a.788.788,0,0,0-.617-.769c-3.047-.679-4.725-3.258-4.725-7.262a17.557,17.557,0,0,1,2-7.977c1.257-2.327,2.846-3.662,4.36-3.662s3.1,1.335,4.36,3.661a17.559,17.559,0,0,1,2,7.977C211.04,17.218,209.363,19.8,206.319,20.476Z" transform="translate(-181.084 0)"/>
        <path id="Path_3416" data-name="Path 3416" d="M390.463,33.1a3.433,3.433,0,0,0-.819-2.218V11.3a.788.788,0,0,0-1.576,0V31.19a.788.788,0,0,0,.246.572,1.822,1.822,0,0,1,.573,1.334V33.9a.507.507,0,0,1-.507.507h-2.665a.507.507,0,0,1-.507-.507V33.1a1.823,1.823,0,0,1,.576-1.337.788.788,0,0,0,.247-.573V27.473a.788.788,0,0,0-.788-.788H383.4V8.173a6.679,6.679,0,0,1,4.67-6.387V7.7a.788.788,0,0,0,1.576,0V.788a.788.788,0,0,0-.919-.777,8.253,8.253,0,0,0-6.9,8.162v19.3a.788.788,0,0,0,.788.788h1.845v2.612a3.432,3.432,0,0,0-.823,2.223V33.9a2.073,2.073,0,0,0,.452,1.295,2.073,2.073,0,0,0-.452,1.295V50.368a3.416,3.416,0,0,0,6.831,0V36.493a2.073,2.073,0,0,0-.452-1.295,2.073,2.073,0,0,0,.452-1.295V33.1Zm-1.576,17.271a1.839,1.839,0,1,1-3.678,0V36.493a.507.507,0,0,1,.507-.507h2.665a.507.507,0,0,1,.507.507V50.368Z" transform="translate(-346.708 0)"/>
      </g>
    </g>
  </g>
</svg>
