<svg id="Fill_Outline" data-name="Fill Outline" xmlns="http://www.w3.org/2000/svg" width="98.042" height="108.935" viewBox="0 0 98.042 108.935">
  <g id="Stroke_copy" data-name="Stroke copy" transform="translate(1.816 1.816)">
    <g id="Group_1397" data-name="Group 1397">
      <g id="Group_1394" data-name="Group 1394" transform="translate(5.447)">
        <path id="Path_3417" data-name="Path 3417" d="M29.262,31.439H22V16.915a3.631,3.631,0,0,1,1.617-3.021L39.958,3l4.027,6.042L29.262,18.857Z" transform="translate(1.603 -3)" fill="#f9e109"/>
        <path id="Path_3418" data-name="Path 3418" d="M43.987,7.806l-14.724,9.8V30.192H22V15.668a3.62,3.62,0,0,1,1.616-3.014l1.834-1.235A9.713,9.713,0,0,0,34.2,10.058L41.808,4.52Z" transform="translate(1.603 -1.76)" fill="#fcbc04"/>
        <path id="Path_3419" data-name="Path 3419" d="M56.205,89.545H16.262L9,26H63.467Z" transform="translate(-9 15.758)" fill="#f8664f"/>
        <path id="Path_3420" data-name="Path 3420" d="M12.631,22H59.836a3.631,3.631,0,0,1,3.631,3.631v3.631H9V25.631A3.631,3.631,0,0,1,12.631,22Z" transform="translate(-9 12.496)" fill="#84d2f4"/>
        <path id="Path_3421" data-name="Path 3421" d="M17.631,18H46.68a3.631,3.631,0,0,1,3.631,3.631v3.631H14V21.631A3.631,3.631,0,0,1,17.631,18Z" transform="translate(-4.922 9.234)" fill="#84d2f4"/>
        <path id="Path_3422" data-name="Path 3422" d="M62.85,31.447H21.709A62,62,0,0,0,60.8,49.421L56.205,89.545H16.262L9,26H63.467Z" transform="translate(-9 15.758)" fill="#cc5144"/>
        <g id="Group_1393" data-name="Group 1393" transform="translate(0 27.234)">
          <path id="Path_3423" data-name="Path 3423" d="M63.467,25.631v3.631H9V25.631A3.642,3.642,0,0,1,12.631,22a3.642,3.642,0,0,0,3.631,3.631Z" transform="translate(-9 -14.738)" fill="#57b7eb"/>
          <path id="Path_3424" data-name="Path 3424" d="M50.312,21.631v3.631H14V21.631A3.642,3.642,0,0,1,17.631,18a3.642,3.642,0,0,0,3.631,3.631Z" transform="translate(-4.922 -18)" fill="#57b7eb"/>
        </g>
      </g>
      <g id="Group_1395" data-name="Group 1395" transform="translate(38.127 35.222)">
        <path id="Path_3425" data-name="Path 3425" d="M47.447,23.489,43.816,68.879,42,88.85l9.078,1.816L56.525,25.3l-5.447-2.9Z" transform="translate(-14.766 -22.4)" fill="#e59730"/>
        <path id="Path_3426" data-name="Path 3426" d="M39,31.262l3.631,43.574H53.525L49.893,29.447,44.447,24Z" transform="translate(-17.213 -21.095)" fill="#fcbc04"/>
        <path id="Path_3427" data-name="Path 3427" d="M53.525,72.854H42.631L39,29.28l2.142-2.85,3.3,26.453h1.816l1.979-11.547,1.652-1.162L51,41.281Z" transform="translate(-17.213 -19.113)" fill="#e59730"/>
        <path id="Path_3428" data-name="Path 3428" d="M40.262,31.83l-5.38-1.848L33,35.461l9.078,29.049,8.473-3.631Z" transform="translate(-22.107 -16.216)" fill="#f9e109"/>
        <path id="Path_3429" data-name="Path 3429" d="M50.557,60.824l-8.479,3.631L33,35.406l1.852-5.356,3.323,9.986A32.2,32.2,0,0,0,48.451,54.887Z" transform="translate(-22.107 -16.161)" fill="#fcbc04"/>
        <path id="Path_3430" data-name="Path 3430" d="M58.327,24,50.921,58.5h7.406l5.447-25.418Z" transform="translate(-7.491 -21.095)" fill="#f9e109"/>
        <path id="Path_3431" data-name="Path 3431" d="M58.051,40.93l2.9-12.56L58.327,24,50.921,58.5h7.406L60.8,46.951a5.447,5.447,0,0,1-2.751-6.02Z" transform="translate(-7.491 -21.095)" fill="#fcbc04"/>
        <path id="Path_3432" data-name="Path 3432" d="M27,30,39.709,64.5l7.262-1.816L34.262,30Z" transform="translate(-27 -16.202)" fill="#f9e109"/>
        <path id="Path_3433" data-name="Path 3433" d="M27,30,39.709,64.5l3.631-.908L30.373,30Z" transform="translate(-27 -16.202)" fill="#fcbc04"/>
        <path id="Path_3434" data-name="Path 3434" d="M51.447,27,46,70.574l7.262-1.816,7.262-38.127Z" transform="translate(-11.504 -18.648)" fill="#f9e109"/>
        <path id="Path_3435" data-name="Path 3435" d="M56.385,52.364,53.262,68.758,46,70.574,51.447,27l3.522,1.416L53.516,48.805A3.37,3.37,0,0,0,56.385,52.364Z" transform="translate(-11.504 -18.648)" fill="#fcbc04"/>
        <path id="Path_3436" data-name="Path 3436" d="M51.262,66.68H44L45.816,34l7.262,1.816Z" transform="translate(-13.135 -12.939)" fill="#f9e109"/>
        <path id="Path_3437" data-name="Path 3437" d="M48.96,49.554l.41-14.664L45.816,34,44,66.68h7.262l.714-12.117a5.447,5.447,0,0,1-3.016-5.009Z" transform="translate(-13.135 -12.939)" fill="#fcbc04"/>
        <path id="Path_3438" data-name="Path 3438" d="M71.758,39c0,7.019-7.315,12.709-16.34,12.709S39.078,46.019,39.078,39H30l5.447,39.943H75.389L80.836,39Z" transform="translate(-24.553 -8.861)" fill="#84d2f4"/>
        <path id="Path_3439" data-name="Path 3439" d="M76.388,71.68l-1,7.262H35.447L30,39h9.078a11.1,11.1,0,0,0,3.758,8.1A29.033,29.033,0,0,0,71.54,71.68Z" transform="translate(-24.553 -8.861)" fill="#57b7eb"/>
        <ellipse id="Ellipse_342" data-name="Ellipse 342" cx="5" cy="5.5" rx="5" ry="5.5" transform="translate(26.261 51.474)" fill="#f9e109"/>
        <path id="Path_3440" data-name="Path 3440" d="M50.968,58.427A5.447,5.447,0,0,1,41,55.395a5.35,5.35,0,0,1,.98-3.1,28.96,28.96,0,0,0,8.987,6.137Z" transform="translate(-15.582 1.978)" fill="#fcbc04"/>
      </g>
      <g id="Group_1396" data-name="Group 1396" transform="translate(0 54.467)">
        <path id="Path_3441" data-name="Path 3441" d="M47.943,57.525H15.262a7.262,7.262,0,1,1,0-14.525h32.68a7.262,7.262,0,1,1,0,14.525Z" transform="translate(-4.369 -24.844)" fill="#f89c8d"/>
        <path id="Path_3442" data-name="Path 3442" d="M51.577,53.893a7.137,7.137,0,0,0,2.978-.654A7.017,7.017,0,0,1,53.083,55.4a7.308,7.308,0,0,1-5.138,2.124H15.265a7.262,7.262,0,0,1-5.138-12.4,7.017,7.017,0,0,1,2.161-1.471A7.137,7.137,0,0,1,15.265,43h32.68a7.262,7.262,0,0,1,4.793,1.816,6.959,6.959,0,0,1,2,2.9A3.842,3.842,0,0,1,51.377,49.7a3.926,3.926,0,0,1-1.724-.4,3.769,3.769,0,0,0-3.414,0L42.39,51.225a3.769,3.769,0,0,1-3.413,0L35.127,49.3a3.769,3.769,0,0,0-3.413,0l-3.849,1.925a3.769,3.769,0,0,1-3.413,0L20.6,49.3a3.769,3.769,0,0,0-3.413,0l-2.923,1.471a5.629,5.629,0,0,1-1.053.381A7.233,7.233,0,0,0,18.9,53.893Z" transform="translate(-4.372 -24.844)" fill="#f8664f"/>
        <path id="Path_3443" data-name="Path 3443" d="M6,55H60.467v3.631a7.262,7.262,0,0,1-7.262,7.262H13.262A7.262,7.262,0,0,1,6,58.631Z" transform="translate(-6 -15.057)" fill="#fcbc04"/>
        <path id="Path_3444" data-name="Path 3444" d="M25.1,55l-1.452,1.816L22.2,55Z" transform="translate(7.212 -15.057)" fill="#e59730"/>
        <path id="Path_3445" data-name="Path 3445" d="M25.1,55l-1.452,1.816L22.2,55Z" transform="translate(7.212 -15.057)" fill="#e59730"/>
        <path id="Path_3446" data-name="Path 3446" d="M51.574,58.262H11.631a3.631,3.631,0,1,1,0-7.262H51.574a3.631,3.631,0,1,1,0,7.262Z" transform="translate(-4.369 -18.32)" fill="#cc5144"/>
        <path id="Path_3447" data-name="Path 3447" d="M27.262,60.078,20,51H34.525Z" transform="translate(5.418 -18.32)" fill="#f7f754"/>
        <path id="Path_3448" data-name="Path 3448" d="M26.64,52.946,25.084,51H20l7.262,9.078,4.112-5.14a5.4,5.4,0,0,1-4.735-1.992Z" transform="translate(5.418 -18.32)" fill="#f9e109"/>
        <path id="Path_3449" data-name="Path 3449" d="M7,43a5.872,5.872,0,0,0,3.249,5.255l1.386.693a5.868,5.868,0,0,0,5.254,0L19.811,47.5a3.834,3.834,0,0,1,3.428,0l3.835,1.917a3.834,3.834,0,0,0,3.428,0L34.335,47.5a3.834,3.834,0,0,1,3.428,0L41.6,49.413a3.834,3.834,0,0,0,3.428,0L48.86,47.5a3.834,3.834,0,0,1,3.428,0,3.835,3.835,0,0,0,5.548-3.435V43Z" transform="translate(-5.184 -24.844)" fill="#c4f236"/>
        <path id="Path_3450" data-name="Path 3450" d="M42.312,33H24.156A18.156,18.156,0,0,0,6,51.156H60.467A18.156,18.156,0,0,0,42.312,33Z" transform="translate(-6 -33)" fill="#fcbc04"/>
        <path id="Path_3451" data-name="Path 3451" d="M60.467,50.854H6A18.156,18.156,0,0,1,19.29,33.37,16.34,16.34,0,0,0,35.049,45.407H59.632a17.989,17.989,0,0,1,.835,5.447Z" transform="translate(-6 -32.698)" fill="#e59730"/>
        <path id="Path_3452" data-name="Path 3452" d="M60.467,58.631a7.262,7.262,0,0,1-7.262,7.262H13.262A7.262,7.262,0,0,1,6,58.631V55H9.867a7.248,7.248,0,0,0,7.026,5.447H55.021A8.971,8.971,0,0,0,60.467,58.631Z" transform="translate(-6 -15.057)" fill="#e59730"/>
        <path id="Path_3453" data-name="Path 3453" d="M57.836,43v1.053a2.585,2.585,0,0,1-.091.763H10.086a5.552,5.552,0,0,0,1.979,1.616l1.38.708a5.962,5.962,0,0,0,5.265,0l2.923-1.471a3.769,3.769,0,0,1,3.413,0L28.9,47.593a3.769,3.769,0,0,0,3.413,0l3.849-1.925a3.769,3.769,0,0,1,3.413,0l3.849,1.925a3.769,3.769,0,0,0,3.413,0l3.849-1.925a3.769,3.769,0,0,1,3.413,0,3.813,3.813,0,0,0,3.377.018,3.847,3.847,0,0,1-3.468,2.2,3.926,3.926,0,0,1-1.724-.4,3.769,3.769,0,0,0-3.414,0l-3.849,1.925a3.769,3.769,0,0,1-3.413,0l-3.849-1.925a3.769,3.769,0,0,0-3.413,0l-3.849,1.925a3.769,3.769,0,0,1-3.413,0l-3.849-1.925a3.769,3.769,0,0,0-3.413,0l-2.923,1.471a5.962,5.962,0,0,1-5.265,0l-1.38-.708A5.828,5.828,0,0,1,7,43Z" transform="translate(-5.184 -24.844)" fill="#a1d51c"/>
      </g>
    </g>
  </g>
  <g id="Outline_copy" data-name="Outline copy" transform="translate(0 0)">
    <g id="Group_1398" data-name="Group 1398">
      <path id="Path_3454" data-name="Path 3454" d="M54.525,57.262a7.262,7.262,0,1,0-7.262,7.262A7.262,7.262,0,0,0,54.525,57.262Zm-10.893,0a3.631,3.631,0,1,1,3.631,3.631A3.631,3.631,0,0,1,43.631,57.262Z" transform="translate(23.545 37.148)" fill="#464a51"/>
      <path id="Path_3455" data-name="Path 3455" d="M70.889,52.826a1.816,1.816,0,0,0-2.044,1.552L67.28,65.865H39.816a1.816,1.816,0,0,0,0,3.631H68.865a1.816,1.816,0,0,0,1.8-1.571L72.445,54.87a1.816,1.816,0,0,0-1.556-2.044Z" transform="translate(21.914 39.439)" fill="#464a51"/>
      <path id="Path_3456" data-name="Path 3456" d="M102.593,67.982a1.816,1.816,0,0,0-1.367-.621H92.692l3.047-16a1.78,1.78,0,0,0,0-.643l.837-3.9,2.711,4.519L97.1,61.589A1.816,1.816,0,0,0,98.5,63.744a1.856,1.856,0,0,0,.383.04,1.816,1.816,0,0,0,1.772-1.434L103,51.4a1.8,1.8,0,0,0-.218-1.314l-5.447-9.078A1.816,1.816,0,0,0,94,41.553l-1.492,6.926L85.552,45.7a1.816,1.816,0,0,0-2.475,1.452L81.57,59.2l-1.211-.3-.92-11.652a1.816,1.816,0,0,0-.472-1.06l.363-4.675,1.727-.517,4.786,2.553a1.815,1.815,0,1,0,1.71-3.2l-5.447-2.9A1.816,1.816,0,0,0,80.73,37.3L77.1,38.388a1.816,1.816,0,0,0-1.289,1.594l-.225,2.807-2.128-2.13a1.816,1.816,0,0,0-2.732.194l-2.179,2.9V41.943A5.447,5.447,0,0,0,63.1,36.5H59.467V34.681a5.447,5.447,0,0,0-5.447-5.447H44.943V20.646l13.915-9.278a1.816,1.816,0,0,0,.5-2.518L55.333,2.808a1.816,1.816,0,0,0-2.518-.5L36.475,13.2a5.434,5.434,0,0,0-2.426,4.532v11.5H24.971a5.447,5.447,0,0,0-5.447,5.447V36.5H15.893a5.447,5.447,0,0,0-5.447,5.447v3.631c0,.036,1.089,9.564,1.089,9.564a1.816,1.816,0,0,0,1.8,1.61,1.583,1.583,0,0,0,.207-.013,1.816,1.816,0,0,0,1.6-2.008L14.3,47.39H28.6a1.816,1.816,0,1,0,0-3.631H14.078V41.943a1.816,1.816,0,0,1,1.816-1.816H63.1a1.816,1.816,0,0,1,1.816,1.816v1.816H35.865a1.816,1.816,0,1,0,0,3.631H65.822l-.545.726a1.816,1.816,0,0,0-.363,1.24l.545,6.545L64.8,54.046a1.816,1.816,0,0,0-1.12-1.111L58.3,51.086A1.816,1.816,0,0,0,56,52.214l-.982,2.856-1.124-2.89a1.816,1.816,0,0,0-1.685-1.158H44.943a1.816,1.816,0,0,0-1.7,2.444l1.131,3.067c-.414-.027-.822-.064-1.242-.064H24.971A19.879,19.879,0,0,0,13.96,59.783a1.816,1.816,0,0,0,2.008,3.027,16.262,16.262,0,0,1,9-2.711H43.127A16.362,16.362,0,0,1,59.366,74.623H8.733a16.24,16.24,0,0,1,2.611-7.188,1.816,1.816,0,0,0-3.028-2A19.891,19.891,0,0,0,5,76.439a1.816,1.816,0,0,0,1.816,1.816h.229A7.6,7.6,0,0,0,8.9,81.682,8.744,8.744,0,0,0,8.631,83.7a9.034,9.034,0,0,0,2.56,6.293A5.336,5.336,0,0,0,8.965,96.41H6.816A1.816,1.816,0,0,0,5,98.226v3.631a9.089,9.089,0,0,0,9.078,9.078h5.447a1.816,1.816,0,1,0,0-3.631H14.078a5.447,5.447,0,0,1-5.447-5.447v-1.816H37.17l.908,1.133a1.816,1.816,0,0,0,2.836,0l6.718-8.4h6.389a1.816,1.816,0,1,1,0,3.631H50.026a1.816,1.816,0,1,0,0,3.631h9.441v1.816a5.447,5.447,0,0,1-5.447,5.447H26.787a1.816,1.816,0,1,0,0,3.631H54.021a9.089,9.089,0,0,0,9.078-9.078V98.226a1.816,1.816,0,0,0-1.816-1.816h-2.15a5.336,5.336,0,0,0-2.226-6.416,9.034,9.034,0,0,0,2.56-6.293,8.818,8.818,0,0,0-.227-1.912,5.534,5.534,0,0,0,1.946-3.535h.1a1.73,1.73,0,0,0,.334-.067A19.971,19.971,0,0,0,75.808,83.7c9.243,0,16.894-5.554,18.014-12.709h5.323l-2.4,17.626A1.816,1.816,0,0,0,98.3,90.66a1.611,1.611,0,0,0,.245.018,1.816,1.816,0,0,0,1.8-1.571l2.683-19.686a1.816,1.816,0,0,0-.432-1.44ZM37.68,17.73a1.816,1.816,0,0,1,.808-1.511L53.318,6.334l2.015,3.021-13.214,8.8a1.816,1.816,0,0,0-.808,1.511v9.564H37.68ZM23.156,36.5V34.681a1.816,1.816,0,0,1,1.816-1.816H54.021a1.816,1.816,0,0,1,1.816,1.816V36.5Zm56.159,25.9,3.669.908-.922,15.683a17.963,17.963,0,0,1-3.722.908ZM72.372,44.708,75.866,48.2,76.7,58.57a1.591,1.591,0,0,0-.151.067A1.816,1.816,0,0,0,75.818,60L74.706,80.01a18.423,18.423,0,0,1-3.631-.577L68.6,49.75ZM47.548,54.652h3.415L52.6,58.864a19.837,19.837,0,0,0-4.109-1.643ZM55.78,83.138a4.884,4.884,0,0,1,.056.563,5.447,5.447,0,0,1-5.447,5.447H17.709a5.447,5.447,0,0,1-5.423-5.222l.167.085a7.729,7.729,0,0,0,6.879,0l2.921-1.452a2.012,2.012,0,0,1,1.8,0l3.833,1.915a5.675,5.675,0,0,0,5.055,0l3.827-1.923a2.012,2.012,0,0,1,1.8,0l3.833,1.915a5.676,5.676,0,0,0,5.055,0L51.3,82.552a2.012,2.012,0,0,1,1.8,0,5.645,5.645,0,0,0,2.678.586ZM14.078,96.41a1.816,1.816,0,1,1,0-3.631H31.36l2.9,3.631Zm25.418.726-3.484-4.357H42.98Zm17.2-17.92a1.934,1.934,0,0,1-.207.1.285.285,0,0,0-.042,0c-.024.009-.036.029-.06.038a1.955,1.955,0,0,1-1.654-.053,5.675,5.675,0,0,0-5.055,0l-3.827,1.921a2.012,2.012,0,0,1-1.8,0L40.213,79.3a5.676,5.676,0,0,0-5.055,0l-3.833,1.915a2.012,2.012,0,0,1-1.8,0L25.689,79.3a5.676,5.676,0,0,0-5.055,0l-2.919,1.452a4.08,4.08,0,0,1-3.631,0l-1.393-.686a4.02,4.02,0,0,1-1.783-1.816H57.492a1.981,1.981,0,0,1-.8.96Zm6.266-5.045a19.828,19.828,0,0,0-2.78-8.081L57.748,58.3l1.1-3.2,2.834.975,4.971,14.038.652,7.818a12.645,12.645,0,0,1-4.343-3.764Zm22.853,2.883L86.7,62.021a1.816,1.816,0,0,0-1.373-1.868l-.2-.054L86.4,49.946l5.5,2.2L87.416,75.7a12.847,12.847,0,0,1-1.6,1.356Z" transform="translate(-5 -2)" fill="#464a51"/>
      <ellipse id="Ellipse_343" data-name="Ellipse 343" cx="2" cy="1.5" rx="2" ry="1.5" transform="translate(31.204 63.513)" fill="#464a51"/>
      <ellipse id="Ellipse_344" data-name="Ellipse 344" cx="2" cy="1.5" rx="2" ry="1.5" transform="translate(24.204 62.513)" fill="#464a51"/>
      <circle id="Ellipse_345" data-name="Ellipse 345" cx="2" cy="2" r="2" transform="translate(17.204 65.513)" fill="#464a51"/>
      <ellipse id="Ellipse_346" data-name="Ellipse 346" cx="1.5" cy="2" rx="1.5" ry="2" transform="translate(45.204 65.513)" fill="#464a51"/>
      <ellipse id="Ellipse_347" data-name="Ellipse 347" cx="2" cy="1.5" rx="2" ry="1.5" transform="translate(10.204 63.513)" fill="#464a51"/>
      <ellipse id="Ellipse_348" data-name="Ellipse 348" cx="2" cy="1.5" rx="2" ry="1.5" transform="translate(38.204 62.513)" fill="#464a51"/>
    </g>
  </g>
</svg>
