<svg id="shapes" xmlns="http://www.w3.org/2000/svg" width="52.089" height="75.909" viewBox="0 0 52.089 75.909">
  <path id="Path_213" data-name="Path 213" d="M130.2,0H82.558a2.224,2.224,0,0,0-2.224,2.224V73.685a2.224,2.224,0,0,0,3.8,1.572L106.379,53.01l22.248,22.248a2.224,2.224,0,0,0,3.8-1.572V2.224A2.224,2.224,0,0,0,130.2,0Z" transform="translate(-80.334 0)" fill="#fd3018"/>
  <path id="Path_214" data-name="Path 214" d="M279.82,0H256V53.01h0l22.248,22.248a2.224,2.224,0,0,0,3.8-1.572V2.224A2.224,2.224,0,0,0,279.82,0Z" transform="translate(-229.955 0)" fill="#e61e14"/>
</svg>
