<svg xmlns="http://www.w3.org/2000/svg" width="100%" height="100%" viewBox="0 0 130 130">
  <g id="Group_1" data-name="Group 1" transform="translate(-169 -210)">
    <circle id="Ellipse_302" data-name="Ellipse 302" cx="65" cy="65" r="65" transform="translate(169 210)" fill="#3b5998"/>
    <g id="social_1_" data-name="social (1)" transform="translate(203 238)" opacity="0.2">
      <path id="Path_3169" data-name="Path 3169" d="M104.737,35.41a17.131,17.131,0,0,0,12.519-5.187A17.131,17.131,0,0,0,122.443,17.7a17.134,17.134,0,0,0-5.187-12.518,17.7,17.7,0,0,0-25.037,0A17.132,17.132,0,0,0,87.032,17.7a17.131,17.131,0,0,0,5.188,12.519A17.135,17.135,0,0,0,104.737,35.41Zm0,0" transform="translate(-74.536 0)" fill="#fff"/>
      <path id="Path_3170" data-name="Path 3170" d="M61.181,268.334a43.735,43.735,0,0,0-.6-4.645,36.6,36.6,0,0,0-1.142-4.67,23.066,23.066,0,0,0-1.92-4.355,16.435,16.435,0,0,0-2.9-3.773,12.764,12.764,0,0,0-4.159-2.613,14.372,14.372,0,0,0-5.309-.961,5.389,5.389,0,0,0-2.878,1.22c-.863.563-1.872,1.213-3,1.933a17.178,17.178,0,0,1-3.879,1.709,15.062,15.062,0,0,1-9.488,0,17.138,17.138,0,0,1-3.876-1.708c-1.116-.713-2.125-1.363-3-1.934a5.381,5.381,0,0,0-2.877-1.22,14.354,14.354,0,0,0-5.308.962A12.753,12.753,0,0,0,6.7,250.891,16.437,16.437,0,0,0,3.8,254.663a23.112,23.112,0,0,0-1.92,4.356,36.681,36.681,0,0,0-1.142,4.669,43.579,43.579,0,0,0-.6,4.647C.049,269.742,0,271.2,0,272.676a12.206,12.206,0,0,0,3.625,9.235,13.05,13.05,0,0,0,9.342,3.408h35.4a13.047,13.047,0,0,0,9.341-3.408,12.2,12.2,0,0,0,3.626-9.235c0-1.481-.05-2.942-.149-4.342Zm0,0" transform="translate(0 -211.808)" fill="#fff"/>
    </g>
  </g>
</svg>
