<svg width="33" height="33" viewBox="0 0 33 33" fill="none" xmlns="http://www.w3.org/2000/svg">
<g filter="url(#filter0_d_47_1034)">
<circle cx="16.1079" cy="16.7551" r="12" fill="#EE7623"/>
<circle cx="16.1079" cy="16.7551" r="11.5" stroke="white"/>
</g>
<path d="M17.3465 15.1545C17.9933 14.7588 18.4272 14.0479 18.4272 13.2358C18.4272 11.9952 17.4179 10.9858 16.1772 10.9858C14.9366 10.9858 13.9272 11.9952 13.9272 13.2358C13.9272 14.0479 14.3612 14.7588 15.008 15.1545C13.8804 15.6168 13.0835 16.725 13.0835 18.0171V19.7046C13.0835 20.4799 13.7144 21.1108 14.4897 21.1108H17.8647C18.6401 21.1108 19.271 20.4799 19.271 19.7046V18.0171C19.271 16.725 18.474 15.6168 17.3465 15.1545Z" fill="white"/>
<defs>
<filter id="filter0_d_47_1034" x="0.10791" y="0.755066" width="32" height="32" filterUnits="userSpaceOnUse" color-interpolation-filters="sRGB">
<feFlood flood-opacity="0" result="BackgroundImageFix"/>
<feColorMatrix in="SourceAlpha" type="matrix" values="0 0 0 0 0 0 0 0 0 0 0 0 0 0 0 0 0 0 127 0" result="hardAlpha"/>
<feOffset/>
<feGaussianBlur stdDeviation="2"/>
<feComposite in2="hardAlpha" operator="out"/>
<feColorMatrix type="matrix" values="0 0 0 0 0 0 0 0 0 0 0 0 0 0 0 0 0 0 0.3 0"/>
<feBlend mode="normal" in2="BackgroundImageFix" result="effect1_dropShadow_47_1034"/>
<feBlend mode="normal" in="SourceGraphic" in2="effect1_dropShadow_47_1034" result="shape"/>
</filter>
</defs>
</svg>
