<svg xmlns="http://www.w3.org/2000/svg" width="31.551" height="22.29" viewBox="0 0 31.551 22.29">
  <g id="Group_711" data-name="Group 711" transform="translate(-1533.751 -2071.08)">
    <circle id="Ellipse_248" data-name="Ellipse 248" cx="2.701" cy="2.701" r="2.701" transform="translate(1547.034 2071.08)" fill="#474747"/>
    <circle id="Ellipse_249" data-name="Ellipse 249" cx="2.701" cy="2.701" r="2.701" transform="translate(1533.751 2074.156)" fill="#474747"/>
    <circle id="Ellipse_250" data-name="Ellipse 250" cx="2.701" cy="2.701" r="2.701" transform="translate(1559.899 2073.946)" fill="#474747"/>
    <path id="Rectangle_406" data-name="Rectangle 406" d="M0,0H21.094a0,0,0,0,1,0,0V0A3.454,3.454,0,0,1,17.64,3.454H3.454A3.454,3.454,0,0,1,0,0V0A0,0,0,0,1,0,0Z" transform="translate(1539.172 2089.916)" fill="#474747"/>
    <path id="Path_544" data-name="Path 544" d="M1615.843,2164.343l-2.11,1.241a1.7,1.7,0,0,1-2.1-.294l-1.849-1.945a4.312,4.312,0,0,0-3.056-1.339h-.057a4.312,4.312,0,0,0-3.056,1.339l-1.849,1.945a1.7,1.7,0,0,1-2.1.294l-2.11-1.241a1.7,1.7,0,0,0-2.533,1.787l1.263,6.571h2.842v-.893a2.524,2.524,0,1,1,5.049,0v.893h5.035v-.893a2.524,2.524,0,1,1,5.049,0v.893h2.843l1.263-6.571A1.7,1.7,0,0,0,1615.843,2164.343Z" transform="translate(-56.967 -84.568)" fill="#474747"/>
  </g>
</svg>
