<svg aria-haspopup="true" height="11px" width="11px"
                    viewBox="0 0 14.591 12.385" xmlns="http://www.w3.org/2000/svg">
                    <path
                        d="M684.311,713.443h-1.469l2.146-2.169a3.777,3.777,0,0,0-.023-5.329l-.131-.132a3.77,3.77,0,0,0-5.2.153l-.875.884-.882-.875a3.77,3.77,0,0,0-5.3,5.357l5.76,5.7a.675.675,0,0,0,.953,0l.455-.459-6.222-6.2a2.421,2.421,0,0,1,.074-3.425,2.485,2.485,0,0,1,3.334-.017l1.842,1.823,1.822-1.842a2.422,2.422,0,0,1,3.441,3.407l-2.1,2.121v-.005l-.011.01.011-1.387a.709.709,0,0,0-.733-.678h0a.7.7,0,0,0-.678.678v3.088a.678.678,0,0,0,.1.356.782.782,0,0,0,.1.131l.139.113a.708.708,0,0,0,.367.1h3.087a.707.707,0,0,0,0-1.413Z"
                        data-name="Path 3805" fill="white" id="Path_3805" transform="translate(-671.485 -704.848)">
                    </path>
                </svg>