<svg xmlns="http://www.w3.org/2000/svg" width="18.412" height="20.418" viewBox="0 0 18.412 20.418">
  <g id="Group_1212" data-name="Group 1212" transform="translate(-39.993 -360.215)" opacity="0.13">
    <g id="Group_390" data-name="Group 390" transform="translate(47.801 367.8)">
      <g id="Group_389" data-name="Group 389" transform="translate(0)">
        <path id="Path_251" data-name="Path 251" d="M207.369,522.246h-3.923v-3.923a.723.723,0,0,0-1.446,0v4.646a.723.723,0,0,0,.723.723h4.646a.723.723,0,0,0,0-1.446Z" transform="translate(-202 -517.6)"/>
      </g>
    </g>
    <path id="Path_252" data-name="Path 252" d="M372.57,612.674c-.018.109-.01.066,0,0Z" transform="translate(-316.538 -240.292)" fill="#111"/>
    <path id="Path_253" data-name="Path 253" d="M58.378,370.786a10.4,10.4,0,0,0-.241-1.559,1.167,1.167,0,0,0-1.423-.808,1.181,1.181,0,0,0-.808,1.423c.048.2.087.41.124.618.005.028.018.178.005.026s0,.032.007.072q.02.183.031.366a8.17,8.17,0,0,1-.006,1.117q-.009.117-.021.233c0,.027-.009.072-.015.109l.02-.12c-.026.151-.047.3-.077.454a7.982,7.982,0,0,1-.239.911q-.07.214-.152.424l-.008.021c-.033.066-.059.136-.09.2a8.054,8.054,0,0,1-.44.81q-.117.188-.244.37-.063.091-.129.18l-.012.017c-.189.226-.38.448-.589.657s-.445.4-.671.6h0q-.089.066-.18.129-.195.136-.4.26a8.041,8.041,0,0,1-.812.437c-.057.026-.118.049-.174.077q-.235.092-.475.17a8,8,0,0,1-.88.229c-.13.026-.261.045-.392.067l-.051.006q-.133.014-.266.023a8.13,8.13,0,0,1-.979.01q-.234-.012-.467-.037l-.047-.005-.2-.033a8,8,0,0,1-.887-.212q-.216-.065-.429-.142-.106-.038-.21-.08l-.038-.016a9.125,9.125,0,0,1-1.545-.906l-.01-.008c-.057-.047-.114-.093-.17-.141q-.168-.143-.328-.3a8.107,8.107,0,0,1-.624-.667c-.041-.049-.08-.106-.124-.154l-.007-.009q-.14-.191-.269-.39a8.029,8.029,0,0,1-.455-.8q-.05-.1-.1-.2l-.049-.111-.034-.084q-.046-.12-.089-.241a8.006,8.006,0,0,1-.25-.872q-.051-.224-.088-.45l-.011-.07c-.006-.054-.018-.152-.021-.181a8.167,8.167,0,0,1-.034-.977q.006-.235.025-.47.01-.116.023-.232l0-.021a8,8,0,0,1,.2-.926c.079-.285.178-.562.284-.837l0-.005c.031-.068.062-.136.094-.2q.1-.215.219-.424a8.08,8.08,0,0,1,.491-.776l.068-.092c.02-.025.039-.052.058-.075q.15-.183.31-.358a8.1,8.1,0,0,1,.655-.637l.144-.122.123-.1.042-.031q.1-.074.207-.146a8.041,8.041,0,0,1,.788-.473q.2-.1.4-.2l.028-.012c.067-.025.132-.055.2-.08a8.016,8.016,0,0,1,.895-.278q.206-.051.415-.091.113-.022.227-.04l.05-.008.155-.014-.633,1.292a.752.752,0,0,0,.954,1.029l4-1.6a.494.494,0,0,0,.275-.642l-1.59-3.972a.752.752,0,0,0-1.4.011l-.594,1.553a1.134,1.134,0,0,0-.228-.022,9.331,9.331,0,0,0-7.528,3.914,9.2,9.2,0,0,0-1.167,8.313A9.193,9.193,0,0,0,55,378.571,9.18,9.18,0,0,0,58.378,370.786Zm-11.937,6.976-.008,0Z" transform="translate(0)" fill="#111"/>
  </g>
</svg>
