<svg xmlns="http://www.w3.org/2000/svg" width="16.334" height="16.773" viewBox="0 0 16.334 16.773">
  <g id="tools-and-utensils" transform="translate(-6.71)" opacity="0.34">
    <g id="Group_401" data-name="Group 401" transform="translate(6.71)">
      <path id="Path_265" data-name="Path 265" d="M22.761,10.225,21.219,9.019a6.071,6.071,0,0,0,.036-.633,5.887,5.887,0,0,0-.036-.633l1.543-1.206a.756.756,0,0,0,.182-.963l-1.6-2.774a.743.743,0,0,0-.927-.333l-1.819.73A6.237,6.237,0,0,0,17.5,2.573L17.226.643A.742.742,0,0,0,16.485,0H13.27a.74.74,0,0,0-.739.637l-.277,1.937a6.43,6.43,0,0,0-1.09.634L9.339,2.475a.758.758,0,0,0-.92.328L6.813,5.581a.751.751,0,0,0,.182.968L8.537,7.754a5.53,5.53,0,0,0,0,1.266L6.994,10.226a.756.756,0,0,0-.182.963l1.6,2.774a.742.742,0,0,0,.927.333l1.819-.73a6.292,6.292,0,0,0,1.092.634l.277,1.929a.742.742,0,0,0,.741.644h3.215a.741.741,0,0,0,.74-.637L17.5,14.2a6.46,6.46,0,0,0,1.09-.635l1.824.732a.751.751,0,0,0,.274.052.738.738,0,0,0,.646-.379l1.61-2.789A.754.754,0,0,0,22.761,10.225Zm-7.883.957a2.8,2.8,0,1,1,2.8-2.8A2.8,2.8,0,0,1,14.878,11.182Z" transform="translate(-6.71)"/>
    </g>
  </g>
</svg>
