<svg xmlns="http://www.w3.org/2000/svg" width="21.163" height="20.279" viewBox="0 0 21.163 20.279">
  <g id="settings_1_" data-name="settings (1)" transform="translate(0 -10.668)">
    <g id="Group_2597" data-name="Group 2597" transform="translate(0 24.776)">
      <g id="Group_2596" data-name="Group 2596">
        <path id="Path_3578" data-name="Path 3578" d="M20.281,354.2H17.933a3.066,3.066,0,0,0-5.885,0H.882a.882.882,0,0,0,0,1.764H12.048a3.066,3.066,0,0,0,5.885,0h2.348a.882.882,0,0,0,0-1.764Zm-5.291,2.2a1.323,1.323,0,1,1,1.323-1.323A1.324,1.324,0,0,1,14.99,356.409Z" transform="translate(0 -352)" fill="#4d4d4d"/>
      </g>
    </g>
    <g id="Group_2599" data-name="Group 2599" transform="translate(0 10.667)">
      <g id="Group_2598" data-name="Group 2598" transform="translate(0 0)">
        <path id="Path_3579" data-name="Path 3579" d="M20.281,12.871H17.933a3.066,3.066,0,0,0-5.885,0H.882a.882.882,0,0,0,0,1.764H12.048a3.066,3.066,0,0,0,5.885,0h2.348a.882.882,0,0,0,0-1.764Zm-5.291,2.2a1.323,1.323,0,1,1,1.323-1.323A1.324,1.324,0,0,1,14.99,15.076Z" transform="translate(0 -10.667)" fill="#4d4d4d"/>
      </g>
    </g>
    <g id="Group_2601" data-name="Group 2601" transform="translate(0 17.721)">
      <g id="Group_2600" data-name="Group 2600" transform="translate(0 0)">
        <path id="Path_3580" data-name="Path 3580" d="M20.281,183.538H9.115a3.066,3.066,0,0,0-5.885,0H.882a.882.882,0,1,0,0,1.764H3.23a3.066,3.066,0,0,0,5.885,0H20.281a.882.882,0,0,0,0-1.764Zm-14.109,2.2A1.323,1.323,0,1,1,7.5,184.42,1.324,1.324,0,0,1,6.173,185.743Z" transform="translate(0 -181.334)" fill="#4d4d4d"/>
      </g>
    </g>
  </g>
</svg>
