<svg xmlns="http://www.w3.org/2000/svg" width="17.474" height="17.474" viewBox="0 0 17.474 17.474">
  <path id="social-media" d="M15.426,7.2a2.045,2.045,0,0,0-1.851,1.185l-2.29-.564c0-.037.011-.072.011-.11a2.534,2.534,0,0,0-.569-1.589l2.6-3.152a1.519,1.519,0,0,0,.53.1A1.536,1.536,0,1,0,12.32,1.536a1.519,1.519,0,0,0,.22.779l-2.6,3.153a2.459,2.459,0,0,0-2.408,0L5.746,3.29a2.028,2.028,0,0,0,.431-1.242A2.053,2.053,0,1,0,4.942,3.925l1.8,2.2A2.506,2.506,0,0,0,6.4,8.752L3.45,10.836A2.042,2.042,0,1,0,4.1,12.32a2.022,2.022,0,0,0-.1-.613L7,9.582a2.543,2.543,0,0,0,1.736.69c.066,0,.128-.015.193-.02l1.029,3.635a2,2,0,1,0,.931-.469L9.915,9.972a2.561,2.561,0,0,0,1.122-1.156l2.356.58A2.043,2.043,0,1,0,15.426,7.2Zm0,0" fill="#e65857"/>
</svg>
