<svg id="tag_1_" data-name="tag (1)" xmlns="http://www.w3.org/2000/svg" width="20.16" height="18.014" viewBox="0 0 20.16 18.014">
  <g id="Group_90" data-name="Group 90" transform="translate(0 0)">
    <g id="Group_89" data-name="Group 89" transform="translate(0 0)">
      <path id="Path_146" data-name="Path 146" d="M15.725,23.224H9.535a1.479,1.479,0,0,0-1.045.433L.433,31.713a1.479,1.479,0,0,0,0,2.091l6.19,6.19a1.478,1.478,0,0,0,2.09,0l8.057-8.056a1.482,1.482,0,0,0,.433-1.047V24.7A1.478,1.478,0,0,0,15.725,23.224ZM13.138,28.4a1.109,1.109,0,1,1,1.109-1.109A1.109,1.109,0,0,1,13.138,28.4Z" transform="translate(0 -23.224)" fill="#343434"/>
    </g>
  </g>
  <g id="Group_92" data-name="Group 92" transform="translate(10.117 1.478)">
    <g id="Group_91" data-name="Group 91" transform="translate(0 0)">
      <path id="Path_147" data-name="Path 147" d="M227.553,55.224V62.1a1.284,1.284,0,0,1-.377.909L218.988,71.2l.126.126a1.478,1.478,0,0,0,2.09,0l7.393-7.392a1.476,1.476,0,0,0,.434-1.045V56.7A1.478,1.478,0,0,0,227.553,55.224Z" transform="translate(-218.988 -55.224)" fill="#343434"/>
    </g>
  </g>
</svg>
