<svg xmlns="http://www.w3.org/2000/svg" width="78.566" height="96.194" viewBox="0 0 78.566 96.194">
  <g id="trash" transform="translate(0 0)">
    <path id="Path_3396" data-name="Path 3396" d="M78.322,21.5,76.2,15.134a5.923,5.923,0,0,0-5.625-4.054H52.722V5.268A5.273,5.273,0,0,0,47.456,0H31.109a5.274,5.274,0,0,0-5.266,5.269V11.08H7.993a5.924,5.924,0,0,0-5.626,4.054L.243,21.5a4.767,4.767,0,0,0,4.521,6.274h2.22L11.871,88.2a8.742,8.742,0,0,0,8.663,8H59.023a8.741,8.741,0,0,0,8.662-8l4.886-60.422H73.8A4.766,4.766,0,0,0,78.322,21.5ZM31.48,5.636H47.085V11.08H31.48ZM62.067,87.743a3.074,3.074,0,0,1-3.044,2.815H20.534a3.074,3.074,0,0,1-3.044-2.815l-4.85-59.968H66.917ZM5.973,22.139l1.742-5.221a.293.293,0,0,1,.279-.2H70.573a.294.294,0,0,1,.279.2l1.742,5.221Zm0,0" transform="translate(0 0)" fill="#858585"/>
    <path id="Path_3397" data-name="Path 3397" d="M270.968,222.012c.05,0,.1,0,.149,0a2.817,2.817,0,0,0,2.812-2.671l2.646-50.8a2.818,2.818,0,0,0-5.629-.294l-2.646,50.8a2.818,2.818,0,0,0,2.668,2.961Zm0,0" transform="translate(-217.889 -134.468)" fill="#858585"/>
    <path id="Path_3398" data-name="Path 3398" d="M108.569,219.353a2.818,2.818,0,0,0,2.812,2.665c.051,0,.1,0,.156,0a2.818,2.818,0,0,0,2.66-2.967l-2.772-50.8a2.818,2.818,0,1,0-5.628.307Zm0,0" transform="translate(-85.917 -134.471)" fill="#858585"/>
    <path id="Path_3399" data-name="Path 3399" d="M197.072,222.018a2.818,2.818,0,0,0,2.818-2.818V168.4a2.818,2.818,0,0,0-5.636,0v50.8A2.818,2.818,0,0,0,197.072,222.018Zm0,0" transform="translate(-157.758 -134.47)" fill="#858585"/>
  </g>
</svg>
