<svg xmlns="http://www.w3.org/2000/svg" width="37.962" height="30.845" viewBox="0 0 37.962 30.845">
  <path id="brands-and-logotypes" d="M37.962,51.652a16.226,16.226,0,0,1-4.484,1.229,7.739,7.739,0,0,0,3.424-4.3,15.553,15.553,0,0,1-4.935,1.884A7.782,7.782,0,0,0,18.5,55.785a8.014,8.014,0,0,0,.18,1.775A22.029,22.029,0,0,1,2.643,49.419a7.785,7.785,0,0,0,2.392,10.4,7.686,7.686,0,0,1-3.516-.959v.085a7.818,7.818,0,0,0,6.235,7.647,7.767,7.767,0,0,1-2.04.256,6.881,6.881,0,0,1-1.473-.133,7.857,7.857,0,0,0,7.272,5.421,15.638,15.638,0,0,1-9.65,3.319A14.579,14.579,0,0,1,0,75.352a21.91,21.91,0,0,0,11.939,3.493C26.26,78.844,34.09,66.981,34.09,56.7c0-.344-.012-.676-.028-1.006A15.526,15.526,0,0,0,37.962,51.652Z" transform="translate(0 -48)" fill="#F8F7F2"/>
</svg>
