<svg xmlns="http://www.w3.org/2000/svg" width="35.254" height="35.205" viewBox="0 0 35.254 35.205">
  <g id="direction" transform="translate(0 -0.358)">
    <g id="Group_1202" data-name="Group 1202" transform="translate(0 21.86)">
      <g id="Group_1201" data-name="Group 1201">
        <path id="Path_3171" data-name="Path 3171" d="M32.5,312.642v9.571a1.379,1.379,0,0,1-1.377,1.377H4.131a1.379,1.379,0,0,1-1.377-1.377v-9.571H0v9.571a4.136,4.136,0,0,0,4.131,4.131H31.122a4.136,4.136,0,0,0,4.131-4.131v-9.571Z" transform="translate(0 -312.642)"/>
      </g>
    </g>
    <g id="Group_1204" data-name="Group 1204" transform="translate(9.069 0.358)">
      <g id="Group_1203" data-name="Group 1203" transform="translate(0 0)">
        <path id="Path_3172" data-name="Path 3172" d="M140.274.358l-8.558,8.558,1.947,1.947L138.9,5.63V27.093h2.754V5.63l5.233,5.233,1.947-1.947Z" transform="translate(-131.716 -0.358)"/>
      </g>
    </g>
  </g>
</svg>
