<svg id="user_3_" data-name="user (3)" xmlns="http://www.w3.org/2000/svg" width="30.332" height="36.356" viewBox="0 0 30.332 36.356">
  <path id="Path_136" data-name="Path 136" d="M95.788,17.513a8.472,8.472,0,0,0,6.191-2.565,8.473,8.473,0,0,0,2.565-6.191,8.474,8.474,0,0,0-2.565-6.191,8.754,8.754,0,0,0-12.382,0,8.473,8.473,0,0,0-2.565,6.191A8.473,8.473,0,0,0,89.6,14.948,8.474,8.474,0,0,0,95.788,17.513Zm0,0" transform="translate(-80.852 0)" fill="#464646"/>
  <path id="Path_137" data-name="Path 137" d="M30.258,257.711a21.629,21.629,0,0,0-.295-2.3,18.1,18.1,0,0,0-.565-2.31,11.407,11.407,0,0,0-.949-2.154,8.126,8.126,0,0,0-1.432-1.866,6.312,6.312,0,0,0-2.057-1.292,7.107,7.107,0,0,0-2.626-.475,2.665,2.665,0,0,0-1.423.6c-.427.278-.926.6-1.483.956a8.5,8.5,0,0,1-1.918.845,7.449,7.449,0,0,1-4.693,0,8.472,8.472,0,0,1-1.917-.845c-.552-.353-1.051-.674-1.484-.956a2.661,2.661,0,0,0-1.423-.6,7.1,7.1,0,0,0-2.625.476,6.308,6.308,0,0,0-2.057,1.292,8.129,8.129,0,0,0-1.431,1.866A11.431,11.431,0,0,0,.932,253.1a18.144,18.144,0,0,0-.565,2.309,21.553,21.553,0,0,0-.295,2.3c-.048.7-.073,1.418-.073,2.147a6.037,6.037,0,0,0,1.793,4.567,6.454,6.454,0,0,0,4.62,1.685H23.918a6.453,6.453,0,0,0,4.62-1.685,6.034,6.034,0,0,0,1.793-4.568c0-.733-.025-1.455-.074-2.147Zm0,0" transform="translate(0 -229.755)" fill="#464646"/>
</svg>
