<svg xmlns="http://www.w3.org/2000/svg" width="25.973" height="18.186" viewBox="0 0 25.973 18.186">
  <path id="youtube" d="M25.439-3.236A3.254,3.254,0,0,0,23.15-5.526c-2.033-.556-10.163-.556-10.163-.556s-8.13,0-10.162.535A3.32,3.32,0,0,0,.536-3.236,34.287,34.287,0,0,0,0,3.011,34.161,34.161,0,0,0,.536,9.258a3.254,3.254,0,0,0,2.289,2.289c2.054.556,10.163.556,10.163.556s8.13,0,10.162-.535a3.254,3.254,0,0,0,2.289-2.289,34.3,34.3,0,0,0,.535-6.247,32.547,32.547,0,0,0-.535-6.269ZM10.4,6.9V-.883l6.761,3.894Zm0,0" transform="translate(-0.001 6.082)" fill="#343434"/>
</svg>
