<?xml version="1.0" encoding="utf-8"?>
<!-- Generator: Adobe Illustrator 28.1.0, SVG Export Plug-In . SVG Version: 6.00 Build 0)  -->
<svg version="1.1" id="Layer_1" xmlns="http://www.w3.org/2000/svg" xmlns:xlink="http://www.w3.org/1999/xlink" x="0px" y="0px"
	 viewBox="0 0 32 32" style="enable-background:new 0 0 32 32;" xml:space="preserve">
<style type="text/css">
	.st0{fill:#A4C4FA;}
	.st1{fill:#4281EF;}
	.st2{fill:#C2DBF9;}
	.st3{fill:#4D4D4D;}
	.st4{fill:#F2F2F2;}
	.st5{fill:#ABC9F4;}
</style>
<path class="st0" d="M25.3,28.7H7.1c-0.6,0-1-0.4-1-1V3.3c0-0.6,0.4-1,1-1h13.8l5.4,5.4v19.9C26.3,28.2,25.9,28.7,25.3,28.7z"/>
<path class="st0" d="M25.3,28.7H7.1c-0.6,0-1-0.4-1-1V3.3c0-0.6,0.4-1,1-1h13.8l5.4,5.4v19.9C26.3,28.2,25.9,28.7,25.3,28.7z"/>
<path class="st1" d="M26.3,7.7h-4.4c-0.6,0-1-0.4-1-1V2.3L26.3,7.7z"/>
<path class="st1" d="M26.3,7.7h-4.4c-0.6,0-1-0.4-1-1V2.3L26.3,7.7z"/>
<path class="st2" d="M22.6,13H9.9C9.4,13,9,12.6,9,12.1l0,0c0-0.5,0.4-0.9,0.9-0.9h12.6c0.5,0,0.9,0.4,0.9,0.9l0,0
	C23.5,12.6,23.1,13,22.6,13z"/>
<path class="st2" d="M22.6,13H9.9C9.4,13,9,12.6,9,12.1l0,0c0-0.5,0.4-0.9,0.9-0.9h12.6c0.5,0,0.9,0.4,0.9,0.9l0,0
	C23.5,12.6,23.1,13,22.6,13z"/>
<path class="st2" d="M22.6,17.5H9.9c-0.5,0-0.9-0.4-0.9-0.9l0,0c0-0.5,0.4-0.9,0.9-0.9h12.6c0.5,0,0.9,0.4,0.9,0.9l0,0
	C23.5,17.1,23.1,17.5,22.6,17.5z"/>
<path class="st2" d="M22.6,17.5H9.9c-0.5,0-0.9-0.4-0.9-0.9l0,0c0-0.5,0.4-0.9,0.9-0.9h12.6c0.5,0,0.9,0.4,0.9,0.9l0,0
	C23.5,17.1,23.1,17.5,22.6,17.5z"/>
<path class="st2" d="M22.6,22.1H9.9c-0.5,0-0.9-0.4-0.9-0.9l0,0c0-0.5,0.4-0.9,0.9-0.9h12.6c0.5,0,0.9,0.4,0.9,0.9l0,0
	C23.5,21.7,23.1,22.1,22.6,22.1z"/>
<path class="st2" d="M22.6,22.1H9.9c-0.5,0-0.9-0.4-0.9-0.9l0,0c0-0.5,0.4-0.9,0.9-0.9h12.6c0.5,0,0.9,0.4,0.9,0.9l0,0
	C23.5,21.7,23.1,22.1,22.6,22.1z"/>
<g>
	<path class="st3" d="M21.8,25.3l4.6,4.6c0.5,0.5,1.3,0.4,1.9-0.1c0.5-0.5,0.6-1.4,0.1-1.9l-4.6-4.6L21.8,25.3z"/>
	<circle class="st4" cx="19.2" cy="20.8" r="6.1"/>
	<circle class="st5" cx="19.2" cy="20.8" r="4.6"/>
	<path class="st2" d="M16,24c0.6,0.6,1.2,1,2,1.2c0.1-0.1,0.3-0.2,0.4-0.3c1.8-1.8,1.8-4.7,0-6.5c-0.6-0.6-1.2-1-2-1.2
		c-0.1,0.1-0.3,0.2-0.4,0.3C14.2,19.4,14.2,22.3,16,24z"/>
</g>
<g>
	<path class="st3" d="M21.8,25.3l4.6,4.6c0.5,0.5,1.3,0.4,1.9-0.1c0.5-0.5,0.6-1.4,0.1-1.9l-4.6-4.6L21.8,25.3z"/>
	<circle class="st4" cx="19.2" cy="20.8" r="6.1"/>
	<circle class="st5" cx="19.2" cy="20.8" r="4.6"/>
	<path class="st2" d="M16,24c0.6,0.6,1.2,1,2,1.2c0.1-0.1,0.3-0.2,0.4-0.3c1.8-1.8,1.8-4.7,0-6.5c-0.6-0.6-1.2-1-2-1.2
		c-0.1,0.1-0.3,0.2-0.4,0.3C14.2,19.4,14.2,22.3,16,24z"/>
</g>
</svg>
