<svg xmlns="http://www.w3.org/2000/svg" width="51" height="49" viewBox="0 0 51 49" fill="none">
  <path d="M41.238 34.456C41.238 34.7543 41.1151 35.04 40.8966 35.2511C40.6781 35.4619 40.3816 35.5802 40.0727 35.5802H36.7928V38.7443C36.7928 39.3654 36.271 39.8685 35.6276 39.8685C34.9841 39.8685 34.4623 39.3654 34.4623 38.7443V35.5802H31.1804C30.5369 35.5802 30.0151 35.0771 30.0151 34.456C30.0151 33.8352 30.5369 33.3317 31.1804 33.3317H34.4623V30.1667C34.4623 29.5459 34.9841 29.0424 35.6276 29.0424C36.271 29.0424 36.7928 29.5459 36.7928 30.1667V33.3317H40.0727C40.3816 33.3317 40.6781 33.4503 40.8966 33.6611C41.1151 33.8719 41.238 34.158 41.238 34.456ZM39.1172 38.5815C39.3962 38.3572 39.6537 38.1088 39.8861 37.8397H39.1172V38.5815ZM41.238 15.4897V31.2965C40.8657 31.1603 40.4707 31.0916 40.0727 31.0941H39.1172V30.1723C39.1182 29.2773 38.7505 28.4188 38.0947 27.7861C37.4386 27.1534 36.5487 26.7983 35.6214 26.7995C34.8554 26.7901 34.1115 27.0452 33.5237 27.5191L31.0068 25.563C30.3901 25.0727 29.6156 24.8039 28.8161 24.8039C28.0167 24.8039 27.2422 25.0724 26.6254 25.5627L13.0617 36.0856C13.6957 37.0445 14.7959 37.6223 15.9749 37.6148H29.9581C30.3421 37.7691 30.7543 37.8457 31.1701 37.8397H32.1257V38.739C32.1231 39.123 32.1943 39.5041 32.3354 39.8632H15.975C14.8276 39.8598 13.7065 39.5292 12.7526 38.9134C11.799 38.2973 11.0554 37.4231 10.6148 36.4005C10.5742 36.3378 10.5427 36.2694 10.5215 36.1982C10.5036 36.1803 10.4952 36.1555 10.4984 36.1307C10.2617 35.5275 10.1434 34.887 10.1486 34.242V15.4897C10.1493 13.9991 10.7634 12.5697 11.8559 11.5157C12.9483 10.4614 14.43 9.86917 15.9749 9.86853H35.4116C36.9566 9.86916 38.4383 10.4614 39.5307 11.5157C40.6231 12.5697 41.2373 13.9991 41.238 15.4897ZM23.2462 19.3345C23.2524 18.373 22.8619 17.449 22.1609 16.7654C21.46 16.0822 20.506 15.6961 19.5095 15.692C18.513 15.6879 17.5558 16.0666 16.849 16.7444C16.1425 17.4219 15.7439 18.3432 15.7419 19.3044C15.7399 20.2658 16.1343 21.1887 16.8379 21.8691C17.5418 22.5498 18.4974 22.9321 19.4939 22.9321C20.4852 22.9327 21.4366 22.5548 22.1398 21.8803C22.8427 21.2062 23.2407 20.2909 23.2462 19.3345Z" fill="#525252"/>
</svg>