<svg xmlns="http://www.w3.org/2000/svg" width="13" height="13" viewBox="0 0 13 13" fill="none">
  <path d="M12.4169 0.766357H1.13977C1.0439 0.766357 0.95197 0.804438 0.884185 0.872222C0.816401 0.940007 0.77832 1.03194 0.77832 1.1278V12.4049C0.77832 12.5008 0.816401 12.5927 0.884185 12.6605C0.95197 12.7283 1.0439 12.7664 1.13977 12.7664H12.4169C12.5127 12.7664 12.6047 12.7283 12.6725 12.6605C12.7402 12.5927 12.7783 12.5008 12.7783 12.4049V1.1278C12.7783 1.03194 12.7402 0.940007 12.6725 0.872222C12.6047 0.804438 12.5127 0.766357 12.4169 0.766357ZM12.0554 6.40491H7.13977V1.48925H12.0554V6.40491ZM6.41687 1.48925V6.40491H1.50121V1.48925H6.41687ZM1.50121 7.1278H6.41687V12.0435H1.50121V7.1278ZM7.13977 12.0435V7.1278H12.0554V12.0435H7.13977Z" fill="#525252"/>
</svg>