<svg width="13" height="13" viewBox="0 0 13 13" fill="none" xmlns="http://www.w3.org/2000/svg">
<g id="border-all">
<path id="Vector" d="M0.889648 1.23913V6.51624H6.5282V0.877686H1.25109C1.15523 0.877686 1.0633 0.915766 0.995513 0.983551C0.927729 1.05133 0.889648 1.14327 0.889648 1.23913Z" fill="white"/>
<path id="Vector_2" d="M12.3054 0.877686H7.02832V6.51624H12.6669V1.23913C12.6669 1.14327 12.6288 1.05133 12.561 0.983551C12.4932 0.915766 12.4013 0.877686 12.3054 0.877686Z" fill="white"/>
<path id="Vector_3" d="M0.889648 12.2933C0.889648 12.3892 0.927729 12.4811 0.995513 12.5489C1.0633 12.6167 1.15523 12.6548 1.25109 12.6548H6.5282V7.01624H0.889648V12.2933Z" fill="white"/>
<path id="Vector_4" d="M7.02832 12.6548H12.3054C12.4013 12.6548 12.4932 12.6167 12.561 12.5489C12.6288 12.4811 12.6669 12.3892 12.6669 12.2933V7.01624H7.02832V12.6548Z" fill="white"/>
</g>
</svg>
