<svg xmlns="http://www.w3.org/2000/svg" width="41" height="41" viewBox="0 0 41 41" fill="none">
<circle cx="20.5067" cy="20.4701" r="19.704" fill="black" fill-opacity="0.75"/>
<path fill-rule="evenodd" clip-rule="evenodd" d="M14.6928 27.1558L20.5109 21.3377L26.3217 27.1484C26.6352 27.4619 27.1436 27.4619 27.4571 27.1484C27.7706 26.8349 27.7706 26.3265 27.4571 26.013L21.6463 20.2023L27.2237 14.6249C27.5372 14.3114 27.5372 13.803 27.2237 13.4895C26.9102 13.176 26.4018 13.176 26.0883 13.4895L20.5109 19.0669L14.7002 13.2561C14.3867 12.9426 13.8783 12.9426 13.5648 13.2561C13.2513 13.5696 13.2513 14.078 13.5648 14.3915L19.3755 20.2023L13.5574 26.0204C13.2439 26.3339 13.2439 26.8423 13.5574 27.1558C13.8709 27.4693 14.3793 27.4693 14.6928 27.1558Z" fill="white"/>
</svg>