<svg xmlns="http://www.w3.org/2000/svg" width="25" height="25" viewBox="0 0 25 25" fill="none">
  <path fill-rule="evenodd" clip-rule="evenodd" d="M13.3883 12.7557V16.8556C13.3883 17.0765 13.2092 17.2557 12.9883 17.2557C12.7674 17.2557 12.5882 17.0765 12.5882 16.8556V12.7557H8.49351C8.27261 12.7557 8.09347 12.5766 8.09347 12.3556C8.09347 12.1347 8.2726 11.9556 8.49351 11.9556H12.5882V8.02533C12.5882 7.80442 12.7674 7.62528 12.9883 7.62528C13.2092 7.62528 13.3883 7.80441 13.3883 8.02533V11.9556H17.483C17.704 11.9556 17.8831 12.1347 17.8831 12.3556C17.8831 12.5766 17.704 12.7557 17.483 12.7557H13.3883ZM12.9883 21.5204C17.9589 21.5204 21.9883 17.491 21.9883 12.5204C21.9883 7.54978 17.9589 3.52039 12.9883 3.52039C8.01768 3.52039 3.98828 7.54978 3.98828 12.5204C3.98828 17.491 8.01768 21.5204 12.9883 21.5204Z" fill="white"/>
</svg>