<svg xmlns="http://www.w3.org/2000/svg" width="37" height="19" viewBox="0 0 37 19" fill="none">
  <path d="M1.45864 7.34804C0.662225 8.18238 0.662225 9.4718 1.45864 10.2682L9.46067 18.2702C9.87784 18.6874 10.4088 18.877 10.9018 18.877C11.4327 18.877 11.9637 18.6874 12.3429 18.2702L13.822 16.8291L4.34089 7.34804C3.54448 6.55163 2.25505 6.55163 1.45864 7.34804Z" fill="#525252"/>
  <path d="M20.6485 10.0407L26.5647 4.08657C27.3991 3.29016 27.3991 1.96281 26.5647 1.1664C25.7683 0.369989 24.441 0.369989 23.6445 1.1664L17.6904 7.12052L20.6485 10.0407Z" fill="#525252"/>
  <path d="M36.273 1.1664C35.4766 0.369989 34.1872 0.369989 33.3528 1.1664L20.6103 13.909L14.0494 7.34807C13.253 6.55166 11.9635 6.55166 11.1292 7.34807C10.2949 8.14448 10.3328 9.43391 11.1292 10.2682L19.1312 18.2703C19.5484 18.6874 20.0414 18.8771 20.5724 18.8771C21.1033 18.8771 21.6342 18.6874 22.0135 18.2703L36.1972 4.08657C37.0694 3.29016 37.0694 2.00074 36.273 1.1664Z" fill="#525252"/>
</svg>