<svg width="13" height="11" viewBox="0 0 13 11" fill="none" xmlns="http://www.w3.org/2000/svg">
<g id="Group">
<path id="Vector" d="M4.33947 10.8435H1.59824C1.15769 10.8435 0.77832 10.4763 0.77832 10.0603V4.72465C0.77832 4.30857 1.13321 3.8313 1.59824 3.8313H4.33947C4.69437 3.8313 5.03702 4.11276 5.03702 4.72465V10.0603C5.03702 10.5987 4.68213 10.8435 4.33947 10.8435ZM1.78181 9.83998H4.03353V4.83479H1.78181V9.83998Z" fill="#525252"/>
<path id="Vector_2" d="M10.0666 10.3418H9.54036C9.25889 10.3418 9.03861 10.1215 9.03861 9.84001C9.03861 9.55855 9.25889 9.33827 9.54036 9.33827H10.0666C10.091 9.33827 10.5928 9.33827 10.6907 9.06904C10.8375 8.67744 11.425 6.41348 11.7676 4.99391C11.7798 4.87153 11.6575 4.47993 11.5351 4.33308H8.54911C8.26764 4.33308 8.04736 4.1128 8.04736 3.83133C8.04736 3.54987 8.26764 3.32959 8.54911 3.32959H11.6452C11.8166 3.32959 12.0735 3.39078 12.3183 3.68448C12.6365 4.08832 12.8445 4.79811 12.7589 5.21419C12.661 5.60579 11.8533 8.861 11.633 9.43617C11.3638 10.097 10.654 10.3418 10.0666 10.3418Z" fill="#525252"/>
<path id="Vector_3" d="M4.79213 5.60579C4.59633 5.60579 4.40052 5.48342 4.3271 5.28761C4.2292 5.03062 4.35157 4.73692 4.60856 4.63902L5.01241 4.47993L6.06484 2.60757C6.05261 2.21597 6.0526 1.43276 6.17498 1.0901C6.32183 0.68626 6.84805 0.343606 7.37427 0.319131C7.76587 0.306893 8.4879 0.42927 8.9774 1.48171C9.76061 3.14603 8.94069 4.14951 8.90398 4.19846C8.72041 4.4065 8.41447 4.44322 8.19419 4.25965C7.98615 4.07609 7.94944 3.77015 8.133 3.54987C8.14524 3.53763 8.56132 2.96246 8.05958 1.91002C7.9372 1.66527 7.7414 1.35933 7.47217 1.33486C7.30084 1.31038 7.14175 1.40828 7.0928 1.46947C7.05609 1.65303 7.03162 2.21597 7.05609 2.72995V2.8768L5.70995 5.28761L4.97569 5.58132C4.9145 5.60579 4.85332 5.60579 4.79213 5.60579Z" fill="#525252"/>
<path id="Vector_4" d="M10.0421 10.3417H6.41972L6.33406 10.3173C5.75889 10.1092 4.54736 9.6442 4.54736 9.6442L4.90226 8.7019C4.90226 8.7019 6.00364 9.11798 6.60329 9.33826H10.0543C10.3358 9.33826 10.556 9.55854 10.556 9.84001C10.5438 10.1215 10.3235 10.3417 10.0421 10.3417Z" fill="#525252"/>
</g>
</svg>
