<svg xmlns="http://www.w3.org/2000/svg" width="13" height="11" viewBox="0 0 13 11" fill="none">
  <path d="M4.33947 10.9526H1.59824C1.15769 10.9526 0.77832 10.5855 0.77832 10.1694V4.83378C0.77832 4.4177 1.13321 3.94043 1.59824 3.94043H4.33947C4.69436 3.94043 5.03702 4.2219 5.03702 4.83378V10.1694C5.03702 10.7078 4.68213 10.9526 4.33947 10.9526Z" fill="white"/>
  <path d="M10.0666 10.4506H9.54036C9.25889 10.4506 9.03861 10.2304 9.03861 9.9489C9.03861 9.66744 9.25889 9.44716 9.54036 9.44716H10.0666C10.091 9.44716 10.5928 9.44716 10.6907 9.17793C10.8375 8.78632 11.425 6.52236 11.7676 5.1028C11.7798 4.98042 11.6575 4.58881 11.5351 4.44196H8.54911C8.26764 4.44196 8.04736 4.22169 8.04736 3.94022C8.04736 3.65875 8.26764 3.43848 8.54911 3.43848H11.6452C11.8166 3.43848 12.0735 3.49966 12.3183 3.79337C12.6365 4.19721 12.8445 4.90699 12.7589 5.32307C12.661 5.71468 11.8533 8.96989 11.633 9.54506C11.3638 10.2059 10.654 10.4506 10.0666 10.4506Z" fill="white"/>
  <path d="M4.79213 5.71468C4.59633 5.71468 4.40052 5.5923 4.3271 5.3965C4.2292 5.13951 4.35157 4.84581 4.60856 4.74791L5.01241 4.58882L6.06484 2.71646C6.05261 2.32485 6.0526 1.54164 6.17498 1.19899C6.32183 0.795147 6.84805 0.452493 7.37427 0.428018C7.76587 0.41578 8.4879 0.538156 8.9774 1.59059C9.76061 3.25491 8.94069 4.2584 8.90398 4.30735C8.72041 4.51539 8.41447 4.5521 8.19419 4.36854C7.98615 4.18497 7.94944 3.87903 8.133 3.65876C8.14524 3.64652 8.56132 3.07135 8.05958 2.01891C7.9372 1.77416 7.7414 1.46822 7.47217 1.44374C7.30084 1.41927 7.14175 1.51717 7.0928 1.57836C7.05609 1.76192 7.03162 2.32485 7.05609 2.83883V2.98568L5.70995 5.3965L4.97569 5.6902C4.9145 5.71468 4.85332 5.71468 4.79213 5.71468Z" fill="white"/>
  <path d="M10.0421 10.4504H6.41972L6.33406 10.4259C5.75889 10.2179 4.54736 9.75284 4.54736 9.75284L4.90226 8.81055C4.90226 8.81055 6.00364 9.22663 6.60329 9.4469H10.0543C10.3358 9.4469 10.556 9.66718 10.556 9.94865C10.5438 10.2301 10.3235 10.4504 10.0421 10.4504Z" fill="white"/>
</svg>