<svg xmlns="http://www.w3.org/2000/svg" width="13" height="13" viewBox="0 0 13 13" fill="none">
  <path d="M12.9623 8.94727H0.979141C0.973591 8.98608 0.970772 9.02524 0.970703 9.06445L0.970703 11.6426C0.970703 11.8601 1.05713 12.0688 1.21097 12.2226C1.36481 12.3765 1.57346 12.4629 1.79102 12.4629H12.1504C12.3679 12.4629 12.5766 12.3765 12.7304 12.2226C12.8843 12.0688 12.9707 11.8601 12.9707 11.6426V9.06445C12.9706 9.02524 12.9678 8.98608 12.9623 8.94727Z" fill="white"/>
  <path d="M11.541 7.42383C11.541 7.20627 11.4546 6.99762 11.3007 6.84378C11.1469 6.68994 10.9383 6.60352 10.7207 6.60352H3.2207C3.00314 6.60352 2.79449 6.68994 2.64065 6.84378C2.48682 6.99762 2.40039 7.20627 2.40039 7.42383V8.24414H11.541V7.42383Z" fill="white"/>
  <path fill-rule="evenodd" clip-rule="evenodd" d="M10.3633 0.703155C10.5171 0.856993 10.6035 1.06564 10.6035 1.2832V5.90039H3.33789V1.2832C3.33789 1.06564 3.42432 0.856993 3.57815 0.703155C3.73199 0.549316 3.94064 0.462891 4.1582 0.462891H9.7832C10.0008 0.462891 10.2094 0.549316 10.3633 0.703155ZM8.32906 1.97886C8.44634 1.86691 8.62759 1.86691 8.73954 1.97886C8.85149 2.09614 8.85149 2.27739 8.72888 2.38934L6.73512 4.38309C6.68182 4.44173 6.60718 4.46838 6.53255 4.46838C6.45792 4.46838 6.38862 4.44173 6.32998 4.38309L5.20516 3.25827C5.09321 3.14099 5.08788 2.95974 5.20516 2.84779C5.32244 2.73585 5.50369 2.73585 5.61564 2.84779L6.53788 3.77004L8.32906 1.97886Z" fill="white"/>
</svg>