<svg width="13" height="13" viewBox="0 0 13 13" fill="none" xmlns="http://www.w3.org/2000/svg">
<g id="Group 12309">
<g id="Group 12307">
<path id="Vector" d="M11.9922 8.1355H11.3788V6.61273C11.3788 6.39516 11.2918 6.18652 11.137 6.03268C10.9821 5.87884 10.7721 5.79241 10.5531 5.79241H10.4351V1.17456C10.4351 0.957 10.3481 0.74835 10.1932 0.594512C10.0384 0.440674 9.82834 0.354248 9.60933 0.354248H3.94696C3.72795 0.354248 3.51792 0.440674 3.36306 0.594512C3.2082 0.74835 3.1212 0.957 3.1212 1.17456V5.79241H3.00323C2.78422 5.79241 2.57419 5.87884 2.41933 6.03268C2.26447 6.18652 2.17747 6.39516 2.17747 6.61273V8.1355H1.56404C1.34504 8.1355 1.135 8.22192 0.980142 8.37576C0.825281 8.5296 0.738281 8.73825 0.738281 8.95581V11.5339C0.738281 11.7515 0.825281 11.9601 0.980142 12.114C1.135 12.2678 1.34504 12.3542 1.56404 12.3542H11.9922C12.2113 12.3542 12.4213 12.2678 12.5761 12.114C12.731 11.9601 12.818 11.7515 12.818 11.5339V8.95581C12.818 8.73825 12.731 8.5296 12.5761 8.37576C12.4213 8.22192 12.2113 8.1355 11.9922 8.1355ZM3.82899 1.17456C3.82899 1.14348 3.84142 1.11367 3.86354 1.0917C3.88567 1.06972 3.91567 1.05737 3.94696 1.05737H9.60933C9.64062 1.05737 9.67062 1.06972 9.69275 1.0917C9.71487 1.11367 9.7273 1.14348 9.7273 1.17456V5.79241H3.82899V1.17456ZM2.88526 6.61273C2.88526 6.58165 2.89769 6.55184 2.91982 6.52986C2.94194 6.50788 2.97194 6.49554 3.00323 6.49554H10.5531C10.5843 6.49554 10.6144 6.50788 10.6365 6.52986C10.6586 6.55184 10.671 6.58165 10.671 6.61273V8.1355H2.88526V6.61273ZM12.1102 11.5339C12.1102 11.565 12.0978 11.5948 12.0757 11.6168C12.0535 11.6388 12.0235 11.6511 11.9922 11.6511H1.56404C1.53276 11.6511 1.50275 11.6388 1.48063 11.6168C1.45851 11.5948 1.44608 11.565 1.44608 11.5339V8.95581C1.44608 8.92473 1.45851 8.89492 1.48063 8.87295C1.50275 8.85097 1.53276 8.83862 1.56404 8.83862H11.9922C12.0235 8.83862 12.0535 8.85097 12.0757 8.87295C12.0978 8.89492 12.1102 8.92473 12.1102 8.95581V11.5339Z" fill="#525252"/>
</g>
<path id="Vector_2" d="M8.55896 1.87022C8.44626 1.75827 8.26381 1.75827 8.14575 1.87022L6.34267 3.66139L5.4143 2.73915C5.30161 2.6272 5.11915 2.6272 5.00109 2.73915C4.88304 2.8511 4.8884 3.03235 5.00109 3.14963L6.13339 4.27445C6.19241 4.33309 6.26218 4.35974 6.3373 4.35974C6.41243 4.35974 6.48756 4.33309 6.54122 4.27445L8.54822 2.28069C8.67165 2.16875 8.67165 1.9875 8.55896 1.87022Z" fill="#525252"/>
</g>
</svg>
