<svg xmlns="http://www.w3.org/2000/svg" width="25" height="25" viewBox="0 0 25 25" fill="none">
<path d="M3.63302 20.1887C3.5995 20.1887 3.56598 20.1887 3.53246 20.1887C3.33134 20.1552 3.19727 19.9876 3.19727 19.7529C3.19727 10.8032 10.3369 9.36188 12.147 9.12725V5.64121C12.147 5.47362 12.2475 5.33954 12.3816 5.23898C12.5157 5.17194 12.7168 5.20546 12.8509 5.30602L21.0297 11.9764C21.1302 12.0434 21.1973 12.1775 21.1973 12.3116C21.1973 12.4457 21.1302 12.5798 21.0297 12.6468L12.8844 18.9485C12.7503 19.049 12.5827 19.0826 12.4151 18.982C12.2811 18.915 12.1805 18.7474 12.1805 18.5798V15.1943C10.6051 15.3954 5.47659 16.3675 4.00173 19.9205C3.9347 20.0881 3.80062 20.1887 3.63302 20.1887Z" fill="white"/>
</svg>