<svg xmlns="http://www.w3.org/2000/svg" width="17" height="17" viewBox="0 0 17 17" fill="none">
  <path fill-rule="evenodd" clip-rule="evenodd" d="M11.541 2.83496C11.3512 2.83496 11.1973 2.98886 11.1973 3.17871V13.4912C11.1973 13.6811 11.3512 13.835 11.541 13.835H13.6035C13.7934 13.835 13.9473 13.6811 13.9473 13.4912V3.17871C13.9473 2.98886 13.7934 2.83496 13.6035 2.83496H11.541ZM7.57227 6.23251C7.57227 6.04267 7.72617 5.88876 7.91602 5.88876H9.97852C10.1684 5.88876 10.3223 6.04267 10.3223 6.23251V13.4912C10.3223 13.681 10.1684 13.8349 9.97852 13.8349H7.91602C7.72617 13.8349 7.57227 13.681 7.57227 13.4912V6.23251ZM3.94727 8.93594C3.94727 8.7461 4.10117 8.59219 4.29102 8.59219H6.35352C6.54336 8.59219 6.69727 8.7461 6.69727 8.93594V13.4911C6.69727 13.681 6.54336 13.8349 6.35352 13.8349H4.29102C4.10117 13.8349 3.94727 13.681 3.94727 13.4911V8.93594Z" fill="white"/>
</svg>