<svg width="25" height="25" viewBox="0 0 25 25" fill="none" xmlns="http://www.w3.org/2000/svg">
<g id="Component 139">
<path id="Union (Stroke)" fill-rule="evenodd" clip-rule="evenodd" d="M16.9033 5.33496V20.335H19.5283V5.33496H16.9033ZM11.4658 9.91566V20.3349H14.0908V9.91566H11.4658ZM6.02832 13.9708V20.3349H8.65332V13.9708H6.02832ZM16.1533 5.10059C16.1533 4.81581 16.3842 4.58496 16.6689 4.58496H19.7627C20.0475 4.58496 20.2783 4.81581 20.2783 5.10059V20.5693C20.2783 20.8541 20.0475 21.085 19.7627 21.085H16.6689C16.3842 21.085 16.1533 20.8541 16.1533 20.5693V5.10059ZM11.2314 9.16566C10.9467 9.16566 10.7158 9.39652 10.7158 9.68129V20.5693C10.7158 20.854 10.9467 21.0849 11.2314 21.0849H14.3252C14.61 21.0849 14.8408 20.854 14.8408 20.5693V9.68129C14.8408 9.39652 14.61 9.16566 14.3252 9.16566H11.2314ZM5.79395 13.2208C5.50917 13.2208 5.27832 13.4517 5.27832 13.7364V20.5692C5.27832 20.854 5.50917 21.0849 5.79395 21.0849H8.8877C9.17247 21.0849 9.40332 20.854 9.40332 20.5692V13.7364C9.40332 13.4517 9.17247 13.2208 8.8877 13.2208H5.79395Z" fill="black"/>
</g>
</svg>
