<svg width="25" height="25" viewBox="0 0 17 17" fill="none" xmlns="http://www.w3.org/2000/svg">
<g id="User">
<g id="Union">
<path fill-rule="evenodd" clip-rule="evenodd" d="M8.75667 8.6764C9.97347 8.6764 10.9766 7.66757 10.9766 6.40168C10.9766 5.13588 9.97356 4.12735 8.75667 4.12735C7.53991 4.12735 6.53716 5.13613 6.53716 6.40168C6.53716 7.66727 7.54035 8.6764 8.75667 8.6764ZM13.2204 13.1274C13.2494 13.293 13.2644 13.46 13.2644 13.6274H4.29189C4.29189 13.46 4.30718 13.293 4.33672 13.1274C4.64753 11.385 6.53615 9.80464 8.7988 9.80464C11.0614 9.80464 12.9156 11.385 13.2204 13.1274ZM4.84644 13.1274H12.7104C12.4038 11.6907 10.824 10.3046 8.7988 10.3046C7.68722 10.3046 6.67605 10.7303 5.94541 11.3694C5.36497 11.8772 4.98186 12.4999 4.84644 13.1274ZM8.75667 9.1764C10.259 9.1764 11.4766 7.93426 11.4766 6.40168C11.4766 4.86909 10.259 3.62735 8.75667 3.62735C7.25436 3.62735 6.03716 4.86949 6.03716 6.40168C6.03716 7.93387 7.25475 9.1764 8.75667 9.1764Z" fill="black"/>
<path fill-rule="evenodd" clip-rule="evenodd" d="M13.3644 13.7273H4.19189V13.6273C4.19189 13.4539 4.20774 13.281 4.23828 13.1098C4.55878 11.3131 6.49476 9.70464 8.7988 9.70464C11.1037 9.70464 13.0047 11.3139 13.3189 13.1101C13.3489 13.2812 13.3644 13.4541 13.3644 13.6273V13.7273ZM8.75667 8.5764C9.91649 8.5764 10.8766 7.6141 10.8766 6.40167C10.8766 5.18935 9.9166 4.22734 8.75667 4.22734C7.5969 4.22734 6.63716 5.18958 6.63716 6.40167C6.63716 7.61382 7.59734 8.5764 8.75667 8.5764ZM4.29371 13.5273C4.29855 13.3935 4.31307 13.26 4.33672 13.1274C4.64753 11.385 6.53615 9.80464 8.7988 9.80464C11.0614 9.80464 12.9156 11.385 13.2204 13.1274C13.2436 13.26 13.2578 13.3935 13.2626 13.5273C13.2638 13.5607 13.2644 13.594 13.2644 13.6274H4.29189C4.29189 13.594 4.2925 13.5607 4.29371 13.5273ZM12.7104 13.1274C12.7032 13.094 12.6954 13.0606 12.687 13.0273C12.3302 11.6271 10.777 10.3046 8.7988 10.3046C7.68722 10.3046 6.67605 10.7303 5.94541 11.3694C5.39582 11.8502 5.02315 12.434 4.87013 13.0273C4.86154 13.0607 4.85364 13.094 4.84644 13.1274H12.7104ZM12.5836 13.0273C12.2271 11.6842 10.7237 10.4046 8.7988 10.4046C7.71267 10.4046 6.72462 10.8207 6.01126 11.4447C5.48225 11.9075 5.12478 12.4648 4.97354 13.0273H12.5836ZM11.5766 6.40167C11.5766 7.98759 10.3161 9.2764 8.75667 9.2764C7.19764 9.2764 5.93716 7.98718 5.93716 6.40167C5.93716 4.81616 7.19725 3.52734 8.75667 3.52734C10.3161 3.52734 11.5766 4.81573 11.5766 6.40167ZM10.9766 6.40168C10.9766 7.66757 9.97347 8.6764 8.75667 8.6764C7.54035 8.6764 6.53716 7.66727 6.53716 6.40168C6.53716 5.13613 7.53991 4.12735 8.75667 4.12735C9.97356 4.12735 10.9766 5.13588 10.9766 6.40168ZM11.4766 6.40168C11.4766 7.93426 10.259 9.1764 8.75667 9.1764C7.25475 9.1764 6.03716 7.93387 6.03716 6.40168C6.03716 4.86949 7.25436 3.62735 8.75667 3.62735C10.259 3.62735 11.4766 4.86909 11.4766 6.40168Z" fill="black"/>
</g>
</g>
</svg>
