<svg xmlns="http://www.w3.org/2000/svg" width="186" height="157" viewBox="0 0 186 157" fill="none">
<g clip-path="url(#clip0_2426_9312)">
<path d="M74.5996 123.447L135.991 151.627C140.266 153.59 145.328 151.723 147.295 147.46L183.715 68.5559C185.683 64.2929 183.812 59.2448 179.537 57.2831L118.145 29.103C113.87 27.14 108.808 29.0064 106.841 33.2694L70.4216 112.174C68.4531 116.437 70.3247 121.485 74.5996 123.447Z" fill="white"/>
<path d="M139.55 153.407C138.579 153.407 137.619 153.26 136.693 152.967C136.166 152.8 135.872 152.238 136.04 151.712C136.208 151.186 136.771 150.894 137.299 151.06C138.678 151.495 140.167 151.52 141.563 151.133C142.097 150.986 142.649 151.297 142.797 151.83C142.945 152.361 142.633 152.912 142.099 153.06C141.267 153.29 140.41 153.406 139.55 153.406V153.407ZM132.514 151.03C132.374 151.03 132.231 151 132.095 150.939L127.641 148.893C127.138 148.662 126.918 148.069 127.15 147.568C127.381 147.066 127.976 146.847 128.479 147.078L132.933 149.123C133.436 149.354 133.656 149.947 133.424 150.449C133.255 150.815 132.893 151.032 132.513 151.032L132.514 151.03ZM145.934 150.546C145.698 150.546 145.459 150.463 145.27 150.295C144.854 149.929 144.816 149.297 145.183 148.883C145.67 148.334 146.075 147.715 146.385 147.043L147.389 144.869C147.62 144.368 148.215 144.148 148.718 144.38C149.221 144.611 149.441 145.204 149.209 145.705L148.206 147.879C147.813 148.729 147.301 149.513 146.684 150.209C146.486 150.432 146.21 150.546 145.934 150.546ZM123.604 146.941C123.464 146.941 123.321 146.911 123.185 146.849L118.731 144.804C118.228 144.573 118.008 143.98 118.24 143.478C118.471 142.977 119.067 142.757 119.569 142.989L124.023 145.034C124.526 145.265 124.746 145.858 124.514 146.36C124.345 146.725 123.983 146.942 123.603 146.942L123.604 146.941ZM114.694 142.85C114.554 142.85 114.411 142.82 114.275 142.759L109.821 140.713C109.318 140.482 109.098 139.889 109.33 139.388C109.561 138.886 110.157 138.667 110.659 138.898L115.113 140.943C115.616 141.174 115.836 141.767 115.604 142.269C115.435 142.635 115.073 142.851 114.693 142.851L114.694 142.85ZM150.35 141.844C150.21 141.844 150.067 141.814 149.931 141.753C149.428 141.522 149.208 140.929 149.44 140.427L151.491 135.985C151.722 135.484 152.318 135.264 152.82 135.496C153.323 135.727 153.543 136.32 153.311 136.821L151.26 141.263C151.091 141.629 150.728 141.846 150.349 141.846L150.35 141.844ZM105.784 138.761C105.644 138.761 105.501 138.731 105.365 138.669L100.911 136.624C100.408 136.393 100.188 135.8 100.42 135.298C100.651 134.797 101.247 134.577 101.749 134.809L106.203 136.854C106.706 137.085 106.926 137.678 106.694 138.18C106.525 138.545 106.163 138.762 105.783 138.762L105.784 138.761ZM96.8742 134.671C96.7341 134.671 96.5913 134.641 96.4551 134.58L92.0007 132.535C91.4978 132.304 91.2778 131.711 91.5096 131.209C91.7414 130.708 92.336 130.488 92.839 130.719L97.2933 132.765C97.7962 132.996 98.0163 133.589 97.7844 134.09C97.6155 134.456 97.2527 134.673 96.8729 134.673L96.8742 134.671ZM154.451 132.959C154.31 132.959 154.168 132.929 154.032 132.868C153.529 132.637 153.309 132.044 153.54 131.542L155.591 127.1C155.823 126.599 156.419 126.379 156.921 126.61C157.424 126.842 157.644 127.434 157.412 127.936L155.361 132.378C155.192 132.744 154.829 132.961 154.449 132.961L154.451 132.959ZM87.9642 130.582C87.8241 130.582 87.6813 130.552 87.5451 130.491L83.0907 128.445C82.5878 128.214 82.3678 127.621 82.5996 127.12C82.8314 126.618 83.426 126.399 83.929 126.63L88.3833 128.675C88.8862 128.906 89.1063 129.499 88.8745 130.001C88.7055 130.367 88.3427 130.583 87.9629 130.583L87.9642 130.582ZM79.0542 126.491C78.9141 126.491 78.7713 126.461 78.6351 126.4L74.1807 124.355C74.1729 124.351 74.165 124.347 74.1559 124.343C73.6529 124.112 73.4381 123.52 73.67 123.019C73.9018 122.517 74.5016 122.3 75.0046 122.531L75.019 122.538L79.4733 124.583C79.9762 124.814 80.1963 125.407 79.9645 125.909C79.7955 126.275 79.4327 126.491 79.0529 126.491H79.0542ZM158.551 124.074C158.411 124.074 158.268 124.044 158.132 123.982C157.629 123.751 157.409 123.158 157.641 122.657L159.692 118.215C159.924 117.713 160.519 117.494 161.021 117.725C161.524 117.956 161.744 118.549 161.513 119.051L159.462 123.493C159.293 123.858 158.93 124.075 158.55 124.075L158.551 124.074ZM70.9536 121.258C70.6209 121.258 70.2948 121.092 70.1036 120.79C69.1436 119.269 68.6367 117.516 68.6367 115.723C68.6367 115.685 68.6367 115.644 68.6367 115.604C68.6433 115.055 69.0912 114.617 69.6387 114.617H69.6517C70.2058 114.623 70.6484 115.076 70.6419 115.629C70.6419 115.66 70.6419 115.69 70.6419 115.722C70.6419 117.14 71.0427 118.524 71.801 119.727C72.0957 120.195 71.9542 120.811 71.4854 121.105C71.319 121.21 71.1357 121.259 70.9523 121.259L70.9536 121.258ZM162.653 115.189C162.513 115.189 162.37 115.159 162.234 115.097C161.731 114.866 161.511 114.273 161.743 113.772L163.794 109.33C164.026 108.828 164.622 108.609 165.123 108.84C165.626 109.071 165.846 109.664 165.615 110.165L163.564 114.607C163.395 114.973 163.032 115.19 162.652 115.19L162.653 115.189ZM70.9824 111.96C70.8423 111.96 70.6995 111.93 70.5633 111.869C70.0604 111.637 69.8404 111.044 70.0722 110.543L72.1232 106.1C72.355 105.598 72.9496 105.379 73.4525 105.61C73.9555 105.841 74.1755 106.434 73.9437 106.935L71.8927 111.377C71.7237 111.743 71.3609 111.96 70.9811 111.96H70.9824ZM166.754 106.303C166.614 106.303 166.471 106.273 166.335 106.212C165.832 105.981 165.612 105.388 165.844 104.886L167.895 100.444C168.127 99.9427 168.721 99.7233 169.224 99.9545C169.727 100.186 169.947 100.779 169.715 101.28L167.664 105.722C167.495 106.088 167.133 106.303 166.753 106.303H166.754ZM75.0831 103.075C74.943 103.075 74.8002 103.045 74.664 102.983C74.1611 102.752 73.9411 102.159 74.1729 101.658L76.2239 97.2156C76.4557 96.7141 77.0516 96.4947 77.5533 96.7258C78.0562 96.957 78.2762 97.55 78.0444 98.0515L75.9934 102.493C75.8244 102.859 75.4617 103.075 75.0818 103.075H75.0831ZM170.855 97.4181C170.715 97.4181 170.572 97.388 170.436 97.3266C169.933 97.0954 169.713 96.5025 169.945 96.001L171.996 91.559C172.227 91.0574 172.823 90.838 173.325 91.0692C173.828 91.3004 174.048 91.8933 173.816 92.3949L171.765 96.8368C171.596 97.2025 171.233 97.4181 170.853 97.4181H170.855ZM79.1839 94.1894C79.0437 94.1894 78.901 94.1594 78.7648 94.098C78.2618 93.8668 78.0418 93.2738 78.2736 92.7723L80.3246 88.3303C80.5564 87.8288 81.1511 87.6094 81.654 87.8405C82.1569 88.0717 82.377 88.6647 82.1451 89.1662L80.0941 93.6082C79.9252 93.9739 79.5624 94.1894 79.1826 94.1894H79.1839ZM174.956 88.5328C174.815 88.5328 174.673 88.5027 174.536 88.4413C174.034 88.2102 173.813 87.6172 174.045 87.1157L176.096 82.6737C176.328 82.1721 176.923 81.9527 177.426 82.1839C177.929 82.4151 178.149 83.008 177.917 83.5096L175.866 87.9516C175.697 88.3173 175.334 88.5341 174.954 88.5341L174.956 88.5328ZM83.2859 85.3041C83.1458 85.3041 83.003 85.2741 82.8668 85.2127C82.3639 84.9815 82.1438 84.3886 82.3756 83.887L84.4267 79.4437C84.6585 78.9422 85.2531 78.7228 85.756 78.9539C86.2589 79.1851 86.479 79.7781 86.2472 80.2796L84.1961 84.7216C84.0272 85.0873 83.6644 85.3041 83.2846 85.3041H83.2859ZM179.058 79.6475C178.917 79.6475 178.775 79.6174 178.638 79.556C178.136 79.3249 177.915 78.7319 178.147 78.2304L180.198 73.7884C180.43 73.2868 181.026 73.0674 181.528 73.2986C182.031 73.5298 182.251 74.1227 182.019 74.6243L179.968 79.0663C179.799 79.432 179.436 79.6488 179.056 79.6488L179.058 79.6475ZM87.3866 76.4201C87.2465 76.4201 87.1037 76.3901 86.9675 76.3287C86.4646 76.0975 86.2445 75.5046 86.4764 75.003L88.5274 70.561C88.7592 70.0595 89.3538 69.8401 89.8567 70.0713C90.3597 70.3024 90.5797 70.8954 90.3479 71.3969L88.2969 75.8389C88.1279 76.2046 87.7651 76.4214 87.3853 76.4214L87.3866 76.4201ZM183.158 70.7622C183.018 70.7622 182.875 70.7321 182.739 70.6708C182.236 70.4396 182.016 69.8466 182.248 69.3451L182.805 68.1383C183.25 67.1731 183.483 66.1491 183.495 65.0951C183.501 64.5465 183.949 64.1064 184.497 64.1064C184.501 64.1064 184.505 64.1064 184.509 64.1064C185.063 64.1129 185.505 64.5661 185.499 65.1173C185.483 66.4534 185.19 67.7504 184.625 68.9728L184.069 70.1797C183.9 70.5454 183.537 70.7622 183.157 70.7622H183.158ZM91.4873 67.5348C91.3472 67.5348 91.2044 67.5048 91.0682 67.4434C90.5653 67.2122 90.3453 66.6193 90.5771 66.1177L92.6281 61.6758C92.8599 61.1742 93.4558 60.9548 93.9575 61.186C94.4604 61.4172 94.6804 62.0101 94.4486 62.5117L92.3976 66.9536C92.2286 67.3193 91.8658 67.5362 91.486 67.5362L91.4873 67.5348ZM183.182 61.4655C182.849 61.4655 182.523 61.2996 182.333 60.9979C181.559 59.7728 180.45 58.8037 179.126 58.1937C178.623 57.9626 178.404 57.3683 178.636 56.8668C178.868 56.3652 179.464 56.1471 179.967 56.3783C181.644 57.1502 183.05 58.3792 184.031 59.9321C184.325 60.3997 184.185 61.0162 183.716 61.3114C183.55 61.4158 183.365 61.4655 183.183 61.4655H183.182ZM95.5894 58.6496C95.4492 58.6496 95.3065 58.6195 95.1703 58.5581C94.6673 58.327 94.4473 57.734 94.6791 57.2325L96.7301 52.7905C96.9619 52.2889 97.5579 52.0695 98.0595 52.3007C98.5624 52.5319 98.7825 53.1248 98.5506 53.6264L96.4996 58.0683C96.3307 58.4341 95.9679 58.6509 95.5881 58.6509L95.5894 58.6496ZM175.089 56.2424C174.949 56.2424 174.806 56.2124 174.67 56.151L170.216 54.1057C169.713 53.8745 169.493 53.2816 169.725 52.78C169.956 52.2785 170.552 52.0591 171.054 52.2902L175.508 54.3356C176.011 54.5667 176.231 55.1597 175.999 55.6612C175.83 56.0269 175.468 56.2438 175.088 56.2438L175.089 56.2424ZM166.18 52.1518C166.04 52.1518 165.898 52.1217 165.761 52.0604L161.307 50.015C160.804 49.7839 160.584 49.1909 160.816 48.6894C161.048 48.1878 161.644 47.9684 162.145 48.1996L166.6 50.2449C167.102 50.4761 167.323 51.069 167.091 51.5706C166.922 51.9363 166.559 52.1531 166.179 52.1531L166.18 52.1518ZM99.6901 49.7643C99.5499 49.7643 99.4072 49.7342 99.271 49.6728C98.768 49.4417 98.548 48.8487 98.7798 48.3472L100.831 43.9052C101.063 43.4036 101.659 43.1842 102.16 43.4154C102.663 43.6466 102.883 44.2395 102.651 44.7411L100.6 49.1831C100.431 49.5488 100.069 49.7656 99.6888 49.7656L99.6901 49.7643ZM157.27 48.0624C157.13 48.0624 156.988 48.0324 156.851 47.971L152.397 45.9257C151.894 45.6945 151.674 45.1015 151.906 44.6C152.138 44.0985 152.734 43.8791 153.235 44.1102L157.69 46.1556C158.192 46.3867 158.413 46.9797 158.181 47.4812C158.012 47.8469 157.649 48.0637 157.269 48.0637L157.27 48.0624ZM148.36 43.9731C148.22 43.9731 148.078 43.9431 147.941 43.8817L143.487 41.8363C142.984 41.6052 142.764 41.0122 142.996 40.5107C143.228 40.0091 143.822 39.7897 144.325 40.0209L148.78 42.0662C149.282 42.2974 149.503 42.8903 149.271 43.3919C149.102 43.7576 148.739 43.9744 148.359 43.9744L148.36 43.9731ZM103.791 40.879C103.651 40.879 103.508 40.8489 103.372 40.7876C102.869 40.5564 102.649 39.9634 102.881 39.4619L104.932 35.0199C105.163 34.5183 105.759 34.2989 106.261 34.5301C106.764 34.7613 106.984 35.3542 106.752 35.8558L104.701 40.2978C104.532 40.6635 104.169 40.8803 103.789 40.8803L103.791 40.879ZM139.45 39.8824C139.31 39.8824 139.168 39.8524 139.031 39.791L134.577 37.7457C134.074 37.5145 133.854 36.9215 134.086 36.42C134.318 35.9185 134.914 35.699 135.415 35.9302L139.871 37.9756C140.374 38.2067 140.594 38.7997 140.362 39.3012C140.193 39.6669 139.83 39.8837 139.45 39.8837V39.8824ZM130.54 35.7931C130.4 35.7931 130.258 35.763 130.121 35.7017L125.666 33.6563C125.163 33.4252 124.943 32.8322 125.175 32.3307C125.406 31.8291 126.002 31.6097 126.504 31.8409L130.958 33.8862C131.461 34.1174 131.681 34.7103 131.449 35.2119C131.28 35.5776 130.918 35.7944 130.538 35.7944L130.54 35.7931ZM108.208 32.1792C107.971 32.1792 107.734 32.0956 107.543 31.9271C107.129 31.5601 107.091 30.9292 107.458 30.5152C108.679 29.1438 110.265 28.159 112.047 27.6679C112.58 27.5204 113.133 27.8325 113.281 28.3654C113.429 28.897 113.116 29.4481 112.582 29.5957C111.174 29.9836 109.922 30.7607 108.958 31.8435C108.76 32.0668 108.484 32.1792 108.207 32.1792H108.208ZM121.63 31.7037C121.49 31.7037 121.348 31.6737 121.211 31.6123L117.726 30.0124C117.441 29.8804 117.145 29.7668 116.847 29.6728C116.32 29.5056 116.027 28.944 116.195 28.4176C116.363 27.8913 116.926 27.6 117.454 27.7672C117.83 27.8861 118.204 28.031 118.566 28.1969L122.051 29.7969C122.554 30.028 122.774 30.621 122.542 31.1225C122.373 31.4882 122.01 31.705 121.63 31.705V31.7037Z" fill="#E6E6E6"/>
<path d="M111.4 116.071L50.0088 144.251C45.7339 146.214 40.6718 144.348 38.7047 140.085L2.28538 61.1804C0.316879 56.9174 2.18846 51.8694 6.46338 49.9076L67.855 21.7275C72.1299 19.7645 77.192 21.6309 79.1592 25.894L115.578 104.798C117.547 109.061 115.675 114.109 111.4 116.071Z" fill="white"/>
<path d="M46.4515 146.032C45.591 146.032 44.7344 145.915 43.9028 145.686C43.3697 145.538 43.0567 144.987 43.2047 144.455C43.3527 143.924 43.9054 143.612 44.4384 143.759C45.8346 144.146 47.325 144.121 48.7029 143.686C49.2307 143.52 49.7938 143.811 49.9615 144.338C50.1278 144.864 49.8358 145.426 49.3079 145.593C48.382 145.885 47.4206 146.033 46.4515 146.033V146.032ZM53.4873 143.655C53.1074 143.655 52.7446 143.439 52.5757 143.072C52.3439 142.571 52.5639 141.976 53.0668 141.746L57.5212 139.701C58.0241 139.47 58.62 139.689 58.8505 140.191C59.0824 140.692 58.8623 141.287 58.3594 141.517L53.9051 143.562C53.7688 143.625 53.6274 143.653 53.4859 143.653L53.4873 143.655ZM40.0666 143.17C39.7889 143.17 39.5139 143.056 39.3161 142.833C38.6992 142.138 38.1871 141.355 37.7942 140.503L36.791 138.33C36.5592 137.828 36.7792 137.234 37.2821 137.004C37.7851 136.773 38.381 136.992 38.6115 137.494L39.6147 139.667C39.9251 140.34 40.3298 140.959 40.8171 141.507C41.1838 141.921 41.1458 142.552 40.7306 142.919C40.5394 143.088 40.3023 143.17 40.0666 143.17ZM62.3972 139.565C62.0174 139.565 61.6546 139.35 61.4857 138.983C61.2539 138.481 61.4739 137.887 61.9768 137.657L66.4312 135.612C66.9341 135.381 67.53 135.6 67.7605 136.102C67.9924 136.603 67.7723 137.197 67.2694 137.427L62.815 139.473C62.6788 139.535 62.5374 139.564 62.3959 139.564L62.3972 139.565ZM71.3059 135.476C70.9261 135.476 70.5633 135.26 70.3944 134.893C70.1626 134.392 70.3826 133.798 70.8855 133.568L75.3399 131.522C75.8428 131.291 76.4387 131.511 76.6692 132.012C76.901 132.514 76.681 133.108 76.1781 133.338L71.7237 135.383C71.5875 135.446 71.4461 135.475 71.3046 135.475L71.3059 135.476ZM35.6515 134.469C35.2717 134.469 34.9089 134.253 34.74 133.886L32.689 129.444C32.4571 128.943 32.6772 128.349 33.1801 128.119C33.683 127.888 34.279 128.107 34.5095 128.609L36.5605 133.051C36.7923 133.552 36.5723 134.146 36.0693 134.376C35.9331 134.439 35.7917 134.468 35.6502 134.468L35.6515 134.469ZM80.2159 131.385C79.8361 131.385 79.4733 131.17 79.3044 130.803C79.0726 130.301 79.2926 129.707 79.7955 129.477L84.2499 127.432C84.7528 127.201 85.3487 127.42 85.5792 127.922C85.811 128.423 85.591 129.017 85.0881 129.247L80.6337 131.293C80.4975 131.355 80.3561 131.384 80.2146 131.384L80.2159 131.385ZM89.1259 127.296C88.7461 127.296 88.3833 127.08 88.2144 126.713C87.9825 126.212 88.2026 125.618 88.7055 125.388L93.1599 123.342C93.6628 123.111 94.2587 123.331 94.4892 123.832C94.721 124.334 94.501 124.928 93.9981 125.158L89.5437 127.203C89.4075 127.266 89.2661 127.295 89.1246 127.295L89.1259 127.296ZM31.5495 125.584C31.1697 125.584 30.8069 125.368 30.6379 125.001L28.5869 120.559C28.3551 120.058 28.5751 119.463 29.0781 119.233C29.581 119.002 30.1769 119.222 30.4074 119.723L32.4585 124.165C32.6903 124.667 32.4702 125.261 31.9673 125.491C31.8311 125.554 31.6896 125.582 31.5482 125.582L31.5495 125.584ZM98.0359 123.207C97.6561 123.207 97.2933 122.991 97.1244 122.624C96.8925 122.123 97.1126 121.528 97.6155 121.298L102.07 119.253C102.573 119.022 103.169 119.241 103.399 119.743C103.631 120.244 103.411 120.839 102.908 121.069L98.4537 123.114C98.3175 123.177 98.1761 123.205 98.0346 123.205L98.0359 123.207ZM106.946 119.116C106.566 119.116 106.203 118.9 106.034 118.533C105.803 118.032 106.023 117.438 106.526 117.208L110.994 115.156C111.497 114.925 112.093 115.143 112.325 115.644C112.557 116.146 112.338 116.74 111.835 116.971L107.364 119.023C107.228 119.086 107.086 119.115 106.945 119.115L106.946 119.116ZM27.4488 116.698C27.069 116.698 26.7062 116.483 26.5372 116.116L24.4862 111.674C24.2544 111.172 24.4744 110.578 24.9774 110.348C25.4803 110.117 26.0762 110.336 26.3067 110.838L28.3577 115.28C28.5896 115.782 28.3695 116.376 27.8666 116.606C27.7304 116.668 27.5889 116.697 27.4475 116.697L27.4488 116.698ZM115.048 113.882C114.866 113.882 114.681 113.833 114.515 113.728C114.046 113.434 113.904 112.817 114.199 112.35C114.957 111.148 115.358 109.763 115.358 108.347C115.358 108.315 115.358 108.285 115.358 108.255C115.35 107.702 115.793 107.249 116.346 107.241H116.36C116.908 107.241 117.354 107.679 117.362 108.226C117.362 108.268 117.362 108.309 117.362 108.351C117.362 110.141 116.855 111.893 115.895 113.415C115.705 113.717 115.379 113.882 115.045 113.882H115.048ZM23.3481 107.813C22.9682 107.813 22.6055 107.598 22.4365 107.231L20.3855 102.789C20.1537 102.287 20.3737 101.693 20.8766 101.463C21.3796 101.232 21.9755 101.451 22.206 101.953L24.257 106.395C24.4888 106.896 24.2688 107.49 23.7659 107.72C23.6297 107.783 23.4882 107.812 23.3468 107.812L23.3481 107.813ZM115.019 104.584C114.639 104.584 114.276 104.369 114.107 104.002L112.056 99.5599C111.825 99.0584 112.045 98.4641 112.548 98.2343C113.051 98.0031 113.646 98.2225 113.877 98.724L115.928 103.166C116.16 103.668 115.94 104.262 115.437 104.492C115.301 104.554 115.159 104.583 115.018 104.583L115.019 104.584ZM19.2473 98.9278C18.8675 98.9278 18.5047 98.7123 18.3358 98.3453L16.2848 93.9033C16.0529 93.4018 16.273 92.8075 16.7759 92.5776C17.2788 92.3464 17.8748 92.5659 18.1053 93.0674L20.1563 97.5094C20.3881 98.0109 20.1681 98.6052 19.6651 98.8351C19.5289 98.8978 19.3875 98.9265 19.246 98.9265L19.2473 98.9278ZM110.917 95.6992C110.537 95.6992 110.174 95.4837 110.005 95.1166L107.954 90.6746C107.723 90.1731 107.943 89.5788 108.446 89.349C108.948 89.1178 109.544 89.3372 109.775 89.8388L111.826 94.2808C112.058 94.7823 111.838 95.3765 111.335 95.6064C111.199 95.6691 111.057 95.6979 110.916 95.6979L110.917 95.6992ZM15.1453 90.0425C14.7655 90.0425 14.4027 89.827 14.2338 89.46L12.1827 85.018C11.9509 84.5165 12.171 83.9222 12.6739 83.6923C13.1768 83.4612 13.7727 83.6806 14.0032 84.1821L16.0543 88.6241C16.2861 89.1256 16.066 89.7199 15.5631 89.9498C15.4269 90.0125 15.2855 90.0412 15.144 90.0412L15.1453 90.0425ZM106.816 86.8139C106.436 86.8139 106.074 86.5984 105.905 86.2314L103.854 81.7894C103.622 81.2878 103.842 80.6936 104.345 80.4637C104.848 80.2325 105.444 80.4519 105.674 80.9535L107.725 85.3955C107.957 85.897 107.737 86.4913 107.234 86.7211C107.098 86.7838 106.956 86.8126 106.815 86.8126L106.816 86.8139ZM11.0446 81.1572C10.6648 81.1572 10.302 80.9417 10.133 80.5747L8.08202 76.1327C7.8502 75.6312 8.07023 75.0369 8.57316 74.807C9.07609 74.5759 9.67201 74.7953 9.90252 75.2968L11.9535 79.7388C12.1854 80.2403 11.9653 80.8346 11.4624 81.0645C11.3262 81.1272 11.1847 81.1559 11.0433 81.1559L11.0446 81.1572ZM102.716 77.9299C102.336 77.9299 101.973 77.7144 101.804 77.3474L99.753 72.9054C99.5211 72.4038 99.7412 71.8096 100.244 71.5797C100.747 71.3485 101.343 71.5679 101.573 72.0695L103.624 76.5115C103.856 77.013 103.636 77.6073 103.133 77.8372C102.997 77.8998 102.856 77.9286 102.714 77.9286L102.716 77.9299ZM6.94387 72.2719C6.56406 72.2719 6.20127 72.0564 6.03231 71.6894L3.9813 67.2474C3.74948 66.7459 3.96951 66.1516 4.47244 65.9217C4.97537 65.6906 5.57129 65.91 5.8018 66.4115L7.85282 70.8535C8.08464 71.3551 7.8646 71.9493 7.36167 72.1792C7.22546 72.2419 7.08401 72.2706 6.94256 72.2706L6.94387 72.2719ZM98.6135 69.0446C98.2337 69.0446 97.8709 68.8291 97.702 68.4621L95.6509 64.0201C95.4191 63.5186 95.6392 62.9243 96.1421 62.6944C96.645 62.4632 97.2409 62.6827 97.4714 63.1842L99.5225 67.6262C99.7543 68.1277 99.5342 68.722 99.0313 68.9519C98.8951 69.0146 98.7537 69.0433 98.6122 69.0433L98.6135 69.0446ZM2.84184 63.3879C2.46203 63.3879 2.09923 63.1724 1.93028 62.8054L1.37365 61.5986C0.810474 60.3761 0.515788 59.0792 0.500072 57.743C0.493523 57.1906 0.937517 56.7387 1.49022 56.7321C2.04554 56.7295 2.49739 57.1684 2.50394 57.7195C2.51572 58.7722 2.74885 59.7962 3.19416 60.7627L3.75079 61.9695C3.98261 62.4711 3.76257 63.0653 3.25964 63.2952C3.12343 63.3579 2.98198 63.3866 2.84053 63.3866L2.84184 63.3879ZM94.5128 60.1593C94.133 60.1593 93.7702 59.9438 93.6012 59.5768L91.5502 55.1348C91.3184 54.6333 91.5384 54.039 92.0414 53.8091C92.5443 53.5779 93.1402 53.7974 93.3707 54.2989L95.4217 58.7409C95.6536 59.2424 95.4335 59.8367 94.9306 60.0666C94.7944 60.1293 94.6529 60.158 94.5115 60.158L94.5128 60.1593ZM2.81827 54.0899C2.63622 54.0899 2.45024 54.0403 2.28521 53.9358C1.81634 53.6419 1.6762 53.0242 1.97088 52.5566C2.95186 51.0037 4.35718 49.7746 6.03493 49.0027C6.53786 48.7716 7.13378 48.991 7.3656 49.4912C7.59742 49.9927 7.3787 50.587 6.87577 50.8182C5.55165 51.4281 4.44232 52.3972 3.66827 53.6224C3.47706 53.9241 3.15225 54.0899 2.81958 54.0899H2.81827ZM90.4121 51.274C90.0323 51.274 89.6695 51.0585 89.5005 50.6915L87.4495 46.2495C87.2177 45.748 87.4377 45.1537 87.9406 44.9238C88.4436 44.6927 89.0395 44.9121 89.27 45.4136L91.321 49.8556C91.5528 50.3571 91.3328 50.9514 90.8299 51.1813C90.6937 51.244 90.5522 51.2727 90.4108 51.2727L90.4121 51.274ZM10.911 48.8669C10.5312 48.8669 10.1684 48.6514 9.99944 48.2844C9.76762 47.7828 9.98765 47.1886 10.4906 46.9587L14.9449 44.9134C15.4479 44.6822 16.0438 44.9016 16.2743 45.4032C16.5061 45.9047 16.2861 46.499 15.7831 46.7288L11.3288 48.7742C11.1926 48.8369 11.0511 48.8656 10.9097 48.8656L10.911 48.8669ZM19.821 44.7762C19.4412 44.7762 19.0784 44.5607 18.9094 44.1937C18.6776 43.6922 18.8977 43.0979 19.4006 42.8681L23.8549 40.8227C24.3579 40.5916 24.9538 40.811 25.1843 41.3125C25.4161 41.814 25.1961 42.4083 24.6931 42.6382L20.2388 44.6835C20.1026 44.7462 19.9611 44.7749 19.8197 44.7749L19.821 44.7762ZM86.3114 42.3887C85.9315 42.3887 85.5687 42.1732 85.3998 41.8062L83.3488 37.3642C83.117 36.8627 83.337 36.2684 83.8399 36.0385C84.3428 35.8074 84.9388 36.0268 85.1693 36.5283L87.2203 40.9703C87.4521 41.4718 87.2321 42.0661 86.7291 42.296C86.5929 42.3587 86.4515 42.3874 86.31 42.3874L86.3114 42.3887ZM28.731 40.6869C28.3512 40.6869 27.9884 40.4714 27.8194 40.1044C27.5876 39.6028 27.8076 39.0086 28.3106 38.7787L32.7649 36.7334C33.2679 36.5022 33.8638 36.7216 34.0943 37.2232C34.3261 37.7247 34.1061 38.319 33.6031 38.5488L29.1488 40.5942C29.0126 40.6569 28.8711 40.6856 28.7297 40.6856L28.731 40.6869ZM37.641 36.5975C37.2612 36.5975 36.8984 36.382 36.7294 36.015C36.4976 35.5135 36.7176 34.9192 37.2206 34.6894L41.6749 32.644C42.1779 32.4129 42.7738 32.6323 43.0043 33.1338C43.2361 33.6353 43.0161 34.2296 42.5131 34.4595L38.0588 36.5048C37.9226 36.5675 37.7811 36.5962 37.6397 36.5962L37.641 36.5975ZM82.2093 33.5034C81.8295 33.5034 81.4667 33.2879 81.2978 32.9209L79.2467 28.4789C79.0149 27.9774 79.235 27.3831 79.7379 27.1533C80.2408 26.9221 80.8367 27.1415 81.0673 27.643L83.1183 32.085C83.3501 32.5866 83.1301 33.1808 82.6271 33.4107C82.4909 33.4734 82.3495 33.5021 82.208 33.5021L82.2093 33.5034ZM46.551 32.5082C46.1712 32.5082 45.8084 32.2927 45.6394 31.9257C45.4076 31.4241 45.6276 30.8299 46.1306 30.6L50.5849 28.5547C51.0879 28.3235 51.6838 28.5429 51.9143 29.0445C52.1461 29.546 51.9261 30.1403 51.4231 30.3701L46.9688 32.4155C46.8326 32.4782 46.6911 32.5069 46.5497 32.5069L46.551 32.5082ZM55.4597 28.4175C55.0799 28.4175 54.7171 28.202 54.5481 27.835C54.3163 27.3335 54.5363 26.7392 55.0393 26.5094L59.4936 24.464C59.9965 24.2328 60.5925 24.4523 60.823 24.9538C61.0548 25.4553 60.8348 26.0496 60.3318 26.2795L55.8775 28.3248C55.7413 28.3875 55.5998 28.4162 55.4584 28.4162L55.4597 28.4175ZM77.7916 24.8036C77.5153 24.8036 77.2389 24.69 77.0412 24.4679C76.0785 23.3852 74.8251 22.6081 73.4172 22.2202C72.8841 22.0726 72.5711 21.5227 72.7178 20.9898C72.8658 20.4583 73.4172 20.1461 73.9516 20.2924C75.7328 20.7835 77.3202 21.7683 78.5408 23.1397C78.9088 23.5524 78.8708 24.1845 78.457 24.5515C78.2658 24.72 78.0287 24.8036 77.7916 24.8036ZM64.3697 24.3282C63.9899 24.3282 63.6271 24.1127 63.4581 23.7457C63.2263 23.2441 63.4463 22.6499 63.9493 22.42L67.4344 20.8201C67.7959 20.6542 68.1692 20.5105 68.5451 20.3903C69.0729 20.2232 69.6361 20.5144 69.8037 21.0408C69.9713 21.5671 69.6793 22.1287 69.1515 22.2959C68.8541 22.39 68.5582 22.5049 68.2726 22.6355L64.7875 24.2355C64.6513 24.2982 64.5098 24.3269 64.3684 24.3269L64.3697 24.3282Z" fill="#E6E6E6"/>
<path d="M60.4823 1.49902H128.065C132.768 1.49902 136.587 5.30626 136.587 9.99771V96.8588C136.587 101.549 132.769 105.358 128.065 105.358H60.4823C55.7791 105.358 51.96 101.55 51.96 96.8588V9.99771C51.96 5.30756 55.7778 1.49902 60.4823 1.49902Z" fill="white"/>
<path d="M128.088 106.357H123.161C122.607 106.357 122.159 105.909 122.159 105.358C122.159 104.806 122.609 104.357 123.161 104.357H128.088C128.642 104.357 129.092 104.805 129.092 105.358C129.092 105.91 128.642 106.357 128.088 106.357ZM118.256 106.357H113.352C112.798 106.357 112.35 105.909 112.35 105.358C112.35 104.806 112.799 104.357 113.352 104.357H118.256C118.81 104.357 119.26 104.805 119.26 105.358C119.26 105.91 118.81 106.357 118.256 106.357ZM108.448 106.357H103.543C102.989 106.357 102.541 105.909 102.541 105.358C102.541 104.806 102.99 104.357 103.543 104.357H108.448C109.002 104.357 109.451 104.805 109.451 105.358C109.451 105.91 109.002 106.357 108.448 106.357ZM98.6395 106.357H93.7346C93.1806 106.357 92.7327 105.909 92.7327 105.358C92.7327 104.806 93.1819 104.357 93.7346 104.357H98.6395C99.1935 104.357 99.6415 104.805 99.6415 105.358C99.6415 105.91 99.1922 106.357 98.6395 106.357ZM88.8311 106.357H83.9275C83.3735 106.357 82.9256 105.909 82.9256 105.358C82.9256 104.806 83.3748 104.357 83.9275 104.357H88.8311C89.3851 104.357 89.833 104.805 89.833 105.358C89.833 105.91 89.3838 106.357 88.8311 106.357ZM79.0226 106.357H74.119C73.565 106.357 73.1171 105.909 73.1171 105.358C73.1171 104.806 73.5663 104.357 74.119 104.357H79.0226C79.5766 104.357 80.0245 104.805 80.0245 105.358C80.0245 105.91 79.5753 106.357 79.0226 106.357ZM69.2141 106.357H64.3093C63.7552 106.357 63.3073 105.909 63.3073 105.358C63.3073 104.806 63.7566 104.357 64.3093 104.357H69.2141C69.7682 104.357 70.2161 104.805 70.2161 105.358C70.2161 105.91 69.7668 106.357 69.2141 106.357ZM59.4096 106.29C59.3677 106.29 59.3258 106.288 59.2839 106.282C57.4568 106.054 55.745 105.304 54.3345 104.114C53.9114 103.758 53.859 103.127 54.2166 102.705C54.5741 102.283 55.2067 102.231 55.6298 102.587C56.743 103.527 58.0933 104.118 59.534 104.298C60.0828 104.368 60.4731 104.867 60.4037 105.415C60.3395 105.921 59.9086 106.29 59.4096 106.29ZM132.722 104.978C132.395 104.978 132.074 104.818 131.883 104.524C131.58 104.062 131.71 103.443 132.173 103.141C133.394 102.346 134.352 101.225 134.941 99.8995C135.166 99.3954 135.758 99.1681 136.264 99.3915C136.769 99.6161 136.997 100.206 136.773 100.711C136.025 102.388 134.814 103.807 133.27 104.814C133.101 104.924 132.911 104.978 132.722 104.978ZM52.3227 100.323C51.8918 100.323 51.495 100.045 51.364 99.6122C51.0942 98.7227 50.958 97.7967 50.958 96.859V94.4688C50.958 93.9164 51.4072 93.4697 51.9599 93.4697C52.5126 93.4697 52.9619 93.9177 52.9619 94.4688V96.8603C52.9619 97.6008 53.0693 98.3322 53.2828 99.0336C53.4425 99.5626 53.1439 100.12 52.6135 100.28C52.5166 100.308 52.4196 100.323 52.3227 100.323ZM136.586 96.5168C136.032 96.5168 135.583 96.0688 135.583 95.5176V90.6263C135.583 90.0739 136.032 89.6272 136.586 89.6272C137.14 89.6272 137.588 90.0752 137.588 90.6263V95.5176C137.588 96.0701 137.139 96.5168 136.586 96.5168ZM51.9599 90.578C51.4059 90.578 50.958 90.13 50.958 89.5789V84.6876C50.958 84.1351 51.4072 83.6884 51.9599 83.6884C52.5126 83.6884 52.9619 84.1364 52.9619 84.6876V89.5789C52.9619 90.1313 52.5126 90.578 51.9599 90.578ZM136.586 86.7355C136.032 86.7355 135.583 86.2875 135.583 85.7364V80.8451C135.583 80.2926 136.032 79.8459 136.586 79.8459C137.14 79.8459 137.588 80.2939 137.588 80.8451V85.7364C137.588 86.2888 137.139 86.7355 136.586 86.7355ZM51.9599 80.7967C51.4059 80.7967 50.958 80.3488 50.958 79.7976V74.9076C50.958 74.3551 51.4072 73.9085 51.9599 73.9085C52.5126 73.9085 52.9619 74.3564 52.9619 74.9076V79.7976C52.9619 80.3501 52.5126 80.7967 51.9599 80.7967ZM136.586 76.9542C136.032 76.9542 135.583 76.5063 135.583 75.9551V71.0651C135.583 70.5126 136.032 70.066 136.586 70.066C137.14 70.066 137.588 70.5139 137.588 71.0651V75.9551C137.588 76.5076 137.139 76.9542 136.586 76.9542ZM51.9599 71.0155C51.4059 71.0155 50.958 70.5675 50.958 70.0163V65.1264C50.958 64.5739 51.4072 64.1272 51.9599 64.1272C52.5126 64.1272 52.9619 64.5752 52.9619 65.1264V70.0163C52.9619 70.5688 52.5126 71.0155 51.9599 71.0155ZM136.586 67.173C136.032 67.173 135.583 66.725 135.583 66.1738V61.2838C135.583 60.7314 136.032 60.2847 136.586 60.2847C137.14 60.2847 137.588 60.7327 137.588 61.2838V66.1738C137.588 66.7263 137.139 67.173 136.586 67.173ZM51.9599 61.2342C51.4059 61.2342 50.958 60.7862 50.958 60.2351V55.3451C50.958 54.7926 51.4072 54.3459 51.9599 54.3459C52.5126 54.3459 52.9619 54.7939 52.9619 55.3451V60.2351C52.9619 60.7875 52.5126 61.2342 51.9599 61.2342ZM136.586 57.3917C136.032 57.3917 135.583 56.9437 135.583 56.3926V51.5026C135.583 50.9501 136.032 50.5034 136.586 50.5034C137.14 50.5034 137.588 50.9514 137.588 51.5026V56.3926C137.588 56.945 137.139 57.3917 136.586 57.3917ZM51.9599 51.453C51.4059 51.453 50.958 51.005 50.958 50.4538V45.5638C50.958 45.0113 51.4072 44.5647 51.9599 44.5647C52.5126 44.5647 52.9619 45.0127 52.9619 45.5638V50.4538C52.9619 51.0063 52.5126 51.453 51.9599 51.453ZM136.586 47.6105C136.032 47.6105 135.583 47.1625 135.583 46.6113V41.7213C135.583 41.1688 136.032 40.7222 136.586 40.7222C137.14 40.7222 137.588 41.1702 137.588 41.7213V46.6113C137.588 47.1638 137.139 47.6105 136.586 47.6105ZM51.9599 41.6717C51.4059 41.6717 50.958 41.2237 50.958 40.6725V35.7826C50.958 35.2301 51.4072 34.7834 51.9599 34.7834C52.5126 34.7834 52.9619 35.2314 52.9619 35.7826V40.6725C52.9619 41.225 52.5126 41.6717 51.9599 41.6717ZM136.586 37.8305C136.032 37.8305 135.583 37.3825 135.583 36.8313V31.9414C135.583 31.3889 136.032 30.9422 136.586 30.9422C137.14 30.9422 137.588 31.3902 137.588 31.9414V36.8313C137.588 37.3838 137.139 37.8305 136.586 37.8305ZM51.9599 31.8904C51.4059 31.8904 50.958 31.4424 50.958 30.8913V26.0013C50.958 25.4488 51.4072 25.0021 51.9599 25.0021C52.5126 25.0021 52.9619 25.4501 52.9619 26.0013V30.8913C52.9619 31.4437 52.5126 31.8904 51.9599 31.8904ZM136.586 28.0492C136.032 28.0492 135.583 27.6012 135.583 27.0501V22.1601C135.583 21.6076 136.032 21.1609 136.586 21.1609C137.14 21.1609 137.588 21.6089 137.588 22.1601V27.0501C137.588 27.6026 137.139 28.0492 136.586 28.0492ZM51.9599 22.1092C51.4059 22.1092 50.958 21.6612 50.958 21.11V16.22C50.958 15.6676 51.4072 15.2209 51.9599 15.2209C52.5126 15.2209 52.9619 15.6689 52.9619 16.22V21.11C52.9619 21.6625 52.5126 22.1092 51.9599 22.1092ZM136.586 18.268C136.032 18.268 135.583 17.82 135.583 17.2688V12.3788C135.583 11.8264 136.032 11.3797 136.586 11.3797C137.14 11.3797 137.588 11.8277 137.588 12.3788V17.2688C137.588 17.8213 137.139 18.268 136.586 18.268ZM51.9599 12.3279C51.4059 12.3279 50.958 11.8799 50.958 11.3287V9.99915C50.958 8.65388 51.2344 7.35433 51.7792 6.13445C52.0045 5.6303 52.5978 5.40304 53.1033 5.62899C53.6089 5.85364 53.8368 6.44529 53.6102 6.94944C53.1806 7.91072 52.9619 8.9373 52.9619 9.99915V11.3287C52.9619 11.8812 52.5126 12.3279 51.9599 12.3279ZM136.219 8.52327C135.79 8.52327 135.391 8.24508 135.26 7.81407C134.839 6.42962 134.025 5.2019 132.91 4.26283C132.487 3.90627 132.433 3.27673 132.789 2.85356C133.147 2.4317 133.778 2.37815 134.202 2.7334C135.615 3.92194 136.645 5.47749 137.179 7.23156C137.34 7.75922 137.042 8.31822 136.511 8.47887C136.414 8.50891 136.316 8.52197 136.219 8.52197V8.52327ZM55.8367 3.87231C55.5093 3.87231 55.1884 3.71297 54.9959 3.41779C54.6933 2.95544 54.8243 2.33635 55.2879 2.03465C56.8295 1.03288 58.6212 0.502612 60.4692 0.5H60.4705C61.0232 0.5 61.4724 0.946681 61.4724 1.49785C61.4724 2.05032 61.0245 2.49831 60.4718 2.49961C59.0128 2.50223 57.5996 2.92017 56.3828 3.71035C56.2139 3.82007 56.024 3.87231 55.8367 3.87231ZM129.127 2.56492C129.086 2.56492 129.045 2.56231 129.003 2.55708C128.694 2.51921 128.378 2.49961 128.065 2.49961H124.225C123.671 2.49961 123.223 2.05163 123.223 1.50046C123.223 0.949293 123.672 0.501306 124.225 0.501306H128.065C128.46 0.501306 128.859 0.526122 129.25 0.574447C129.8 0.642363 130.189 1.14129 130.121 1.68984C130.058 2.1966 129.626 2.56623 129.127 2.56623V2.56492ZM119.32 2.49961H114.416C113.862 2.49961 113.414 2.05163 113.414 1.50046C113.414 0.949293 113.864 0.501306 114.416 0.501306H119.32C119.874 0.501306 120.323 0.949293 120.323 1.50046C120.323 2.05163 119.874 2.49961 119.32 2.49961ZM109.511 2.49961H104.608C104.054 2.49961 103.606 2.05163 103.606 1.50046C103.606 0.949293 104.055 0.501306 104.608 0.501306H109.511C110.065 0.501306 110.515 0.949293 110.515 1.50046C110.515 2.05163 110.065 2.49961 109.511 2.49961ZM99.703 2.49961H94.7994C94.2454 2.49961 93.7975 2.05163 93.7975 1.50046C93.7975 0.949293 94.2467 0.501306 94.7994 0.501306H99.703C100.257 0.501306 100.705 0.949293 100.705 1.50046C100.705 2.05163 100.256 2.49961 99.703 2.49961ZM89.8959 2.49961H84.9923C84.4383 2.49961 83.9903 2.05163 83.9903 1.50046C83.9903 0.949293 84.4396 0.501306 84.9923 0.501306H89.8959C90.4499 0.501306 90.8978 0.949293 90.8978 1.50046C90.8978 2.05163 90.4486 2.49961 89.8959 2.49961ZM80.0874 2.49961H75.1838C74.6298 2.49961 74.1819 2.05163 74.1819 1.50046C74.1819 0.949293 74.6311 0.501306 75.1838 0.501306H80.0874C80.6414 0.501306 81.0893 0.949293 81.0893 1.50046C81.0893 2.05163 80.6401 2.49961 80.0874 2.49961ZM70.2789 2.49961H65.3754C64.8213 2.49961 64.3734 2.05163 64.3734 1.50046C64.3734 0.949293 64.8227 0.501306 65.3754 0.501306H70.2789C70.833 0.501306 71.2809 0.949293 71.2809 1.50046C71.2809 2.05163 70.8316 2.49961 70.2789 2.49961Z" fill="#E6E6E6"/>
<path d="M112.127 56.8457C111.87 56.8457 111.614 56.7477 111.418 56.5531L75.6501 20.8827C75.2585 20.4922 75.2585 19.8587 75.6501 19.4682C76.0418 19.0777 76.677 19.0777 77.0686 19.4682L112.838 55.1373C113.23 55.5279 113.23 56.1613 112.838 56.5518C112.642 56.7464 112.386 56.8444 112.13 56.8444L112.127 56.8457Z" fill="#F2F2F2"/>
<path d="M76.3587 56.8459C76.102 56.8459 75.8453 56.7479 75.6501 56.5533C75.2585 56.1628 75.2585 55.5293 75.6501 55.1388L111.418 19.4696C111.81 19.0791 112.445 19.0791 112.837 19.4696C113.229 19.8602 113.229 20.4936 112.837 20.8841L77.0673 56.5546C76.8721 56.7492 76.6154 56.8472 76.3587 56.8472V56.8459Z" fill="#F2F2F2"/>
<path d="M145.428 107.075L146.117 107.894C146.027 107.987 145.935 108.08 145.841 108.172C145.225 108.786 144.577 109.379 143.896 109.947C143.217 110.513 142.522 111.048 141.807 111.554C141.644 111.665 141.483 111.776 141.321 111.886C141.267 111.922 141.212 111.959 141.157 111.994L140.494 111.205L140.116 110.755L139.737 110.305C139.9 110.196 140.061 110.085 140.223 109.974C140.938 109.469 141.634 108.933 142.312 108.367C142.993 107.799 143.642 107.206 144.257 106.592C144.399 106.454 144.536 106.314 144.67 106.173L145.051 106.625L145.428 107.075Z" fill="#E6E6E6"/>
<path d="M146.536 64.9407C135.449 51.7662 115.755 50.0474 102.543 61.1034C89.3304 72.1568 87.6081 91.8016 98.6922 104.975C108.95 117.167 126.58 119.548 139.623 111.079C139.79 110.972 139.951 110.863 140.115 110.753C140.276 110.643 140.438 110.533 140.598 110.419C141.31 109.918 142.007 109.383 142.688 108.815C143.368 108.246 144.016 107.654 144.636 107.041C144.775 106.903 144.913 106.761 145.05 106.623C145.186 106.481 145.321 106.34 145.456 106.197C156.084 94.8578 156.793 77.1317 146.535 64.9394L146.536 64.9407ZM145.076 105.747C144.944 105.889 144.809 106.031 144.67 106.172C144.535 106.313 144.399 106.453 144.257 106.592C143.642 107.206 142.993 107.799 142.311 108.367C141.634 108.933 140.937 109.468 140.222 109.972C140.061 110.083 139.899 110.195 139.737 110.305C139.574 110.415 139.41 110.522 139.246 110.629C133.545 114.317 126.821 115.999 119.945 115.4C111.791 114.687 104.403 110.852 99.1415 104.599C88.2813 91.6932 89.9734 72.3801 102.917 61.5488C115.863 50.7187 135.228 52.4088 146.088 65.3155C156.121 77.2374 155.438 94.6266 145.075 105.744L145.076 105.747Z" fill="#E6E6E6"/>
<path d="M158.333 122.409L157.548 123.066L153.399 126.54L150.844 123.506L150.468 123.058L150.091 122.608L146.427 118.255C146.481 118.217 146.533 118.181 146.587 118.143C146.747 118.031 146.907 117.916 147.065 117.802C147.768 117.287 148.461 116.745 149.141 116.18C149.819 115.612 150.472 115.024 151.102 114.421C151.196 114.332 151.289 114.242 151.382 114.149L155.027 118.481L155.401 118.929L155.78 119.375L157.675 121.628L158.333 122.41V122.409Z" fill="#E6E6E6"/>
<path d="M171.476 154.611L148.672 127.51C147.868 126.554 147.993 125.129 148.951 124.327L156.921 117.658C157.88 116.856 159.309 116.98 160.113 117.936L182.916 145.038C184.8 147.275 184.506 150.611 182.263 152.489L178.948 155.263C176.704 157.141 173.359 156.849 171.476 154.611Z" fill="#B2B2B2"/>
<path d="M152.256 115.187C152.163 115.28 152.068 115.37 151.975 115.459C151.345 116.062 150.692 116.65 150.015 117.218C149.336 117.784 148.643 118.326 147.939 118.841C147.78 118.954 147.621 119.069 147.461 119.181C147.407 119.219 147.355 119.257 147.301 119.294L145.38 117.011L145.001 116.561L144.623 116.111L141.156 111.991C141.211 111.956 141.266 111.92 141.319 111.883C141.482 111.773 141.643 111.662 141.805 111.551C142.52 111.047 143.216 110.51 143.894 109.945C144.575 109.377 145.224 108.784 145.839 108.17C145.934 108.077 146.025 107.984 146.116 107.892L149.558 111.98L149.935 112.429L150.315 112.88L152.254 115.185L152.256 115.187Z" fill="#B2B2B2"/>
<path d="M152.337 60.0887C138.563 43.7182 114.092 41.5828 97.6746 55.3188C81.2599 69.0549 79.1172 93.4578 92.8941 109.83C105.842 125.217 128.242 128.027 144.52 116.897C144.682 116.787 144.844 116.676 145.004 116.562C145.164 116.451 145.323 116.335 145.48 116.222C146.185 115.707 146.877 115.165 147.556 114.599C148.234 114.031 148.887 113.445 149.517 112.841C149.659 112.707 149.799 112.572 149.937 112.433C150.079 112.297 150.215 112.158 150.351 112.017C164.169 97.9677 165.286 75.4769 152.337 60.09V60.0887ZM102.917 61.5502C115.863 50.7201 135.228 52.4102 146.088 65.3169C156.121 77.2389 155.438 94.6281 145.074 105.745C144.942 105.888 144.807 106.03 144.668 106.171C144.534 106.312 144.397 106.452 144.256 106.59C143.64 107.204 142.992 107.797 142.31 108.365C141.633 108.932 140.936 109.466 140.221 109.971C140.06 110.082 139.897 110.194 139.736 110.304C139.572 110.413 139.409 110.52 139.245 110.628C133.544 114.316 126.82 115.998 119.944 115.399C111.789 114.686 104.401 110.851 99.1401 104.597C88.28 91.692 89.9721 72.3789 102.916 61.5476L102.917 61.5502Z" fill="#E6E6E6"/>
<path d="M145.076 105.747C144.944 105.889 144.809 106.031 144.67 106.173C144.535 106.314 144.399 106.453 144.257 106.592C143.642 107.206 142.993 107.799 142.311 108.367C141.634 108.934 140.937 109.468 140.222 109.972C140.061 110.083 139.898 110.195 139.737 110.305C139.574 110.415 139.41 110.522 139.246 110.629C133.545 114.317 126.821 115.999 119.945 115.4C111.791 114.687 104.403 110.852 99.1414 104.599C88.2813 91.6933 89.9734 72.3802 102.917 61.5489C115.863 50.7188 135.228 52.4089 146.088 65.3156C156.121 77.2375 155.438 94.6267 145.074 105.744L145.076 105.747Z" fill="white"/>
<path d="M176.906 144.823C176.619 144.823 176.333 144.703 176.13 144.471L157.557 123.078C157.187 122.651 157.234 122.006 157.661 121.637C158.089 121.267 158.736 121.314 159.107 121.74L177.68 143.132C178.05 143.559 178.003 144.204 177.576 144.574C177.382 144.741 177.144 144.823 176.906 144.823Z" fill="white"/>
<path d="M94.5168 63.738C94.3557 63.738 94.192 63.6858 94.0558 63.5787C93.7297 63.324 93.6734 62.8551 93.9274 62.5299C96.3321 59.4684 99.2069 56.8236 102.471 54.6686C105.687 52.5449 109.205 50.9476 112.926 49.9197C120.661 47.7842 128.699 48.2322 136.171 51.214C136.555 51.3668 136.742 51.8017 136.589 52.1857C136.436 52.5684 135.999 52.7552 135.616 52.6011C121.278 46.8791 104.621 51.3407 95.1088 63.4507C94.9608 63.6388 94.7408 63.7367 94.5181 63.7367L94.5168 63.738Z" fill="white"/>
<path d="M89.4744 72.4836C89.3815 72.4836 89.2872 72.4666 89.1968 72.43C88.813 72.2772 88.6257 71.8423 88.7803 71.4583C89.5596 69.5161 90.5078 67.6354 91.5988 65.8682C91.8162 65.5169 92.2772 65.4072 92.6295 65.624C92.9819 65.8408 93.0919 66.3005 92.8745 66.6519C91.828 68.3472 90.9191 70.1509 90.1712 72.0147C90.0546 72.3072 89.7731 72.4849 89.4758 72.4849L89.4744 72.4836Z" fill="white"/>
</g>
<defs>
<clipPath id="clip0_2426_9312">
<rect width="185" height="156" fill="white" transform="translate(0.5 0.5)"/>
</clipPath>
</defs>
</svg>