<svg xmlns="http://www.w3.org/2000/svg" width="13.747" height="13.795" viewBox="0 0 13.747 13.795">
  <g id="internet" transform="translate(-0.881)">
    <path id="Path_3262" data-name="Path 3262" d="M157.724,272H152.4a.135.135,0,0,0-.135.138c.016.624.058,1.219.123,1.783a.135.135,0,0,0,.167.116,10.222,10.222,0,0,1,5.011,0,.135.135,0,0,0,.167-.116c.064-.563.107-1.159.123-1.783A.135.135,0,0,0,157.724,272Z" transform="translate(-147.31 -264.672)" fill="#ececec"/>
    <path id="Path_3263" data-name="Path 3263" d="M157.736,164.39a.135.135,0,0,0-.167-.116,10.222,10.222,0,0,1-5.011,0,.135.135,0,0,0-.167.116c-.064.563-.107,1.159-.123,1.783a.135.135,0,0,0,.135.138h5.32a.135.135,0,0,0,.135-.138C157.843,165.549,157.8,164.953,157.736,164.39Z" transform="translate(-147.31 -159.844)" fill="#ececec"/>
    <path id="Path_3264" data-name="Path 3264" d="M167.935,3.409A10.766,10.766,0,0,0,166.9.2a.134.134,0,0,0-.091-.067,6.981,6.981,0,0,0-2.752,0,.134.134,0,0,0-.091.067,10.765,10.765,0,0,0-1.038,3.205.134.134,0,0,0,.1.153,9.25,9.25,0,0,0,2.409.317,9.249,9.249,0,0,0,2.409-.318A.134.134,0,0,0,167.935,3.409Z" transform="translate(-157.676)" fill="#ececec"/>
    <path id="Path_3265" data-name="Path 3265" d="M355.541,22.581a.135.135,0,0,0-.181.172l0,.006A13.436,13.436,0,0,1,356,25.052a.135.135,0,0,0,.184.1,9.255,9.255,0,0,0,1.512-.791.135.135,0,0,0,.026-.205q-.082-.088-.168-.174A6.894,6.894,0,0,0,355.541,22.581Z" transform="translate(-344.92 -21.96)" fill="#ececec"/>
    <path id="Path_3266" data-name="Path 3266" d="M386.228,116.531h2.947a.135.135,0,0,0,.134-.146,6.83,6.83,0,0,0-1.108-3.212.135.135,0,0,0-.188-.038,10.1,10.1,0,0,1-1.634.875q-.177.075-.355.142a.135.135,0,0,0-.086.143c.085.676.137,1.382.155,2.1A.135.135,0,0,0,386.228,116.531Z" transform="translate(-374.683 -110.065)" fill="#ececec"/>
    <path id="Path_3267" data-name="Path 3267" d="M162.924,368.471a10.766,10.766,0,0,0,1.038,3.205.134.134,0,0,0,.091.067,6.981,6.981,0,0,0,2.752,0,.134.134,0,0,0,.091-.067,10.765,10.765,0,0,0,1.038-3.205.134.134,0,0,0-.1-.153,9.3,9.3,0,0,0-4.818,0A.134.134,0,0,0,162.924,368.471Z" transform="translate(-157.676 -358.085)" fill="#ececec"/>
    <path id="Path_3268" data-name="Path 3268" d="M3.811,274.522q.177-.075.355-.142a.135.135,0,0,0,.086-.143c-.085-.676-.137-1.382-.155-2.1A.135.135,0,0,0,3.963,272H1.015a.135.135,0,0,0-.134.146,6.83,6.83,0,0,0,1.108,3.211.135.135,0,0,0,.188.038A10.091,10.091,0,0,1,3.811,274.522Z" transform="translate(0 -264.673)" fill="#ececec"/>
    <path id="Path_3269" data-name="Path 3269" d="M357.694,394.012a9.255,9.255,0,0,0-1.512-.791.135.135,0,0,0-.184.1,13.433,13.433,0,0,1-.635,2.293l0,.006a.135.135,0,0,0,.181.172,6.9,6.9,0,0,0,2.01-1.4q.086-.086.168-.174A.135.135,0,0,0,357.694,394.012Z" transform="translate(-344.921 -382.616)" fill="#ececec"/>
    <path id="Path_3270" data-name="Path 3270" d="M386.094,272.131c-.018.722-.071,1.428-.155,2.1a.135.135,0,0,0,.086.143q.179.068.355.142a10.1,10.1,0,0,1,1.634.875.135.135,0,0,0,.188-.038,6.83,6.83,0,0,0,1.108-3.212.135.135,0,0,0-.134-.146h-2.947A.135.135,0,0,0,386.094,272.131Z" transform="translate(-374.682 -264.671)" fill="#ececec"/>
    <path id="Path_3271" data-name="Path 3271" d="M67.483,24.359a9.253,9.253,0,0,0,1.512.791.135.135,0,0,0,.184-.1,13.43,13.43,0,0,1,.635-2.293l0-.006a.135.135,0,0,0-.181-.172,6.9,6.9,0,0,0-2.01,1.4q-.086.086-.168.174A.135.135,0,0,0,67.483,24.359Z" transform="translate(-64.747 -21.959)" fill="#ececec"/>
    <path id="Path_3272" data-name="Path 3272" d="M4.094,116.531a21.267,21.267,0,0,1,.158-2.235.135.135,0,0,0-.086-.143q-.179-.068-.355-.142a10.1,10.1,0,0,1-1.634-.875.135.135,0,0,0-.188.038,6.83,6.83,0,0,0-1.108,3.211.135.135,0,0,0,.134.146Z" transform="translate(0 -110.065)" fill="#ececec"/>
    <path id="Path_3273" data-name="Path 3273" d="M69.636,395.789a.135.135,0,0,0,.181-.172l0-.006a13.433,13.433,0,0,1-.635-2.293.135.135,0,0,0-.184-.1,9.254,9.254,0,0,0-1.512.791.135.135,0,0,0-.026.205q.082.088.168.174A6.894,6.894,0,0,0,69.636,395.789Z" transform="translate(-64.748 -382.615)" fill="#ececec"/>
  </g>
</svg>
