<svg xmlns="http://www.w3.org/2000/svg" width="11.352" height="16.146" viewBox="0 0 11.352 16.146">
  <g id="placeholder" transform="translate(-76)">
    <path id="Path_3258" data-name="Path 3258" d="M81.676,0A5.681,5.681,0,0,0,76,5.676a5.6,5.6,0,0,0,.851,2.98l4.44,7.266a.448.448,0,0,0,.322.218.471.471,0,0,0,.482-.227L86.548,8.58a5.6,5.6,0,0,0,.8-2.9A5.681,5.681,0,0,0,81.676,0Zm0,8.514a2.838,2.838,0,1,1,2.838-2.838A2.834,2.834,0,0,1,81.676,8.514Z" fill="#ececec"/>
    <path id="Path_3259" data-name="Path 3259" d="M256,0V2.838a2.838,2.838,0,0,1,0,5.676v7.631a.468.468,0,0,0,.419-.233l4.453-7.332a5.6,5.6,0,0,0,.8-2.9A5.681,5.681,0,0,0,256,0Z" transform="translate(-174.324)" fill="#ececec"/>
  </g>
</svg>
