<svg xmlns="http://www.w3.org/2000/svg" width="22" height="8.16" viewBox="0 0 22 8.16">
  <g id="line_1_" data-name="line (1)" transform="translate(-119.276 -124.917)">
    <g id="Group_1357" data-name="Group 1357" transform="translate(119.276 124.917)">
      <path id="Path_3254" data-name="Path 3254" d="M162.128,207.391v-5.6a.854.854,0,0,0-.854-.854h0a.854.854,0,0,0-.854.854v6.451a.854.854,0,0,0,.854.854h3.418a.854.854,0,0,0,.854-.854h0a.854.854,0,0,0-.854-.854h-2.563Z" transform="translate(-160.419 -200.94)" fill="#6fc32e"/>
      <path id="Path_3255" data-name="Path 3255" d="M213.539,209.1h-.373a.668.668,0,0,1-.668-.668v-6.824a.668.668,0,0,1,.668-.668h.373a.668.668,0,0,1,.668.668v6.824A.668.668,0,0,1,213.539,209.1Z" transform="translate(-206.56 -200.938)" fill="#6fc32e"/>
      <path id="Path_3256" data-name="Path 3256" d="M243.679,201.795v3.941s-3.412-4.451-3.464-4.509a.85.85,0,0,0-.67-.285.878.878,0,0,0-.821.889v6.415a.854.854,0,0,0,.854.854h0a.854.854,0,0,0,.854-.854v-3.917s3.464,4.489,3.515,4.538a.849.849,0,0,0,.578.234.886.886,0,0,0,.862-.89V201.8a.854.854,0,0,0-.854-.854h0A.854.854,0,0,0,243.679,201.795Z" transform="translate(-229.796 -200.94)" fill="#6fc32e"/>
      <path id="Path_3257" data-name="Path 3257" d="M313.533,201.794h0a.854.854,0,0,0-.854-.854H309.26a.854.854,0,0,0-.854.854v6.451a.854.854,0,0,0,.854.854h3.418a.854.854,0,0,0,.854-.854h0a.854.854,0,0,0-.854-.854h-2.563v-1.516h2.563a.854.854,0,0,0,.854-.854h0a.854.854,0,0,0-.854-.854h-2.563v-1.516h2.563A.854.854,0,0,0,313.533,201.794Z" transform="translate(-291.532 -200.94)" fill="#6fc32e"/>
    </g>
  </g>
</svg>
