<svg xmlns="http://www.w3.org/2000/svg" width="13.813" height="11.223" viewBox="0 0 13.813 11.223">
  <path id="twitter" d="M13.813,49.329a5.9,5.9,0,0,1-1.632.447,2.816,2.816,0,0,0,1.246-1.565,5.659,5.659,0,0,1-1.8.685,2.831,2.831,0,0,0-4.9,1.936,2.916,2.916,0,0,0,.066.646A8.015,8.015,0,0,1,.962,48.516a2.832,2.832,0,0,0,.87,3.785,2.8,2.8,0,0,1-1.279-.349v.031a2.845,2.845,0,0,0,2.269,2.782,2.826,2.826,0,0,1-.742.093,2.5,2.5,0,0,1-.536-.048,2.859,2.859,0,0,0,2.646,1.973A5.69,5.69,0,0,1,.678,57.991,5.3,5.3,0,0,1,0,57.952a7.972,7.972,0,0,0,4.344,1.271,8,8,0,0,0,8.06-8.058c0-.125,0-.246-.01-.366A5.649,5.649,0,0,0,13.813,49.329Z" transform="translate(0 -48)" fill="#03a9f4"/>
</svg>
