<svg xmlns="http://www.w3.org/2000/svg" width="16.439" height="15.437" viewBox="0 0 16.439 15.437">
  <g id="Group_3339" data-name="Group 3339" transform="translate(-647.471 -703.739)">
    <path id="Path_3806" data-name="Path 3806" d="M661.713,703.739H649.658a2.2,2.2,0,0,0-2.187,2.19v8.294a2.205,2.205,0,0,0,2.2,2.187h1.317v1.823a.938.938,0,0,0,.6.879.934.934,0,0,0,1.034-.245l2.234-2.458h6.869a2.205,2.205,0,0,0,2.187-2.2v-8.288A2.231,2.231,0,0,0,661.713,703.739Zm-10.04,11.291h-2a.826.826,0,0,1-.824-.815v-8.274a.827.827,0,0,1,.815-.823H661.7a.84.84,0,0,1,.828.817v8.272a.828.828,0,0,1-.816.822h-7.47l-1.881,2.071v-2.07Z" fill="#9d9d9d"/>
    <path id="Path_3807" data-name="Path 3807" d="M651.292,708.667h5.083a.764.764,0,0,0,0-1.528h-5.083a.764.764,0,0,0,0,1.528Z" fill="#9d9d9d"/>
    <path id="Path_3808" data-name="Path 3808" d="M660.279,711.375a.744.744,0,0,0-.723-.764h-8.305a.765.765,0,0,0,0,1.528h8.305A.744.744,0,0,0,660.279,711.375Z" fill="#9d9d9d"/>
  </g>
</svg>
