<svg xmlns="http://www.w3.org/2000/svg" width="13.913" height="15.385" viewBox="0 0 13.913 15.385">
  <path id="Path_3803" data-name="Path 3803" d="M723.992,714.311a2.533,2.533,0,0,0-1.8-.745,2.59,2.59,0,0,0-1.555.522l-.052.039-4.7-2.459.017-.075a2.55,2.55,0,0,0,.042-.825l-.006-.065,4.7-2.793.054.038a2.531,2.531,0,0,0,1.5.49,2.566,2.566,0,1,0-2.568-2.565,2.529,2.529,0,0,0,.063.549l.015.072-4.52,2.691-.056-.05a2.574,2.574,0,0,0-2.635-.5l-.061.026a2.566,2.566,0,0,0,1.963,4.741,2.5,2.5,0,0,0,.5-.282l.051-.036,4.741,2.478-.014.074a2.566,2.566,0,1,0,4.334-1.326Zm-.526,1.849a1.314,1.314,0,1,1-1.314-1.314A1.315,1.315,0,0,1,723.466,716.16Zm-1.314-11.688a1.314,1.314,0,1,1-1.313,1.313A1.315,1.315,0,0,1,722.152,704.472Zm-7.5,6.527a1.314,1.314,0,1,1-1.314-1.314A1.316,1.316,0,0,1,714.656,711Z" transform="translate(-710.83 -703.306)" fill="#9d9d9d"/>
</svg>
