<svg xmlns="http://www.w3.org/2000/svg" width="53.58" height="50.521" viewBox="0 0 53.58 50.521">
  <path id="Path_3671" data-name="Path 3671" d="M45.3,74.96H8.25A8.3,8.3,0,0,0,0,83.21v25.53A8.329,8.329,0,0,0,8.3,117h2.49v4.03a4.427,4.427,0,0,0,2.85,4.15,4.429,4.429,0,0,0,4.88-1.15l6.38-7.02H45.33a8.321,8.321,0,0,0,8.25-8.3V83.21A8.3,8.3,0,0,0,45.3,74.96ZM13.68,88.34a2.99,2.99,0,0,1,2.19-2.19H28.18a2.98,2.98,0,0,1,0,5.79H15.87A2.986,2.986,0,0,1,13.68,88.34Zm24.48,15.22H15.43c-1,0-1.83-1.35-1.83-2.99s.82-2.99,1.83-2.99H38.16c1,0,1.83,1.35,1.83,2.99S39.17,103.56,38.16,103.56Z" transform="translate(0 -74.96)" fill="#9d9d9d"/>
</svg>
