<svg xmlns="http://www.w3.org/2000/svg" width="53.58" height="50.521" viewBox="0 0 53.58 50.521">
  <g id="Group_3272" data-name="Group 3272" transform="translate(0 -0.88)">
    <path id="Path_3665" data-name="Path 3665" d="M45.3.88H8.25A8.31,8.31,0,0,0,0,9.13V34.66a8.329,8.329,0,0,0,8.3,8.26h2.49v4.03a4.427,4.427,0,0,0,2.85,4.15,4.429,4.429,0,0,0,4.88-1.15l6.38-7.02H45.33a8.321,8.321,0,0,0,8.25-8.3V9.13A8.31,8.31,0,0,0,45.3.88Zm.94,33.69a1.015,1.015,0,0,1-.95,1H21.66l-3.51,3.87V35.57H8.35a1.006,1.006,0,0,1-.99-.95V9.21a1,1,0,0,1,.94-.98H45.25a1.006,1.006,0,0,1,.99.95Z" fill="#9d9d9d"/>
    <path id="Path_3666" data-name="Path 3666" d="M15.87,17.86H28.18a2.98,2.98,0,0,0,0-5.79H15.87a2.98,2.98,0,0,0,0,5.79Z" fill="#9d9d9d"/>
    <path id="Path_3667" data-name="Path 3667" d="M38.16,23.5H15.43c-1.01,0-1.83,1.35-1.83,2.99s.83,2.99,1.83,2.99H38.16c1.01,0,1.83-1.35,1.83-2.99S39.16,23.5,38.16,23.5Z" fill="#9d9d9d"/>
  </g>
</svg>
