<svg xmlns="http://www.w3.org/2000/svg" width="56.85" height="48.58" viewBox="0 0 56.85 48.58">
  <path id="Path_3663" data-name="Path 3663" d="M196.9.7h-.05a17.223,17.223,0,0,0-11.07,4,17.029,17.029,0,0,0-10.99-4,17.259,17.259,0,0,0-17.45,17.31c0,15.15,23.76,28.7,26.47,30.2l1.94,1.07,1.95-1.06c2.71-1.48,26.49-14.86,26.49-30.23A17.432,17.432,0,0,0,196.9.7ZM185.77,40c-8.59-5.15-20.36-14.71-20.36-22a9.244,9.244,0,0,1,9.25-9.23h.08a9.03,9.03,0,0,1,7.62,4.14l3.37,5.2,3.4-5.18a9.2,9.2,0,0,1,7.71-4.16h.02A9.32,9.32,0,0,1,206.1,18C206.1,25.41,194.35,34.91,185.77,40Z" transform="translate(-157.34 -0.7)" fill="#9d9d9d"/>
</svg>
