<svg xmlns="http://www.w3.org/2000/svg" width="56.098" height="47.868" viewBox="0 0 56.098 47.868">
  <path id="Path_3668" data-name="Path 3668" d="M127.39,105.96h-3.1l6.35-6.4a15,15,0,0,0-.14-21.16l.01-.01a14.974,14.974,0,0,0-21.15.11l-2.56,2.58-2.6-2.57a14.869,14.869,0,0,0-10.36-4.18h-.3A14.956,14.956,0,0,0,83.16,99.77l21.38,21.16a3.476,3.476,0,0,0,4.91-.01l2.37-2.39L88.05,94.87A8.012,8.012,0,0,1,99.32,83.48l7.52,7.45,7.41-7.48a8.039,8.039,0,0,1,11.44,11.24l-6.17,6.23.02-2.81a3.59,3.59,0,1,0-7.18,0v11.45a3.71,3.71,0,0,0,.53,1.9c.08.11.15.22.33.45l.17.17a2.066,2.066,0,0,0,.33.3,2.8,2.8,0,0,0,.36.26,3.558,3.558,0,0,0,1.84.52h11.49a3.6,3.6,0,1,0-.02-7.2Z" transform="translate(-78.841 -74.072)" fill="#9d9d9d"/>
</svg>
