<svg xmlns="http://www.w3.org/2000/svg" width="32" height="21" viewBox="0 0 32 21" fill="none">
<g clip-path="url(#clip0_984_1187)">
<path d="M16 11.813C11.5817 11.813 8 15.497 8 20.0416H24C24 15.497 20.4183 11.813 16 11.813Z" fill="#EE7623"/>
<path d="M25.6001 11.8129C27.8092 11.8129 29.6001 9.97089 29.6001 7.69864C29.6001 5.42638 27.8092 3.58435 25.6001 3.58435C23.391 3.58435 21.6001 5.42638 21.6001 7.69864C21.6001 9.97089 23.391 11.8129 25.6001 11.8129Z" fill="#113154"/>
<path d="M25.6002 12.5449C24.5285 12.5449 23.5202 12.8175 22.6318 13.2958C24.3002 15.0306 25.3335 17.4152 25.3335 20.0415H31.9368C31.9768 19.7432 32.0002 19.4381 32.0002 19.1278C32.0002 15.4918 29.1352 12.5449 25.6002 12.5449Z" fill="#113154"/>
<path d="M6.4 12.5449C2.865 12.5449 0 15.4918 0 19.1278C0 19.4381 0.0216667 19.7432 0.0633333 20.0415H6.66667C6.66667 17.4135 7.69833 15.0306 9.36833 13.2958C8.48167 12.8175 7.47167 12.5449 6.4 12.5449Z" fill="#113154"/>
<path d="M16.0002 10.4416C18.5775 10.4416 20.6668 8.29252 20.6668 5.64155C20.6668 2.99059 18.5775 0.841553 16.0002 0.841553C13.4228 0.841553 11.3335 2.99059 11.3335 5.64155C11.3335 8.29252 13.4228 10.4416 16.0002 10.4416Z" fill="#EE7623"/>
<path d="M6.3999 11.8129C8.60904 11.8129 10.3999 9.97089 10.3999 7.69864C10.3999 5.42638 8.60904 3.58435 6.3999 3.58435C4.19076 3.58435 2.3999 5.42638 2.3999 7.69864C2.3999 9.97089 4.19076 11.8129 6.3999 11.8129Z" fill="#113154"/>
</g>
<defs>
<clipPath id="clip0_984_1187">
<rect width="32" height="19.2" fill="white" transform="translate(0 0.841553)"/>
</clipPath>
</defs>
</svg>