<svg xmlns="http://www.w3.org/2000/svg" width="27" height="33" viewBox="0 0 27 33" fill="none">
  <g clip-path="url(#clip0_984_1184)">
    <path d="M26.5286 28.9318L25.287 10.7633C25.1741 9.10246 23.7695 7.81369 22.0764 7.81369H20.9802C20.9802 3.67385 17.5514 0.305298 13.3374 0.305298C9.12344 0.305298 5.69457 3.67385 5.69457 7.81369H4.59844C2.90533 7.81369 1.50067 9.10246 1.3878 10.7633L0.143677 28.9318C0.0182611 30.7578 1.49315 32.3053 3.35432 32.3053H23.318C25.1792 32.3053 26.654 30.7578 26.5286 28.9318ZM13.3374 1.76656C16.7337 1.76656 19.4953 4.47964 19.4953 7.81616H7.1795C7.1795 4.47964 9.94115 1.76656 13.3374 1.76656ZM20.6918 17.9588C19.8816 21.6797 16.7462 24.277 13.064 24.277C9.3818 24.277 6.2464 21.6797 5.43622 17.9588C5.35094 17.5645 5.60678 17.1776 6.00811 17.0914C6.40944 17.0076 6.80325 17.2589 6.89104 17.6532C7.55324 20.694 10.0916 22.8182 13.064 22.8182C16.0364 22.8182 18.5773 20.694 19.237 17.6557C19.3222 17.2614 19.7186 17.0101 20.1199 17.0938C20.5212 17.1776 20.7771 17.567 20.6918 17.9612V17.9588ZM20.4435 16.1229C19.9945 16.1229 19.6308 15.7656 19.6308 15.3245C19.6308 14.8835 19.9945 14.5262 20.4435 14.5262C20.8924 14.5262 21.2562 14.8835 21.2562 15.3245C21.2562 15.7656 20.8924 16.1229 20.4435 16.1229Z" fill="url(#paint0_radial_984_1184)"/>
  </g>
  <defs>
    <radialGradient id="paint0_radial_984_1184" cx="0" cy="0" r="1" gradientUnits="userSpaceOnUse" gradientTransform="translate(29.822 51.4816) scale(61.6268 60.5427)">
      <stop stop-color="#F36E26"/>
      <stop offset="0.953125" stop-color="#EE7623"/>
    </radialGradient>
    <clipPath id="clip0_984_1184">
      <rect width="26.4" height="32" fill="white" transform="translate(0.135742 0.305298)"/>
    </clipPath>
  </defs>
</svg>