<svg xmlns="http://www.w3.org/2000/svg" width="33" height="33" viewBox="0 0 33 33" fill="none">
  <g clip-path="url(#clip0_984_1177)">
    <path d="M28.4692 31.9602V26.9224C30.6692 26.9224 32.4692 25.1088 32.4692 22.8921V10.8015C32.4692 8.58484 30.6692 6.77124 28.4692 6.77124H10.4692C8.26924 6.77124 6.46924 8.58484 6.46924 10.8015V22.8921C6.46924 25.1088 8.26924 26.9224 10.4692 26.9224H20.1092L26.8292 32.7259" fill="#64B5F6"/>
    <path d="M6.46924 10.8015V22.8921C6.46924 24.6654 7.60924 26.1365 9.18924 26.6806L13.5892 22.8921H22.4692C25.7692 22.8921 28.4692 20.1717 28.4692 16.8468V6.77124H10.4692C8.26924 6.77124 6.46924 8.58484 6.46924 10.8015Z" fill="#FAFAFA"/>
    <path d="M0.469238 16.8469C0.469238 19.0635 2.26924 20.8771 4.46924 20.8771V25.9149C4.46924 26.2977 4.68924 26.6605 5.04924 26.8217C5.18924 26.8821 5.32924 26.9224 5.46924 26.9224C5.70924 26.9224 5.92924 26.8418 6.10924 26.6806L12.8292 20.8771H22.4492C24.6492 20.8771 26.4492 19.0635 26.4492 16.8469V4.75618C26.4492 2.53955 24.6492 0.725952 22.4492 0.725952H4.46924C2.26924 0.725952 0.469238 2.53955 0.469238 4.75618" fill="#2196F3"/>
    <path d="M10.2112 11.8091H7.78259C7.51434 11.8091 7.29688 12.0978 7.29688 12.4539V16.0811C7.29688 16.4373 7.51434 16.726 7.78259 16.726H10.2112C10.4794 16.726 10.6969 16.4373 10.6969 16.0811V12.4539C10.6969 12.0978 10.4794 11.8091 10.2112 11.8091Z" fill="#FAFAFA"/>
    <path d="M14.7644 9.08862H12.3358C12.0676 9.08862 11.8501 9.37733 11.8501 9.73346V16.0811C11.8501 16.4372 12.0676 16.7259 12.3358 16.7259H14.7644C15.0326 16.7259 15.2501 16.4372 15.2501 16.0811V9.73346C15.2501 9.37733 15.0326 9.08862 14.7644 9.08862Z" fill="#FAFAFA"/>
    <path d="M19.136 5.34045H16.7074C16.4391 5.34045 16.2217 5.62916 16.2217 5.98529V16.081C16.2217 16.4371 16.4391 16.7258 16.7074 16.7258H19.136C19.4042 16.7258 19.6217 16.4371 19.6217 16.081V5.98529C19.6217 5.62916 19.4042 5.34045 19.136 5.34045Z" fill="#FAFAFA"/>
  </g>
  <defs>
    <clipPath id="clip0_984_1177">
      <rect width="32" height="32" fill="white" transform="translate(0.469238 0.725952)"/>
    </clipPath>
  </defs>
</svg>