<svg width="65" height="33" viewBox="0 0 65 33" fill="none" xmlns="http://www.w3.org/2000/svg">
<g clip-path="url(#clip0_1875_14197)">
<path d="M19.8831 5.42017L14.4301 5.42017L8.13079 19.9149L6.23866 15.5817H0.785278L1.14864 16.4111L5.83357 27.0315H10.4318L19.5167 6.25906L19.8831 5.42017Z" fill="#F36E26"/>
<path d="M27.3176 10.831C25.9493 10.0964 24.3865 9.72388 22.6726 9.72388C21.507 9.72388 20.4085 9.90013 19.3911 10.2491L14.308 21.8715C14.4526 22.2219 14.6209 22.5609 14.8128 22.8883C15.5875 24.2122 16.6791 25.2584 18.057 25.9982C19.4241 26.7329 20.9771 27.1054 22.6726 27.1054C24.3681 27.1054 25.9504 26.7329 27.3178 25.9982C28.6953 25.2584 29.7868 24.2121 30.5621 22.8883C31.3349 21.5686 31.7266 20.0583 31.7266 18.3997C31.7266 16.741 31.3344 15.2352 30.5609 13.924C29.7859 12.6116 28.6949 11.5709 27.3176 10.8308V10.831ZM25.6323 21.5687C24.8511 22.3654 23.8829 22.7526 22.6726 22.7526C21.4622 22.7526 20.5008 22.3662 19.7299 21.5709C18.9535 20.7707 18.576 19.7334 18.576 18.3998C18.576 17.0663 18.9535 16.0294 19.7301 15.2286C20.5011 14.4335 21.4638 14.047 22.6726 14.047C23.8814 14.047 24.8508 14.4344 25.6323 15.2311C26.4173 16.0316 26.7989 17.0681 26.7989 18.3998C26.7989 19.7315 26.4173 20.7684 25.6323 21.5687Z" fill="#092B49"/>
<path d="M39.8848 22.3463C39.4342 22.6994 38.8745 22.8712 38.1737 22.8712C37.6287 22.8712 37.2371 22.7347 36.9762 22.4535C36.7072 22.1642 36.5707 21.707 36.5707 21.0944V14.1654L40.8157 14.1654V10.0199H36.5707V6.40747L31.6726 6.40747V10.0201H29.0603V10.167C30.1984 10.9647 31.1304 11.9717 31.8396 13.1728C32.7495 14.7151 33.2107 16.4736 33.2107 18.4C33.2107 20.3264 32.7947 21.9113 31.9744 23.4039C32.2382 24.272 32.6745 24.9997 33.2805 25.5788C34.3401 26.592 35.8366 27.1056 37.7284 27.1056C38.473 27.1056 39.192 27.0083 39.8657 26.8163C40.5642 26.6172 41.17 26.3109 41.6665 25.9058L42.0015 25.6324L40.5122 21.8545L39.8848 22.3463Z" fill="#092B49"/>
<path d="M55.5431 13.9237C54.809 12.5975 53.7731 11.5537 52.4641 10.8212C51.163 10.0931 49.6719 9.72388 48.0326 9.72388C46.3932 9.72388 44.8594 10.0977 43.5288 10.8348C43.0887 11.0787 42.6791 11.3559 42.3 11.6648V15.646H39.6442C39.3793 16.5097 39.2457 17.4304 39.2457 18.3998C39.2457 19.2182 39.3413 20.0003 39.5306 20.7412L41.1638 19.461L43.748 26.0158C45.1465 26.7387 46.7776 27.1054 48.5967 27.1054C50.0319 27.1054 51.3446 26.872 52.4982 26.4116C53.6737 25.9428 54.6615 25.2381 55.4344 24.3172L55.7596 23.9296L53.0166 20.7852L52.5667 21.2419C51.5457 22.2783 50.2763 22.7822 48.6858 22.7822C47.4569 22.7822 46.4224 22.4777 45.611 21.8772C45.0022 21.4266 44.5772 20.8662 44.3241 20.1764L56.5349 20.1764L56.5802 19.6333C56.6214 19.1368 56.6415 18.7624 56.6415 18.4887C56.6415 16.7765 56.272 15.2405 55.5434 13.9237H55.5431ZM44.2609 16.5345C44.4781 15.8258 44.856 15.2473 45.4053 14.7785C46.1222 14.1668 46.9816 13.8695 48.0324 13.8695C49.0833 13.8695 49.9624 14.1702 50.6686 14.7883C51.2101 15.2626 51.5782 15.8379 51.7837 16.5345H44.2609Z" fill="#092B49"/>
</g>
<path d="M53.6737 6.40747L55.2904 9.2078H58.6392L56.9648 12.1092L58.5815 14.9059L63.4857 6.40747H53.6737Z" fill="#F36E26"/>
<defs>
<clipPath id="clip0_1875_14197">
<rect width="55.856" height="21.6853" fill="white" transform="translate(0.785278 5.42017)"/>
</clipPath>
</defs>
</svg>
